M48
; DRILL file {KiCad (6.0.7)} date Mon Oct 17 23:11:27 2022
; FORMAT={-:-/ absolute / metric / decimal}
; #@! TF.CreationDate,2022-10-17T23:11:27+02:00
; #@! TF.GenerationSoftware,Kicad,Pcbnew,(6.0.7)
; #@! TF.FileFunction,Plated,1,2,PTH
FMAT,2
METRIC
; #@! TA.AperFunction,Plated,PTH,ViaDrill
T1C0.300
; #@! TA.AperFunction,Plated,PTH,ViaDrill
T2C0.500
; #@! TA.AperFunction,Plated,PTH,ComponentDrill
T3C0.800
; #@! TA.AperFunction,Plated,PTH,ComponentDrill
T4C0.990
; #@! TA.AperFunction,Plated,PTH,ComponentDrill
T5C1.000
; #@! TA.AperFunction,Plated,PTH,ComponentDrill
T6C1.300
%
G90
G05
T1
X126.238Y-68.199
X126.238Y-70.358
X126.238Y-79.121
X126.238Y-81.915
X126.238Y-86.487
X126.238Y-90.043
X126.238Y-95.758
X126.238Y-102.108
X126.365Y-104.648
X126.365Y-107.696
X126.365Y-110.998
X126.365Y-114.935
X126.365Y-118.364
X126.365Y-121.666
X126.365Y-124.333
X126.365Y-126.746
X126.619Y-128.524
X126.873Y-66.167
X129.286Y-128.524
X130.028Y-110.342
X130.556Y-82.042
X130.556Y-87.249
X130.683Y-66.167
X131.049Y-68.99
X131.191Y-120.015
X131.445Y-114.427
X132.207Y-104.648
X132.207Y-128.524
X132.715Y-95.885
X132.842Y-91.313
X134.62Y-108.458
X135.001Y-128.524
X135.636Y-66.04
X136.017Y-79.756
X136.144Y-84.582
X136.398Y-117.856
X136.779Y-72.771
X137.795Y-96.266
X138.176Y-105.41
X138.303Y-114.3
X138.379Y-128.448
X138.532Y-69.845
X138.557Y-109.728
X138.938Y-66.167
X139.065Y-123.19
X139.7Y-103.759
X139.749Y-88.737
X140.335Y-121.539
X141.097Y-108.712
X141.605Y-107.061
X141.859Y-110.998
X141.859Y-113.538
X141.859Y-115.443
X141.859Y-117.856
X141.859Y-120.015
X142.748Y-91.948
X142.875Y-66.167
X143.256Y-104.013
X143.637Y-86.487
X143.662Y-97.587
X143.699Y-96.737
X144.646Y-73.394
X144.78Y-105.181
X144.78Y-109.855
X145.031Y-69.845
X145.161Y-81.915
X146.177Y-87.122
X146.291Y-94.467
X146.355Y-105.385
X146.685Y-66.167
X147.193Y-108.712
X147.32Y-83.947
X147.879Y-105.385
X148.082Y-106.299
X148.844Y-78.232
X148.965Y-73.351
X149.352Y-81.661
X149.979Y-95.371
X150.495Y-109.855
X151.13Y-66.167
X151.499Y-88.53
X151.765Y-79.629
X152.4Y-113.538
X152.4Y-117.221
X152.527Y-110.744
X152.654Y-120.523
X152.899Y-70.101
X153.162Y-104.648
X154.686Y-122.936
X154.686Y-126.746
X155.067Y-66.167
X155.829Y-80.137
X156.083Y-81.153
X156.591Y-92.837
X157.226Y-81.407
X157.48Y-78.994
X157.861Y-128.27
X158.496Y-66.167
X158.623Y-78.994
X158.623Y-81.28
X158.877Y-104.902
X158.97Y-97.253
X159.005Y-87.37
X159.131Y-115.443
X159.131Y-119.38
X159.258Y-110.236
X159.639Y-128.27
X159.766Y-78.994
X160.274Y-81.28
X160.782Y-78.994
X161.29Y-80.01
X162.179Y-69.342
X162.433Y-66.04
X162.56Y-128.27
X162.687Y-124.206
X162.941Y-106.807
X163.068Y-83.312
X163.449Y-81.407
X163.576Y-113.411
X163.693Y-79.248
X163.703Y-80.137
X163.703Y-118.999
X164.338Y-84.201
X164.573Y-87.865
X165.227Y-98.298
X165.227Y-128.27
X165.481Y-83.82
X165.608Y-66.167
X165.608Y-81.915
X165.735Y-82.931
X166.116Y-77.089
X166.116Y-77.978
X166.116Y-115.189
X166.751Y-76.53
X167.386Y-78.74
X167.513Y-105.029
X167.64Y-119.888
X167.767Y-76.581
X168.148Y-113.284
X168.148Y-127.889
X168.275Y-80.899
X168.275Y-125.222
X168.402Y-66.548
X168.529Y-77.089
X168.529Y-77.851
X168.529Y-78.613
X168.529Y-123.063
X168.656Y-68.453
X169.037Y-70.612
X169.037Y-72.644
X169.291Y-79.629
X170.307Y-122.301
X171.323Y-70.739
X172.593Y-75.057
X172.593Y-82.931
X172.593Y-87.249
X172.593Y-91.059
X172.593Y-95.377
X172.593Y-99.187
X172.593Y-102.362
X172.593Y-105.791
X172.593Y-113.157
X172.593Y-116.586
X172.593Y-119.38
X172.593Y-122.174
X172.72Y-79.375
X172.72Y-106.807
T2
X147.879Y-107.493
T3
X167.132Y-88.646
X167.132Y-92.146
T4
X130.13Y-126.644
X134.63Y-126.644
T5
X127.076Y-76.985
X127.076Y-99.845
X127.127Y-73.152
X129.616Y-76.985
X129.616Y-99.845
X129.667Y-73.152
X132.156Y-76.985
X132.156Y-99.845
X132.207Y-73.152
X134.696Y-76.985
X134.696Y-99.845
X137.236Y-76.985
X137.236Y-99.845
X139.776Y-76.985
X139.776Y-99.845
X142.316Y-76.985
X142.316Y-99.845
X144.856Y-76.985
X144.856Y-99.845
T6
X128.87Y-124.154
X135.88Y-124.154
X164.13Y-101.346
X169.21Y-101.346
T0
M30
