%TF.GenerationSoftware,KiCad,Pcbnew,(6.0.7)*%
%TF.CreationDate,2022-10-17T23:11:19+02:00*%
%TF.ProjectId,Wifi_homesensor,57696669-5f68-46f6-9d65-73656e736f72,rev?*%
%TF.SameCoordinates,Original*%
%TF.FileFunction,Copper,L1,Top*%
%TF.FilePolarity,Positive*%
%FSLAX46Y46*%
G04 Gerber Fmt 4.6, Leading zero omitted, Abs format (unit mm)*
G04 Created by KiCad (PCBNEW (6.0.7)) date 2022-10-17 23:11:19*
%MOMM*%
%LPD*%
G01*
G04 APERTURE LIST*
G04 Aperture macros list*
%AMRoundRect*
0 Rectangle with rounded corners*
0 $1 Rounding radius*
0 $2 $3 $4 $5 $6 $7 $8 $9 X,Y pos of 4 corners*
0 Add a 4 corners polygon primitive as box body*
4,1,4,$2,$3,$4,$5,$6,$7,$8,$9,$2,$3,0*
0 Add four circle primitives for the rounded corners*
1,1,$1+$1,$2,$3*
1,1,$1+$1,$4,$5*
1,1,$1+$1,$6,$7*
1,1,$1+$1,$8,$9*
0 Add four rect primitives between the rounded corners*
20,1,$1+$1,$2,$3,$4,$5,0*
20,1,$1+$1,$4,$5,$6,$7,0*
20,1,$1+$1,$6,$7,$8,$9,0*
20,1,$1+$1,$8,$9,$2,$3,0*%
%AMFreePoly0*
4,1,6,0.500000,-0.850000,-0.500000,-0.850000,-0.500000,0.550000,-0.200000,0.850000,0.500000,0.850000,0.500000,-0.850000,0.500000,-0.850000,$1*%
G04 Aperture macros list end*
%TA.AperFunction,SMDPad,CuDef*%
%ADD10RoundRect,0.200000X-0.200000X-0.275000X0.200000X-0.275000X0.200000X0.275000X-0.200000X0.275000X0*%
%TD*%
%TA.AperFunction,SMDPad,CuDef*%
%ADD11RoundRect,0.225000X0.250000X-0.225000X0.250000X0.225000X-0.250000X0.225000X-0.250000X-0.225000X0*%
%TD*%
%TA.AperFunction,SMDPad,CuDef*%
%ADD12RoundRect,0.225000X-0.225000X-0.250000X0.225000X-0.250000X0.225000X0.250000X-0.225000X0.250000X0*%
%TD*%
%TA.AperFunction,SMDPad,CuDef*%
%ADD13RoundRect,0.150000X-0.512500X-0.150000X0.512500X-0.150000X0.512500X0.150000X-0.512500X0.150000X0*%
%TD*%
%TA.AperFunction,SMDPad,CuDef*%
%ADD14RoundRect,0.243750X0.456250X-0.243750X0.456250X0.243750X-0.456250X0.243750X-0.456250X-0.243750X0*%
%TD*%
%TA.AperFunction,ComponentPad*%
%ADD15R,2.000000X2.000000*%
%TD*%
%TA.AperFunction,ComponentPad*%
%ADD16O,1.600000X2.000000*%
%TD*%
%TA.AperFunction,SMDPad,CuDef*%
%ADD17R,2.300000X2.500000*%
%TD*%
%TA.AperFunction,SMDPad,CuDef*%
%ADD18RoundRect,0.225000X-0.250000X0.225000X-0.250000X-0.225000X0.250000X-0.225000X0.250000X0.225000X0*%
%TD*%
%TA.AperFunction,SMDPad,CuDef*%
%ADD19RoundRect,0.200000X0.200000X0.275000X-0.200000X0.275000X-0.200000X-0.275000X0.200000X-0.275000X0*%
%TD*%
%TA.AperFunction,ComponentPad*%
%ADD20R,2.600000X2.600000*%
%TD*%
%TA.AperFunction,ComponentPad*%
%ADD21C,2.600000*%
%TD*%
%TA.AperFunction,SMDPad,CuDef*%
%ADD22RoundRect,0.200000X0.275000X-0.200000X0.275000X0.200000X-0.275000X0.200000X-0.275000X-0.200000X0*%
%TD*%
%TA.AperFunction,SMDPad,CuDef*%
%ADD23R,1.700000X1.300000*%
%TD*%
%TA.AperFunction,ComponentPad*%
%ADD24C,2.100000*%
%TD*%
%TA.AperFunction,ComponentPad*%
%ADD25C,1.750000*%
%TD*%
%TA.AperFunction,SMDPad,CuDef*%
%ADD26RoundRect,0.165000X0.660000X-1.085000X0.660000X1.085000X-0.660000X1.085000X-0.660000X-1.085000X0*%
%TD*%
%TA.AperFunction,SMDPad,CuDef*%
%ADD27RoundRect,0.250000X0.325000X0.650000X-0.325000X0.650000X-0.325000X-0.650000X0.325000X-0.650000X0*%
%TD*%
%TA.AperFunction,SMDPad,CuDef*%
%ADD28R,1.100000X1.100000*%
%TD*%
%TA.AperFunction,SMDPad,CuDef*%
%ADD29C,0.750000*%
%TD*%
%TA.AperFunction,SMDPad,CuDef*%
%ADD30RoundRect,0.250000X-0.650000X0.325000X-0.650000X-0.325000X0.650000X-0.325000X0.650000X0.325000X0*%
%TD*%
%TA.AperFunction,ComponentPad*%
%ADD31R,1.700000X1.700000*%
%TD*%
%TA.AperFunction,ComponentPad*%
%ADD32O,1.700000X1.700000*%
%TD*%
%TA.AperFunction,SMDPad,CuDef*%
%ADD33R,0.550000X0.250000*%
%TD*%
%TA.AperFunction,SMDPad,CuDef*%
%ADD34FreePoly0,0.000000*%
%TD*%
%TA.AperFunction,ComponentPad*%
%ADD35C,1.600000*%
%TD*%
%TA.AperFunction,SMDPad,CuDef*%
%ADD36RoundRect,0.250000X-1.450000X0.312500X-1.450000X-0.312500X1.450000X-0.312500X1.450000X0.312500X0*%
%TD*%
%TA.AperFunction,ViaPad*%
%ADD37C,0.600000*%
%TD*%
%TA.AperFunction,ViaPad*%
%ADD38C,1.000000*%
%TD*%
%TA.AperFunction,Conductor*%
%ADD39C,0.254000*%
%TD*%
%TA.AperFunction,Conductor*%
%ADD40C,0.600000*%
%TD*%
%TA.AperFunction,Conductor*%
%ADD41C,0.750000*%
%TD*%
%TA.AperFunction,Conductor*%
%ADD42C,0.200000*%
%TD*%
%TA.AperFunction,Conductor*%
%ADD43C,0.400000*%
%TD*%
%TA.AperFunction,Conductor*%
%ADD44C,0.250000*%
%TD*%
G04 APERTURE END LIST*
D10*
%TO.P,R8,1*%
%TO.N,/CONFIG*%
X141532000Y-102641400D03*
%TO.P,R8,2*%
%TO.N,+3V3*%
X143182000Y-102641400D03*
%TD*%
D11*
%TO.P,C6,1*%
%TO.N,+3V3*%
X148269800Y-127851200D03*
%TO.P,C6,2*%
%TO.N,GND*%
X148269800Y-126301200D03*
%TD*%
D12*
%TO.P,C3,1*%
%TO.N,Net-(C3-Pad1)*%
X163029600Y-77139800D03*
%TO.P,C3,2*%
%TO.N,Net-(C3-Pad2)*%
X164579600Y-77139800D03*
%TD*%
D13*
%TO.P,U1,1,BOOST*%
%TO.N,Net-(C3-Pad1)*%
X162555600Y-78714600D03*
%TO.P,U1,2,GND*%
%TO.N,GND*%
X162555600Y-79664600D03*
%TO.P,U1,3,Vfb*%
%TO.N,Net-(R2-Pad1)*%
X162555600Y-80614600D03*
%TO.P,U1,4,EN*%
%TO.N,+12V*%
X164830600Y-80614600D03*
%TO.P,U1,5,Vin*%
X164830600Y-79664600D03*
%TO.P,U1,6,SW*%
%TO.N,Net-(C3-Pad2)*%
X164830600Y-78714600D03*
%TD*%
D14*
%TO.P,D3,2,A*%
%TO.N,Net-(D3-Pad2)*%
X138313000Y-125478300D03*
%TO.P,D3,1,K*%
%TO.N,GND*%
X138313000Y-127353300D03*
%TD*%
D15*
%TO.P,U2,1,~{RST}*%
%TO.N,unconnected-(U2-Pad1)*%
X127076200Y-99845000D03*
D16*
%TO.P,U2,2,A0*%
%TO.N,unconnected-(U2-Pad2)*%
X129616200Y-99845000D03*
%TO.P,U2,3,D0*%
%TO.N,/CONFIG*%
X132156200Y-99845000D03*
%TO.P,U2,4,SCK/D5*%
%TO.N,unconnected-(U2-Pad4)*%
X134696200Y-99845000D03*
%TO.P,U2,5,MISO/D6*%
%TO.N,unconnected-(U2-Pad5)*%
X137236200Y-99845000D03*
%TO.P,U2,6,MOSI/D7*%
%TO.N,unconnected-(U2-Pad6)*%
X139776200Y-99845000D03*
%TO.P,U2,7,CS/D8*%
%TO.N,Net-(R5-Pad2)*%
X142316200Y-99845000D03*
%TO.P,U2,8,3V3*%
%TO.N,+3V3*%
X144856200Y-99845000D03*
%TO.P,U2,9,5V*%
%TO.N,unconnected-(U2-Pad9)*%
X144856200Y-76985000D03*
%TO.P,U2,10,GND*%
%TO.N,GND*%
X142316200Y-76985000D03*
%TO.P,U2,11,D4*%
%TO.N,unconnected-(U2-Pad11)*%
X139776200Y-76985000D03*
%TO.P,U2,12,D3*%
%TO.N,unconnected-(U2-Pad12)*%
X137236200Y-76985000D03*
%TO.P,U2,13,SDA/D2*%
%TO.N,/SDA*%
X134696200Y-76985000D03*
%TO.P,U2,14,SCL/D1*%
%TO.N,/SCL*%
X132156200Y-76985000D03*
%TO.P,U2,15,RX*%
%TO.N,/RX*%
X129616200Y-76985000D03*
%TO.P,U2,16,TX*%
%TO.N,/TX*%
X127076200Y-76985000D03*
%TD*%
D17*
%TO.P,D5,1,A1*%
%TO.N,+12V*%
X170992800Y-77207000D03*
%TO.P,D5,2,A2*%
%TO.N,GND*%
X170992800Y-72907000D03*
%TD*%
D18*
%TO.P,C7,1*%
%TO.N,+3V3*%
X144780000Y-102628400D03*
%TO.P,C7,2*%
%TO.N,GND*%
X144780000Y-104178400D03*
%TD*%
D19*
%TO.P,R3,1*%
%TO.N,GND*%
X162646200Y-82270600D03*
%TO.P,R3,2*%
%TO.N,Net-(R2-Pad1)*%
X160996200Y-82270600D03*
%TD*%
D20*
%TO.P,J2,1,Pin_1*%
%TO.N,GND*%
X164129800Y-101346000D03*
D21*
%TO.P,J2,2,Pin_2*%
%TO.N,Net-(F1-Pad2)*%
X169209800Y-101346000D03*
%TD*%
D22*
%TO.P,R7,1*%
%TO.N,Net-(D4-Pad2)*%
X156210000Y-124423700D03*
%TO.P,R7,2*%
%TO.N,+3V3*%
X156210000Y-122773700D03*
%TD*%
D23*
%TO.P,D2,1,K*%
%TO.N,Net-(C3-Pad1)*%
X155077000Y-78686600D03*
%TO.P,D2,2,A*%
%TO.N,+3V3*%
X155077000Y-75186600D03*
%TD*%
D24*
%TO.P,SW1,*%
%TO.N,*%
X135880000Y-124154400D03*
X128870000Y-124154400D03*
D25*
%TO.P,SW1,1,1*%
%TO.N,GND*%
X134630000Y-126644400D03*
%TO.P,SW1,2,2*%
%TO.N,/CONFIG*%
X130130000Y-126644400D03*
%TD*%
D26*
%TO.P,L1,1,1*%
%TO.N,+3V3*%
X159818000Y-73025000D03*
%TO.P,L1,2,2*%
%TO.N,Net-(C3-Pad2)*%
X165068000Y-73025000D03*
%TD*%
D27*
%TO.P,C2,1*%
%TO.N,+12V*%
X167270800Y-82575400D03*
%TO.P,C2,2*%
%TO.N,GND*%
X164320800Y-82575400D03*
%TD*%
D22*
%TO.P,R4,1*%
%TO.N,/SCL*%
X146354800Y-104228400D03*
%TO.P,R4,2*%
%TO.N,+3V3*%
X146354800Y-102578400D03*
%TD*%
D28*
%TO.P,D1,1,K*%
%TO.N,Net-(C3-Pad2)*%
X167319800Y-74800000D03*
%TO.P,D1,2,A*%
%TO.N,GND*%
X167319800Y-77600000D03*
%TD*%
D29*
%TO.P,FID1,*%
%TO.N,*%
X129159000Y-117221000D03*
%TD*%
D22*
%TO.P,R5,1*%
%TO.N,Net-(D3-Pad2)*%
X138313000Y-124002800D03*
%TO.P,R5,2*%
%TO.N,Net-(R5-Pad2)*%
X138313000Y-122352800D03*
%TD*%
D30*
%TO.P,C4,1*%
%TO.N,+3V3*%
X159801400Y-77237800D03*
%TO.P,C4,2*%
%TO.N,GND*%
X159801400Y-80187800D03*
%TD*%
D19*
%TO.P,R2,1*%
%TO.N,Net-(R2-Pad1)*%
X161124400Y-83794600D03*
%TO.P,R2,2*%
%TO.N,Net-(R1-Pad1)*%
X159474400Y-83794600D03*
%TD*%
D31*
%TO.P,J1,1,Pin_1*%
%TO.N,/TX*%
X127127000Y-73152000D03*
D32*
%TO.P,J1,2,Pin_2*%
%TO.N,/RX*%
X129667000Y-73152000D03*
%TO.P,J1,3,Pin_3*%
%TO.N,GND*%
X132207000Y-73152000D03*
%TD*%
D12*
%TO.P,C1,1*%
%TO.N,+12V*%
X166684200Y-79730600D03*
%TO.P,C1,2*%
%TO.N,GND*%
X168234200Y-79730600D03*
%TD*%
D33*
%TO.P,U3,1,SDA*%
%TO.N,/SDA*%
X144554800Y-126326200D03*
%TO.P,U3,2,ADDR*%
%TO.N,GND*%
X144554800Y-126826200D03*
%TO.P,U3,3,ALERT*%
%TO.N,unconnected-(U3-Pad3)*%
X144554800Y-127326200D03*
%TO.P,U3,4,SCL*%
%TO.N,/SCL*%
X144554800Y-127826200D03*
%TO.P,U3,5,VDD*%
%TO.N,+3V3*%
X146904800Y-127826200D03*
%TO.P,U3,6,~{RESET}*%
%TO.N,unconnected-(U3-Pad6)*%
X146904800Y-127326200D03*
%TO.P,U3,7,R*%
%TO.N,GND*%
X146904800Y-126826200D03*
%TO.P,U3,8,VSS*%
X146904800Y-126326200D03*
D34*
%TO.P,U3,9,VSS*%
X145729800Y-127076200D03*
%TD*%
D19*
%TO.P,R1,1*%
%TO.N,Net-(R1-Pad1)*%
X159598200Y-82270600D03*
%TO.P,R1,2*%
%TO.N,+3V3*%
X157948200Y-82270600D03*
%TD*%
D30*
%TO.P,C5,1*%
%TO.N,+3V3*%
X157413800Y-77241400D03*
%TO.P,C5,2*%
%TO.N,GND*%
X157413800Y-80191400D03*
%TD*%
D35*
%TO.P,C8,1*%
%TO.N,+12V*%
X167132000Y-88646000D03*
%TO.P,C8,2*%
%TO.N,GND*%
X167132000Y-92146000D03*
%TD*%
D14*
%TO.P,D4,1,K*%
%TO.N,GND*%
X156210000Y-127810500D03*
%TO.P,D4,2,A*%
%TO.N,Net-(D4-Pad2)*%
X156210000Y-125935500D03*
%TD*%
D36*
%TO.P,F1,1*%
%TO.N,+12V*%
X171297600Y-80848200D03*
%TO.P,F1,2*%
%TO.N,Net-(F1-Pad2)*%
X171297600Y-85123200D03*
%TD*%
D29*
%TO.P,FID2,*%
%TO.N,*%
X166497000Y-68326000D03*
%TD*%
D22*
%TO.P,R6,1*%
%TO.N,/SDA*%
X147904200Y-104228400D03*
%TO.P,R6,2*%
%TO.N,+3V3*%
X147904200Y-102578400D03*
%TD*%
D37*
%TO.N,GND*%
X167513000Y-105029000D03*
X126365000Y-114935000D03*
X132715000Y-95885000D03*
X148844000Y-78232000D03*
X165608000Y-81915000D03*
X138303000Y-114300000D03*
X168529000Y-78613000D03*
X165735000Y-82931000D03*
X168148000Y-127889000D03*
X161290000Y-80010000D03*
X126365000Y-118364000D03*
X159639000Y-128270000D03*
X151130000Y-66167000D03*
X138176000Y-105410000D03*
X160274000Y-81280000D03*
X168148000Y-113284000D03*
X154686000Y-122936000D03*
X163703000Y-80137000D03*
X172593000Y-116586000D03*
X168402000Y-66548000D03*
X141859000Y-120015000D03*
X169037000Y-72644000D03*
X152898553Y-70101333D03*
X148082000Y-106299000D03*
X134620000Y-108458000D03*
X126238000Y-95758000D03*
X143637000Y-86487000D03*
X159766000Y-78994000D03*
X137795000Y-96266000D03*
X164573434Y-87864558D03*
X163703000Y-118999000D03*
X164338000Y-84201000D03*
X138531947Y-69844786D03*
X144780000Y-105181400D03*
X163693100Y-79248000D03*
X126238000Y-68199000D03*
X136144000Y-84582000D03*
X157480000Y-78994000D03*
X172593000Y-82931000D03*
X126619000Y-128524000D03*
X147193000Y-108712000D03*
X169291000Y-79629000D03*
X168275000Y-125222000D03*
X168656000Y-68453000D03*
X130556000Y-82042000D03*
X168529000Y-123063000D03*
X152400000Y-117221000D03*
X158970155Y-97252508D03*
X136398000Y-117856000D03*
X126238000Y-102108000D03*
X143256000Y-104013000D03*
X141605000Y-107061000D03*
X141859000Y-113538000D03*
X153162000Y-104648000D03*
X126365000Y-110998000D03*
X138379200Y-128447800D03*
X166116000Y-77089000D03*
X157861000Y-128270000D03*
X126238000Y-86487000D03*
X126365000Y-107696000D03*
X162941000Y-106807000D03*
X166116000Y-77978000D03*
X172720000Y-79375000D03*
X141859000Y-115443000D03*
X149978787Y-95370920D03*
X158623000Y-81280000D03*
X168275000Y-80899000D03*
X158496000Y-66167000D03*
X155829000Y-80137000D03*
X150495000Y-109855000D03*
X130027714Y-110342054D03*
X165608000Y-66167000D03*
X156591000Y-92837000D03*
X160782000Y-78994000D03*
X136779000Y-72771000D03*
X168529000Y-77089000D03*
X170307000Y-122301000D03*
X162433000Y-66040000D03*
X145161000Y-81915000D03*
X158877000Y-104902000D03*
X165227000Y-128270000D03*
X152400000Y-113538000D03*
X147320000Y-83947000D03*
X172593000Y-119380000D03*
X141097000Y-108712000D03*
X131445000Y-114427000D03*
X172593000Y-102362000D03*
X172593000Y-95377000D03*
X130683000Y-66167000D03*
X146685000Y-66167000D03*
X139748917Y-88737228D03*
X172593000Y-105791000D03*
X142875000Y-66167000D03*
X152654000Y-120523000D03*
X146290854Y-94466767D03*
X159005424Y-87370469D03*
X152527000Y-110744000D03*
X159131000Y-119380000D03*
X144780000Y-109855000D03*
X139065000Y-123190000D03*
X126873000Y-66167000D03*
X126238000Y-79121000D03*
X148964840Y-73350922D03*
X145031126Y-69844786D03*
X135636000Y-66040000D03*
X126365000Y-104648000D03*
X132207000Y-128524000D03*
X126238000Y-90043000D03*
X157226000Y-81407000D03*
X166751000Y-76530200D03*
X172593000Y-113157000D03*
X136017000Y-79756000D03*
X139700000Y-103759000D03*
X167386000Y-78740000D03*
X129286000Y-128524000D03*
X156083000Y-81153000D03*
X126365000Y-121666000D03*
X171323000Y-70739000D03*
X159131000Y-115443000D03*
X162560000Y-128270000D03*
X165481000Y-83820000D03*
X138938000Y-66167000D03*
X166116000Y-115189000D03*
X126238000Y-81915000D03*
X144646306Y-73393680D03*
X141859000Y-110998000D03*
X172593000Y-122174000D03*
X146177000Y-87122000D03*
X162687000Y-124206000D03*
X159258000Y-110236000D03*
X135001000Y-128524000D03*
X126238000Y-70358000D03*
X162179000Y-69342000D03*
X155067000Y-66167000D03*
X132207000Y-104648000D03*
X172593000Y-75057000D03*
X163576000Y-113411000D03*
X167767000Y-76581000D03*
X168529000Y-77851000D03*
X163449000Y-81407000D03*
X163068000Y-83312000D03*
X172720000Y-106807000D03*
X172593000Y-91059000D03*
X140335000Y-121539000D03*
X154686000Y-126746000D03*
X169037000Y-70612000D03*
X172593000Y-87249000D03*
X158623000Y-78994000D03*
X131191000Y-120015000D03*
X167640000Y-119888000D03*
X126365000Y-124333000D03*
X142748000Y-91948000D03*
X172593000Y-99187000D03*
X138557000Y-109728000D03*
X132842000Y-91313000D03*
X141859000Y-117856000D03*
X130556000Y-87249000D03*
X131049340Y-68989631D03*
X165227000Y-98298000D03*
X151499062Y-88529679D03*
D38*
X147878800Y-107492800D03*
D37*
X149352000Y-81661000D03*
X151765000Y-79629000D03*
X126365000Y-126746000D03*
%TO.N,/SCL*%
X146354800Y-105384600D03*
X143662400Y-97586800D03*
%TO.N,/SDA*%
X143699003Y-96737397D03*
X147878800Y-105384600D03*
%TD*%
D39*
%TO.N,/SCL*%
X143240600Y-126126400D02*
X145856800Y-123510200D01*
X143240600Y-127457200D02*
X143240600Y-126126400D01*
X145856800Y-123510200D02*
X145856800Y-105857200D01*
X143609600Y-127826200D02*
X143240600Y-127457200D01*
X144554800Y-127826200D02*
X143609600Y-127826200D01*
X145856800Y-105857200D02*
X146329400Y-105384600D01*
X146329400Y-105384600D02*
X146354800Y-105384600D01*
D40*
%TO.N,+12V*%
X166618200Y-79664600D02*
X166684200Y-79730600D01*
D41*
X171297600Y-80848200D02*
X171297600Y-77511800D01*
X170637200Y-82575400D02*
X167270800Y-82575400D01*
D40*
X167284400Y-82561800D02*
X167270800Y-82575400D01*
D41*
X171297600Y-81915000D02*
X170637200Y-82575400D01*
D40*
X164830600Y-79664600D02*
X166618200Y-79664600D01*
X166684200Y-80349600D02*
X167284400Y-80949800D01*
X167284400Y-80949800D02*
X167284400Y-82561800D01*
X166684200Y-79730600D02*
X166684200Y-80349600D01*
D42*
X165298200Y-80614600D02*
X166243000Y-81559400D01*
X166243000Y-81547600D02*
X167270800Y-82575400D01*
X166243000Y-81559400D02*
X166243000Y-81547600D01*
X164830600Y-80614600D02*
X165298200Y-80614600D01*
D41*
X171297600Y-77511800D02*
X170992800Y-77207000D01*
D40*
X167132000Y-88646000D02*
X167132000Y-82714200D01*
X167132000Y-82714200D02*
X167270800Y-82575400D01*
D41*
X171297600Y-80848200D02*
X171297600Y-81915000D01*
D39*
%TO.N,GND*%
X163423600Y-82270600D02*
X164016000Y-82270600D01*
D43*
X147878800Y-107696000D02*
X147878800Y-107492800D01*
X148269800Y-125028800D02*
X146939000Y-123698000D01*
X147878800Y-107696000D02*
X147904200Y-107670600D01*
D42*
X146904800Y-126826200D02*
X147744800Y-126826200D01*
X146288600Y-126314200D02*
X145729800Y-126873000D01*
D39*
X164016000Y-82270600D02*
X164320800Y-82575400D01*
D42*
X145729800Y-126873000D02*
X145729800Y-127076200D01*
D39*
X138313000Y-127353300D02*
X138313000Y-128381600D01*
X138313000Y-128381600D02*
X138379200Y-128447800D01*
D42*
X146300600Y-126326200D02*
X146288600Y-126314200D01*
X145979800Y-126826200D02*
X145729800Y-127076200D01*
D43*
X147878800Y-109397800D02*
X147878800Y-107746800D01*
X147878800Y-107746800D02*
X147878800Y-107696000D01*
X146939000Y-110337600D02*
X147878800Y-109397800D01*
X148269800Y-126301200D02*
X148269800Y-125028800D01*
D39*
X163449000Y-81407000D02*
X163449000Y-82245200D01*
D42*
X146904800Y-126326200D02*
X146300600Y-126326200D01*
X147744800Y-126826200D02*
X148269800Y-126301200D01*
X144554800Y-126826200D02*
X145479800Y-126826200D01*
D44*
X144780000Y-104178400D02*
X144780000Y-105181400D01*
D39*
X163449000Y-82245200D02*
X163423600Y-82270600D01*
X163449000Y-82245200D02*
X163449000Y-82931000D01*
X158623000Y-78994000D02*
X158623000Y-81280000D01*
D42*
X148244800Y-126326200D02*
X148269800Y-126301200D01*
D43*
X146939000Y-123698000D02*
X146939000Y-110337600D01*
D39*
X162646200Y-82270600D02*
X163423600Y-82270600D01*
D42*
X145479800Y-126826200D02*
X145729800Y-127076200D01*
X146904800Y-126826200D02*
X145979800Y-126826200D01*
X146904800Y-126326200D02*
X148244800Y-126326200D01*
D39*
X163449000Y-82931000D02*
X163068000Y-83312000D01*
%TO.N,Net-(C3-Pad1)*%
X161036000Y-78232000D02*
X155531600Y-78232000D01*
X162555600Y-78714600D02*
X161518600Y-78714600D01*
X162555600Y-78236400D02*
X162555600Y-78714600D01*
X155531600Y-78232000D02*
X155077000Y-78686600D01*
X163029600Y-77139800D02*
X163029600Y-77762400D01*
X163029600Y-77762400D02*
X162555600Y-78236400D01*
X161518600Y-78714600D02*
X161036000Y-78232000D01*
D40*
%TO.N,Net-(C3-Pad2)*%
X165074600Y-74345800D02*
X165074600Y-73031600D01*
X164830600Y-78714600D02*
X164830600Y-77390800D01*
X164579600Y-77139800D02*
X164579600Y-74840800D01*
X164579600Y-74840800D02*
X165074600Y-74345800D01*
X167319800Y-74254200D02*
X166090600Y-73025000D01*
X166090600Y-73025000D02*
X165068000Y-73025000D01*
X164830600Y-77390800D02*
X164579600Y-77139800D01*
X167319800Y-74800000D02*
X167319800Y-74254200D01*
X165074600Y-73031600D02*
X165068000Y-73025000D01*
D39*
%TO.N,+3V3*%
X157948200Y-82270600D02*
X154660600Y-82270600D01*
D43*
X157413800Y-77241400D02*
X159797800Y-77241400D01*
X149946200Y-126923800D02*
X149946200Y-125577600D01*
D42*
X146904800Y-127826200D02*
X148244800Y-127826200D01*
D39*
X154660600Y-82270600D02*
X153035000Y-80645000D01*
D43*
X147599400Y-123230800D02*
X147599400Y-111150400D01*
D41*
X151866600Y-77241400D02*
X144856200Y-84251800D01*
X154076400Y-77241400D02*
X151866600Y-77241400D01*
D42*
X148244800Y-127826200D02*
X148269800Y-127851200D01*
D39*
X156210000Y-122773700D02*
X156210000Y-103886000D01*
X153035000Y-78282800D02*
X154076400Y-77241400D01*
D43*
X149072600Y-103073200D02*
X148577800Y-102578400D01*
X147599400Y-111150400D02*
X149072600Y-109677200D01*
X149072600Y-109677200D02*
X149072600Y-103073200D01*
X149018800Y-127851200D02*
X149946200Y-126923800D01*
X148577800Y-102578400D02*
X147904200Y-102578400D01*
X149946200Y-125577600D02*
X147599400Y-123230800D01*
D39*
X153035000Y-80645000D02*
X153035000Y-78282800D01*
D43*
X147904200Y-102578400D02*
X146354800Y-102578400D01*
D41*
X157413800Y-77241400D02*
X154076400Y-77241400D01*
D43*
X144856200Y-99845000D02*
X144856200Y-102552200D01*
X144830000Y-102578400D02*
X144780000Y-102628400D01*
D39*
X156210000Y-103886000D02*
X152169000Y-99845000D01*
D43*
X144856200Y-102552200D02*
X144780000Y-102628400D01*
X146354800Y-102578400D02*
X144830000Y-102578400D01*
D41*
X144856200Y-84251800D02*
X144856200Y-99845000D01*
D39*
X152169000Y-99845000D02*
X144856200Y-99845000D01*
X144767000Y-102641400D02*
X144780000Y-102628400D01*
X143182000Y-102641400D02*
X144767000Y-102641400D01*
D43*
X148269800Y-127851200D02*
X149018800Y-127851200D01*
X159797800Y-77241400D02*
X159801400Y-77237800D01*
D41*
%TO.N,Net-(F1-Pad2)*%
X171297600Y-89338150D02*
X169418000Y-91217750D01*
X171297600Y-85123200D02*
X171297600Y-89338150D01*
X169418000Y-101137800D02*
X169209800Y-101346000D01*
X169418000Y-91217750D02*
X169418000Y-101137800D01*
D39*
%TO.N,Net-(R1-Pad1)*%
X159598200Y-83022600D02*
X159598200Y-82270600D01*
X159474400Y-83794600D02*
X159474400Y-83146400D01*
X159474400Y-83146400D02*
X159598200Y-83022600D01*
%TO.N,Net-(R2-Pad1)*%
X160996200Y-82916600D02*
X161124400Y-83044800D01*
X160996200Y-82270600D02*
X160996200Y-82916600D01*
X160996200Y-81827800D02*
X162209400Y-80614600D01*
X161124400Y-83044800D02*
X161124400Y-83794600D01*
X162209400Y-80614600D02*
X162555600Y-80614600D01*
X160996200Y-82270600D02*
X160996200Y-81827800D01*
%TO.N,/SCL*%
X132156200Y-76985000D02*
X133959600Y-78788400D01*
X133959600Y-78788400D02*
X133959600Y-87884000D01*
X146354800Y-104228400D02*
X146354800Y-105384600D01*
X133959600Y-87884000D02*
X143662400Y-97586800D01*
%TO.N,Net-(D3-Pad2)*%
X138313000Y-124002800D02*
X138313000Y-125478300D01*
%TO.N,Net-(R5-Pad2)*%
X140106400Y-105867200D02*
X140106400Y-118059200D01*
X142392400Y-103581200D02*
X140106400Y-105867200D01*
X138313000Y-119852600D02*
X138313000Y-122352800D01*
X142392400Y-102184200D02*
X142392400Y-103581200D01*
X142316200Y-99845000D02*
X142316200Y-102108000D01*
X140106400Y-118059200D02*
X138313000Y-119852600D01*
X142316200Y-102108000D02*
X142392400Y-102184200D01*
%TO.N,/SDA*%
X146310899Y-124570101D02*
X146310899Y-108570117D01*
X147777200Y-105384600D02*
X147878800Y-105384600D01*
X146314000Y-106847800D02*
X147777200Y-105384600D01*
X147853400Y-105359200D02*
X147878800Y-105384600D01*
X146314000Y-108567015D02*
X146314000Y-106847800D01*
X146310899Y-108570117D02*
X146314000Y-108567015D01*
X147904200Y-104673400D02*
X147853400Y-104724200D01*
X134696200Y-76985000D02*
X134696200Y-87734594D01*
X147853400Y-104724200D02*
X147853400Y-105359200D01*
X134696200Y-87734594D02*
X143699003Y-96737397D01*
X144554800Y-126326200D02*
X146310899Y-124570101D01*
X147904200Y-104228400D02*
X147904200Y-104673400D01*
%TO.N,Net-(D4-Pad2)*%
X156210000Y-124423700D02*
X156210000Y-125935500D01*
%TO.N,/CONFIG*%
X141532000Y-103501800D02*
X139446000Y-105587800D01*
X133400800Y-102641400D02*
X132156200Y-101396800D01*
X133883400Y-123317000D02*
X133883400Y-124739400D01*
X141532000Y-102641400D02*
X133400800Y-102641400D01*
X133883400Y-124739400D02*
X131978400Y-126644400D01*
X132156200Y-101396800D02*
X132156200Y-99845000D01*
X139446000Y-117754400D02*
X133883400Y-123317000D01*
X131978400Y-126644400D02*
X130130000Y-126644400D01*
X141532000Y-102641400D02*
X141532000Y-103501800D01*
X139446000Y-105587800D02*
X139446000Y-117754400D01*
%TO.N,/TX*%
X127127000Y-76934200D02*
X127076200Y-76985000D01*
X127127000Y-73152000D02*
X127127000Y-76934200D01*
X127050800Y-76959600D02*
X127076200Y-76985000D01*
%TO.N,/RX*%
X129590800Y-76959600D02*
X129616200Y-76985000D01*
X129667000Y-76934200D02*
X129616200Y-76985000D01*
X129667000Y-73152000D02*
X129667000Y-76934200D01*
%TD*%
%TA.AperFunction,Conductor*%
%TO.N,+3V3*%
G36*
X161155450Y-71267002D02*
G01*
X161201943Y-71320658D01*
X161213328Y-71373470D01*
X161189436Y-77776488D01*
X161169180Y-77844534D01*
X161115351Y-77890826D01*
X161064871Y-77899425D01*
X161064984Y-77900713D01*
X161027189Y-77904020D01*
X161016206Y-77904500D01*
X160986164Y-77904500D01*
X160918043Y-77884498D01*
X160871550Y-77830842D01*
X160861446Y-77760568D01*
X160867281Y-77736752D01*
X160895877Y-77655321D01*
X160899145Y-77640427D01*
X160901121Y-77619519D01*
X160901400Y-77613608D01*
X160901400Y-77382915D01*
X160896925Y-77367676D01*
X160895535Y-77366471D01*
X160887852Y-77364800D01*
X159800400Y-77364800D01*
X159732279Y-77344798D01*
X159685786Y-77291142D01*
X159674400Y-77238800D01*
X159674400Y-77092685D01*
X159928400Y-77092685D01*
X159932875Y-77107924D01*
X159934265Y-77109129D01*
X159941948Y-77110800D01*
X160883284Y-77110800D01*
X160898523Y-77106325D01*
X160899728Y-77104935D01*
X160901399Y-77097252D01*
X160901399Y-76861996D01*
X160901120Y-76856075D01*
X160899144Y-76835169D01*
X160895879Y-76820284D01*
X160856706Y-76708736D01*
X160847994Y-76692280D01*
X160778784Y-76598579D01*
X160765621Y-76585416D01*
X160671920Y-76516206D01*
X160655464Y-76507494D01*
X160543921Y-76468323D01*
X160529027Y-76465055D01*
X160508119Y-76463079D01*
X160502208Y-76462800D01*
X159946515Y-76462800D01*
X159931276Y-76467275D01*
X159930071Y-76468665D01*
X159928400Y-76476348D01*
X159928400Y-77092685D01*
X159674400Y-77092685D01*
X159674400Y-76480916D01*
X159669925Y-76465677D01*
X159668535Y-76464472D01*
X159660852Y-76462801D01*
X159100596Y-76462801D01*
X159094675Y-76463080D01*
X159073769Y-76465056D01*
X159058884Y-76468321D01*
X158947336Y-76507494D01*
X158930880Y-76516206D01*
X158837179Y-76585416D01*
X158824016Y-76598579D01*
X158754806Y-76692280D01*
X158746094Y-76708736D01*
X158725851Y-76766379D01*
X158684408Y-76824025D01*
X158618378Y-76850113D01*
X158548726Y-76836362D01*
X158497565Y-76787137D01*
X158488085Y-76766380D01*
X158469105Y-76712334D01*
X158460394Y-76695880D01*
X158391184Y-76602179D01*
X158378021Y-76589016D01*
X158284320Y-76519806D01*
X158267864Y-76511094D01*
X158156321Y-76471923D01*
X158141427Y-76468655D01*
X158120519Y-76466679D01*
X158114608Y-76466400D01*
X157558915Y-76466400D01*
X157543676Y-76470875D01*
X157542471Y-76472265D01*
X157540800Y-76479948D01*
X157540800Y-77242400D01*
X157520798Y-77310521D01*
X157467142Y-77357014D01*
X157414800Y-77368400D01*
X156331916Y-77368400D01*
X156316677Y-77372875D01*
X156315472Y-77374265D01*
X156313801Y-77381948D01*
X156313801Y-77617204D01*
X156314080Y-77623125D01*
X156316056Y-77644031D01*
X156319321Y-77658916D01*
X156346655Y-77736752D01*
X156350353Y-77807652D01*
X156315133Y-77869297D01*
X156252177Y-77902114D01*
X156227772Y-77904500D01*
X156128411Y-77904500D01*
X156058409Y-77883265D01*
X156015550Y-77854627D01*
X156015546Y-77854625D01*
X156005231Y-77847733D01*
X155993062Y-77845312D01*
X155993061Y-77845312D01*
X155952816Y-77837307D01*
X155946748Y-77836100D01*
X155857697Y-77836100D01*
X155789576Y-77816098D01*
X155759764Y-77789379D01*
X155738799Y-77763481D01*
X155727400Y-77749400D01*
X153798390Y-77749400D01*
X153730269Y-77729398D01*
X153709295Y-77712495D01*
X153351305Y-77354505D01*
X153317279Y-77292193D01*
X153314400Y-77265410D01*
X153314400Y-77096285D01*
X156313800Y-77096285D01*
X156318275Y-77111524D01*
X156319665Y-77112729D01*
X156327348Y-77114400D01*
X157268685Y-77114400D01*
X157283924Y-77109925D01*
X157285129Y-77108535D01*
X157286800Y-77100852D01*
X157286800Y-76484516D01*
X157282325Y-76469277D01*
X157280935Y-76468072D01*
X157273252Y-76466401D01*
X156712996Y-76466401D01*
X156707075Y-76466680D01*
X156686169Y-76468656D01*
X156671284Y-76471921D01*
X156559736Y-76511094D01*
X156543280Y-76519806D01*
X156449579Y-76589016D01*
X156436416Y-76602179D01*
X156367206Y-76695880D01*
X156358494Y-76712336D01*
X156319323Y-76823879D01*
X156316055Y-76838773D01*
X156314079Y-76859681D01*
X156313800Y-76865592D01*
X156313800Y-77096285D01*
X153314400Y-77096285D01*
X153314400Y-75850111D01*
X154027000Y-75850111D01*
X154028207Y-75862366D01*
X154036183Y-75902464D01*
X154045499Y-75924955D01*
X154075915Y-75970476D01*
X154093124Y-75987685D01*
X154138645Y-76018101D01*
X154161136Y-76027417D01*
X154201234Y-76035393D01*
X154213489Y-76036600D01*
X154931885Y-76036600D01*
X154947124Y-76032125D01*
X154948329Y-76030735D01*
X154950000Y-76023052D01*
X154950000Y-76018485D01*
X155204000Y-76018485D01*
X155208475Y-76033724D01*
X155209865Y-76034929D01*
X155217548Y-76036600D01*
X155940511Y-76036600D01*
X155952766Y-76035393D01*
X155992864Y-76027417D01*
X156015355Y-76018101D01*
X156060876Y-75987685D01*
X156078085Y-75970476D01*
X156108501Y-75924955D01*
X156117817Y-75902464D01*
X156125793Y-75862366D01*
X156127000Y-75850111D01*
X156127000Y-75331715D01*
X156122525Y-75316476D01*
X156121135Y-75315271D01*
X156113452Y-75313600D01*
X155222115Y-75313600D01*
X155206876Y-75318075D01*
X155205671Y-75319465D01*
X155204000Y-75327148D01*
X155204000Y-76018485D01*
X154950000Y-76018485D01*
X154950000Y-75331715D01*
X154945525Y-75316476D01*
X154944135Y-75315271D01*
X154936452Y-75313600D01*
X154045115Y-75313600D01*
X154029876Y-75318075D01*
X154028671Y-75319465D01*
X154027000Y-75327148D01*
X154027000Y-75850111D01*
X153314400Y-75850111D01*
X153314400Y-75041485D01*
X154027000Y-75041485D01*
X154031475Y-75056724D01*
X154032865Y-75057929D01*
X154040548Y-75059600D01*
X154931885Y-75059600D01*
X154947124Y-75055125D01*
X154948329Y-75053735D01*
X154950000Y-75046052D01*
X154950000Y-75041485D01*
X155204000Y-75041485D01*
X155208475Y-75056724D01*
X155209865Y-75057929D01*
X155217548Y-75059600D01*
X156108885Y-75059600D01*
X156124124Y-75055125D01*
X156125329Y-75053735D01*
X156127000Y-75046052D01*
X156127000Y-74523089D01*
X156125793Y-74510834D01*
X156117817Y-74470736D01*
X156108501Y-74448245D01*
X156078085Y-74402724D01*
X156060876Y-74385515D01*
X156015355Y-74355099D01*
X155992864Y-74345783D01*
X155952766Y-74337807D01*
X155940511Y-74336600D01*
X155222115Y-74336600D01*
X155206876Y-74341075D01*
X155205671Y-74342465D01*
X155204000Y-74350148D01*
X155204000Y-75041485D01*
X154950000Y-75041485D01*
X154950000Y-74354715D01*
X154945525Y-74339476D01*
X154944135Y-74338271D01*
X154936452Y-74336600D01*
X154213489Y-74336600D01*
X154201234Y-74337807D01*
X154161136Y-74345783D01*
X154138645Y-74355099D01*
X154093124Y-74385515D01*
X154075915Y-74402724D01*
X154045499Y-74448245D01*
X154036183Y-74470736D01*
X154028207Y-74510834D01*
X154027000Y-74523089D01*
X154027000Y-75041485D01*
X153314400Y-75041485D01*
X153314400Y-74578565D01*
X153334402Y-74510444D01*
X153354687Y-74486211D01*
X153727751Y-74139986D01*
X158793001Y-74139986D01*
X158793672Y-74149152D01*
X158802135Y-74206647D01*
X158807878Y-74225129D01*
X158852525Y-74316065D01*
X158864485Y-74332770D01*
X158935742Y-74403903D01*
X158952470Y-74415835D01*
X159043494Y-74460328D01*
X159061962Y-74466036D01*
X159118879Y-74474340D01*
X159127978Y-74475000D01*
X159672885Y-74475000D01*
X159688124Y-74470525D01*
X159689329Y-74469135D01*
X159691000Y-74461452D01*
X159691000Y-74456884D01*
X159945000Y-74456884D01*
X159949475Y-74472123D01*
X159950865Y-74473328D01*
X159958548Y-74474999D01*
X160507986Y-74474999D01*
X160517152Y-74474328D01*
X160574647Y-74465865D01*
X160593129Y-74460122D01*
X160684065Y-74415475D01*
X160700770Y-74403515D01*
X160771903Y-74332258D01*
X160783835Y-74315530D01*
X160828328Y-74224506D01*
X160834036Y-74206038D01*
X160842340Y-74149121D01*
X160843000Y-74140022D01*
X160843000Y-73170115D01*
X160838525Y-73154876D01*
X160837135Y-73153671D01*
X160829452Y-73152000D01*
X159963115Y-73152000D01*
X159947876Y-73156475D01*
X159946671Y-73157865D01*
X159945000Y-73165548D01*
X159945000Y-74456884D01*
X159691000Y-74456884D01*
X159691000Y-73170115D01*
X159686525Y-73154876D01*
X159685135Y-73153671D01*
X159677452Y-73152000D01*
X158811116Y-73152000D01*
X158795877Y-73156475D01*
X158794672Y-73157865D01*
X158793001Y-73165548D01*
X158793001Y-74139986D01*
X153727751Y-74139986D01*
X155085535Y-72879885D01*
X158793000Y-72879885D01*
X158797475Y-72895124D01*
X158798865Y-72896329D01*
X158806548Y-72898000D01*
X159672885Y-72898000D01*
X159688124Y-72893525D01*
X159689329Y-72892135D01*
X159691000Y-72884452D01*
X159691000Y-72879885D01*
X159945000Y-72879885D01*
X159949475Y-72895124D01*
X159950865Y-72896329D01*
X159958548Y-72898000D01*
X160824884Y-72898000D01*
X160840123Y-72893525D01*
X160841328Y-72892135D01*
X160842999Y-72884452D01*
X160842999Y-71910014D01*
X160842328Y-71900848D01*
X160833865Y-71843353D01*
X160828122Y-71824871D01*
X160783475Y-71733935D01*
X160771515Y-71717230D01*
X160700258Y-71646097D01*
X160683530Y-71634165D01*
X160592506Y-71589672D01*
X160574038Y-71583964D01*
X160517121Y-71575660D01*
X160508022Y-71575000D01*
X159963115Y-71575000D01*
X159947876Y-71579475D01*
X159946671Y-71580865D01*
X159945000Y-71588548D01*
X159945000Y-72879885D01*
X159691000Y-72879885D01*
X159691000Y-71593116D01*
X159686525Y-71577877D01*
X159685135Y-71576672D01*
X159677452Y-71575001D01*
X159128014Y-71575001D01*
X159118848Y-71575672D01*
X159061353Y-71584135D01*
X159042871Y-71589878D01*
X158951935Y-71634525D01*
X158935230Y-71646485D01*
X158864097Y-71717742D01*
X158852165Y-71734470D01*
X158807672Y-71825494D01*
X158801964Y-71843962D01*
X158793660Y-71900879D01*
X158793000Y-71909978D01*
X158793000Y-72879885D01*
X155085535Y-72879885D01*
X156808748Y-71280644D01*
X156872285Y-71248966D01*
X156894459Y-71247000D01*
X161087329Y-71247000D01*
X161155450Y-71267002D01*
G37*
%TD.AperFunction*%
%TD*%
%TA.AperFunction,Conductor*%
%TO.N,GND*%
G36*
X168646531Y-65602802D02*
G01*
X168667505Y-65619705D01*
X169838295Y-66790495D01*
X169872321Y-66852807D01*
X169875200Y-66879590D01*
X169875200Y-69443600D01*
X170459400Y-70027800D01*
X172286810Y-70027800D01*
X172354931Y-70047802D01*
X172375905Y-70064705D01*
X173318095Y-71006895D01*
X173352121Y-71069207D01*
X173355000Y-71095990D01*
X173355000Y-80126644D01*
X173334998Y-80194765D01*
X173281342Y-80241258D01*
X173211068Y-80251362D01*
X173146488Y-80221868D01*
X173128179Y-80202215D01*
X173108004Y-80175296D01*
X173051934Y-80133274D01*
X172999546Y-80094011D01*
X172999543Y-80094009D01*
X172992364Y-80088629D01*
X172891593Y-80050852D01*
X172864443Y-80040674D01*
X172864441Y-80040674D01*
X172857048Y-80037902D01*
X172849198Y-80037049D01*
X172849197Y-80037049D01*
X172798753Y-80031569D01*
X172798752Y-80031569D01*
X172795356Y-80031200D01*
X172053100Y-80031200D01*
X171984979Y-80011198D01*
X171938486Y-79957542D01*
X171927100Y-79905200D01*
X171927100Y-78837499D01*
X171947102Y-78769378D01*
X172000758Y-78722885D01*
X172053100Y-78711499D01*
X172167866Y-78711499D01*
X172203618Y-78704388D01*
X172229926Y-78699156D01*
X172229928Y-78699155D01*
X172242101Y-78696734D01*
X172252421Y-78689839D01*
X172252422Y-78689838D01*
X172315968Y-78647377D01*
X172326284Y-78640484D01*
X172382534Y-78556301D01*
X172397300Y-78482067D01*
X172397299Y-75931934D01*
X172382534Y-75857699D01*
X172326284Y-75773516D01*
X172242101Y-75717266D01*
X172167867Y-75702500D01*
X170992990Y-75702500D01*
X169817734Y-75702501D01*
X169781982Y-75709612D01*
X169755674Y-75714844D01*
X169755672Y-75714845D01*
X169743499Y-75717266D01*
X169733179Y-75724161D01*
X169733178Y-75724162D01*
X169686440Y-75755392D01*
X169659316Y-75773516D01*
X169603066Y-75857699D01*
X169588300Y-75931933D01*
X169588301Y-78482066D01*
X169603066Y-78556301D01*
X169659316Y-78640484D01*
X169743499Y-78696734D01*
X169817733Y-78711500D01*
X170542100Y-78711500D01*
X170610221Y-78731502D01*
X170656714Y-78785158D01*
X170668100Y-78837500D01*
X170668100Y-79905200D01*
X170648098Y-79973321D01*
X170594442Y-80019814D01*
X170542100Y-80031200D01*
X169799844Y-80031200D01*
X169796448Y-80031569D01*
X169796447Y-80031569D01*
X169746003Y-80037049D01*
X169746002Y-80037049D01*
X169738152Y-80037902D01*
X169730759Y-80040674D01*
X169730757Y-80040674D01*
X169703607Y-80050852D01*
X169602836Y-80088629D01*
X169595657Y-80094009D01*
X169595654Y-80094011D01*
X169543266Y-80133274D01*
X169487196Y-80175296D01*
X169481815Y-80182476D01*
X169405911Y-80283754D01*
X169405909Y-80283757D01*
X169400529Y-80290936D01*
X169349802Y-80426252D01*
X169348949Y-80434102D01*
X169348949Y-80434103D01*
X169346492Y-80456724D01*
X169343100Y-80487944D01*
X169343100Y-81208456D01*
X169349802Y-81270148D01*
X169400529Y-81405464D01*
X169405909Y-81412643D01*
X169405911Y-81412646D01*
X169459504Y-81484154D01*
X169487196Y-81521104D01*
X169494376Y-81526485D01*
X169595654Y-81602389D01*
X169595657Y-81602391D01*
X169602836Y-81607771D01*
X169692554Y-81641404D01*
X169730757Y-81655726D01*
X169730759Y-81655726D01*
X169738152Y-81658498D01*
X169746002Y-81659351D01*
X169746003Y-81659351D01*
X169796447Y-81664831D01*
X169799844Y-81665200D01*
X170352962Y-81665200D01*
X170421083Y-81685202D01*
X170467576Y-81738858D01*
X170477680Y-81809132D01*
X170448186Y-81873712D01*
X170442057Y-81880295D01*
X170413357Y-81908995D01*
X170351045Y-81943021D01*
X170324262Y-81945900D01*
X168220768Y-81945900D01*
X168152647Y-81925898D01*
X168106154Y-81872242D01*
X168095505Y-81833507D01*
X168094451Y-81823803D01*
X168094451Y-81823802D01*
X168093598Y-81815952D01*
X168042871Y-81680636D01*
X168037491Y-81673457D01*
X168037489Y-81673454D01*
X167961585Y-81572176D01*
X167956204Y-81564996D01*
X167889333Y-81514879D01*
X167846820Y-81458022D01*
X167838900Y-81414055D01*
X167838900Y-80964875D01*
X167839010Y-80959599D01*
X167841268Y-80905709D01*
X167841628Y-80897126D01*
X167836583Y-80875616D01*
X167831612Y-80854422D01*
X167829449Y-80842749D01*
X167824661Y-80807795D01*
X167823495Y-80799282D01*
X167817447Y-80785306D01*
X167810413Y-80764037D01*
X167808898Y-80757578D01*
X167806937Y-80749217D01*
X167785797Y-80710763D01*
X167780582Y-80700117D01*
X167766570Y-80667737D01*
X167766568Y-80667733D01*
X167763158Y-80659854D01*
X167753579Y-80648025D01*
X167741068Y-80629401D01*
X167740312Y-80628025D01*
X167725040Y-80558691D01*
X167749678Y-80492106D01*
X167806403Y-80449412D01*
X167877205Y-80444163D01*
X167894970Y-80449370D01*
X167897893Y-80450466D01*
X167913134Y-80454090D01*
X167960459Y-80459231D01*
X167967273Y-80459600D01*
X168089085Y-80459600D01*
X168104324Y-80455125D01*
X168105529Y-80453735D01*
X168107200Y-80446052D01*
X168107200Y-80441485D01*
X168361200Y-80441485D01*
X168365675Y-80456724D01*
X168367065Y-80457929D01*
X168374748Y-80459600D01*
X168501127Y-80459600D01*
X168507941Y-80459231D01*
X168555266Y-80454090D01*
X168570511Y-80450465D01*
X168683188Y-80408225D01*
X168698775Y-80399692D01*
X168794210Y-80328166D01*
X168806766Y-80315610D01*
X168878292Y-80220175D01*
X168886825Y-80204588D01*
X168929065Y-80091911D01*
X168932690Y-80076666D01*
X168937831Y-80029341D01*
X168938200Y-80022527D01*
X168938200Y-79875715D01*
X168933725Y-79860476D01*
X168932335Y-79859271D01*
X168924652Y-79857600D01*
X168379315Y-79857600D01*
X168364076Y-79862075D01*
X168362871Y-79863465D01*
X168361200Y-79871148D01*
X168361200Y-80441485D01*
X168107200Y-80441485D01*
X168107200Y-79585485D01*
X168361200Y-79585485D01*
X168365675Y-79600724D01*
X168367065Y-79601929D01*
X168374748Y-79603600D01*
X168920085Y-79603600D01*
X168935324Y-79599125D01*
X168936529Y-79597735D01*
X168938200Y-79590052D01*
X168938200Y-79438673D01*
X168937831Y-79431859D01*
X168932690Y-79384534D01*
X168929065Y-79369289D01*
X168886825Y-79256612D01*
X168878292Y-79241025D01*
X168806766Y-79145590D01*
X168794210Y-79133034D01*
X168698775Y-79061508D01*
X168683188Y-79052975D01*
X168570511Y-79010735D01*
X168555266Y-79007110D01*
X168507941Y-79001969D01*
X168501127Y-79001600D01*
X168379315Y-79001600D01*
X168364076Y-79006075D01*
X168362871Y-79007465D01*
X168361200Y-79015148D01*
X168361200Y-79585485D01*
X168107200Y-79585485D01*
X168107200Y-79019715D01*
X168102725Y-79004476D01*
X168101335Y-79003271D01*
X168093652Y-79001600D01*
X167967273Y-79001600D01*
X167960459Y-79001969D01*
X167913134Y-79007110D01*
X167897889Y-79010735D01*
X167785212Y-79052975D01*
X167769625Y-79061508D01*
X167674190Y-79133034D01*
X167661634Y-79145590D01*
X167590108Y-79241025D01*
X167581574Y-79256614D01*
X167577449Y-79267618D01*
X167534809Y-79324383D01*
X167468247Y-79349084D01*
X167398898Y-79333877D01*
X167348779Y-79283592D01*
X167341485Y-79267620D01*
X167341484Y-79267618D01*
X167334117Y-79247965D01*
X167328737Y-79240786D01*
X167328735Y-79240783D01*
X167257123Y-79145233D01*
X167251744Y-79138056D01*
X167198186Y-79097916D01*
X167149017Y-79061065D01*
X167149014Y-79061063D01*
X167141835Y-79055683D01*
X167132064Y-79052020D01*
X167020619Y-79010242D01*
X167020618Y-79010242D01*
X167013224Y-79007470D01*
X167005374Y-79006617D01*
X167005373Y-79006617D01*
X166957986Y-79001469D01*
X166957985Y-79001469D01*
X166954589Y-79001100D01*
X166684280Y-79001100D01*
X166413812Y-79001101D01*
X166410418Y-79001470D01*
X166410412Y-79001470D01*
X166363034Y-79006616D01*
X166363030Y-79006617D01*
X166355176Y-79007470D01*
X166226565Y-79055683D01*
X166219386Y-79061063D01*
X166219383Y-79061065D01*
X166187546Y-79084926D01*
X166121039Y-79109774D01*
X166111981Y-79110100D01*
X165861286Y-79110100D01*
X165793165Y-79090098D01*
X165746672Y-79036442D01*
X165736837Y-78964390D01*
X165739683Y-78946422D01*
X165747600Y-78896434D01*
X165747600Y-78532766D01*
X165732598Y-78438045D01*
X165674426Y-78323877D01*
X165583823Y-78233274D01*
X165469655Y-78175102D01*
X165468265Y-78174882D01*
X165459411Y-78168828D01*
X166515801Y-78168828D01*
X166517009Y-78181088D01*
X166528115Y-78236931D01*
X166537433Y-78259427D01*
X166579783Y-78322808D01*
X166596992Y-78340017D01*
X166660375Y-78382368D01*
X166682866Y-78391684D01*
X166738715Y-78402793D01*
X166750970Y-78404000D01*
X167174685Y-78404000D01*
X167189924Y-78399525D01*
X167191129Y-78398135D01*
X167192800Y-78390452D01*
X167192800Y-78385884D01*
X167446800Y-78385884D01*
X167451275Y-78401123D01*
X167452665Y-78402328D01*
X167460348Y-78403999D01*
X167888628Y-78403999D01*
X167900888Y-78402791D01*
X167956731Y-78391685D01*
X167979227Y-78382367D01*
X168042608Y-78340017D01*
X168059817Y-78322808D01*
X168102168Y-78259425D01*
X168111484Y-78236934D01*
X168122593Y-78181085D01*
X168123800Y-78168830D01*
X168123800Y-77745115D01*
X168119325Y-77729876D01*
X168117935Y-77728671D01*
X168110252Y-77727000D01*
X167464915Y-77727000D01*
X167449676Y-77731475D01*
X167448471Y-77732865D01*
X167446800Y-77740548D01*
X167446800Y-78385884D01*
X167192800Y-78385884D01*
X167192800Y-77745115D01*
X167188325Y-77729876D01*
X167186935Y-77728671D01*
X167179252Y-77727000D01*
X166533916Y-77727000D01*
X166518677Y-77731475D01*
X166517472Y-77732865D01*
X166515801Y-77740548D01*
X166515801Y-78168828D01*
X165459411Y-78168828D01*
X165413559Y-78137475D01*
X165385921Y-78072079D01*
X165385100Y-78057715D01*
X165385100Y-77454885D01*
X166515800Y-77454885D01*
X166520275Y-77470124D01*
X166521665Y-77471329D01*
X166529348Y-77473000D01*
X167174685Y-77473000D01*
X167189924Y-77468525D01*
X167191129Y-77467135D01*
X167192800Y-77459452D01*
X167192800Y-77454885D01*
X167446800Y-77454885D01*
X167451275Y-77470124D01*
X167452665Y-77471329D01*
X167460348Y-77473000D01*
X168105684Y-77473000D01*
X168120923Y-77468525D01*
X168122128Y-77467135D01*
X168123799Y-77459452D01*
X168123799Y-77031172D01*
X168122591Y-77018912D01*
X168111485Y-76963069D01*
X168102167Y-76940573D01*
X168059817Y-76877192D01*
X168042608Y-76859983D01*
X167979225Y-76817632D01*
X167956734Y-76808316D01*
X167900885Y-76797207D01*
X167888630Y-76796000D01*
X167464915Y-76796000D01*
X167449676Y-76800475D01*
X167448471Y-76801865D01*
X167446800Y-76809548D01*
X167446800Y-77454885D01*
X167192800Y-77454885D01*
X167192800Y-76814116D01*
X167188325Y-76798877D01*
X167186935Y-76797672D01*
X167179252Y-76796001D01*
X166750972Y-76796001D01*
X166738712Y-76797209D01*
X166682869Y-76808315D01*
X166660373Y-76817633D01*
X166596992Y-76859983D01*
X166579783Y-76877192D01*
X166537432Y-76940575D01*
X166528116Y-76963066D01*
X166517007Y-77018915D01*
X166515800Y-77031170D01*
X166515800Y-77454885D01*
X165385100Y-77454885D01*
X165385100Y-77405898D01*
X165385210Y-77400622D01*
X165387469Y-77346708D01*
X165387829Y-77338126D01*
X165385868Y-77329764D01*
X165385867Y-77329757D01*
X165377811Y-77295413D01*
X165375650Y-77283760D01*
X165369695Y-77240282D01*
X165366282Y-77232395D01*
X165366281Y-77232392D01*
X165363647Y-77226305D01*
X165356613Y-77205039D01*
X165355098Y-77198580D01*
X165353137Y-77190217D01*
X165331997Y-77151763D01*
X165326782Y-77141117D01*
X165312769Y-77108735D01*
X165312767Y-77108732D01*
X165309358Y-77100854D01*
X165303954Y-77094181D01*
X165302325Y-77091491D01*
X165284099Y-77026217D01*
X165284099Y-76844412D01*
X165283730Y-76841012D01*
X165278584Y-76793634D01*
X165278583Y-76793630D01*
X165277730Y-76785776D01*
X165241842Y-76690042D01*
X165232668Y-76665570D01*
X165232667Y-76665569D01*
X165229517Y-76657165D01*
X165224137Y-76649986D01*
X165224135Y-76649983D01*
X165159274Y-76563441D01*
X165134426Y-76496934D01*
X165134100Y-76487875D01*
X165134100Y-75122671D01*
X165154102Y-75054550D01*
X165171005Y-75033576D01*
X165456013Y-74748568D01*
X165459821Y-74744915D01*
X165499548Y-74708384D01*
X165499549Y-74708383D01*
X165505866Y-74702574D01*
X165528981Y-74665294D01*
X165535704Y-74655512D01*
X165557038Y-74627405D01*
X165562230Y-74620565D01*
X165566763Y-74609116D01*
X165568853Y-74606438D01*
X165569610Y-74605094D01*
X165569812Y-74605208D01*
X165610438Y-74553142D01*
X165683915Y-74529500D01*
X165761014Y-74529500D01*
X165859248Y-74513941D01*
X165977649Y-74453613D01*
X166071613Y-74359649D01*
X166131941Y-74241248D01*
X166135487Y-74218863D01*
X166146680Y-74148191D01*
X166177093Y-74084038D01*
X166237361Y-74046511D01*
X166308350Y-74047525D01*
X166360224Y-74078807D01*
X166478395Y-74196978D01*
X166512421Y-74259290D01*
X166515300Y-74286073D01*
X166515301Y-74849837D01*
X166515301Y-75375066D01*
X166530066Y-75449301D01*
X166586316Y-75533484D01*
X166670499Y-75589734D01*
X166744733Y-75604500D01*
X167319707Y-75604500D01*
X167894866Y-75604499D01*
X167930618Y-75597388D01*
X167956926Y-75592156D01*
X167956928Y-75592155D01*
X167969101Y-75589734D01*
X167979421Y-75582839D01*
X167979422Y-75582838D01*
X168042968Y-75540377D01*
X168053284Y-75533484D01*
X168109534Y-75449301D01*
X168124300Y-75375067D01*
X168124299Y-74224934D01*
X168116453Y-74185484D01*
X168114532Y-74175828D01*
X169588801Y-74175828D01*
X169590009Y-74188088D01*
X169601115Y-74243931D01*
X169610433Y-74266427D01*
X169652783Y-74329808D01*
X169669992Y-74347017D01*
X169733375Y-74389368D01*
X169755866Y-74398684D01*
X169811715Y-74409793D01*
X169823970Y-74411000D01*
X170847685Y-74411000D01*
X170862924Y-74406525D01*
X170864129Y-74405135D01*
X170865800Y-74397452D01*
X170865800Y-74392884D01*
X171119800Y-74392884D01*
X171124275Y-74408123D01*
X171125665Y-74409328D01*
X171133348Y-74410999D01*
X172161628Y-74410999D01*
X172173888Y-74409791D01*
X172229731Y-74398685D01*
X172252227Y-74389367D01*
X172315608Y-74347017D01*
X172332817Y-74329808D01*
X172375168Y-74266425D01*
X172384484Y-74243934D01*
X172395593Y-74188085D01*
X172396800Y-74175830D01*
X172396800Y-73052115D01*
X172392325Y-73036876D01*
X172390935Y-73035671D01*
X172383252Y-73034000D01*
X171137915Y-73034000D01*
X171122676Y-73038475D01*
X171121471Y-73039865D01*
X171119800Y-73047548D01*
X171119800Y-74392884D01*
X170865800Y-74392884D01*
X170865800Y-73052115D01*
X170861325Y-73036876D01*
X170859935Y-73035671D01*
X170852252Y-73034000D01*
X169606916Y-73034000D01*
X169591677Y-73038475D01*
X169590472Y-73039865D01*
X169588801Y-73047548D01*
X169588801Y-74175828D01*
X168114532Y-74175828D01*
X168111956Y-74162874D01*
X168111955Y-74162872D01*
X168109534Y-74150699D01*
X168101090Y-74138061D01*
X168060177Y-74076832D01*
X168053284Y-74066516D01*
X167969101Y-74010266D01*
X167894867Y-73995500D01*
X167884903Y-73995500D01*
X167882997Y-73994940D01*
X167882517Y-73994893D01*
X167882526Y-73994802D01*
X167816782Y-73975498D01*
X167774488Y-73930200D01*
X167769148Y-73920485D01*
X167762090Y-73912309D01*
X167737347Y-73887566D01*
X167728521Y-73877765D01*
X167708356Y-73852862D01*
X167708353Y-73852859D01*
X167702950Y-73846187D01*
X167687436Y-73835162D01*
X167671336Y-73821555D01*
X166611666Y-72761885D01*
X169588800Y-72761885D01*
X169593275Y-72777124D01*
X169594665Y-72778329D01*
X169602348Y-72780000D01*
X170847685Y-72780000D01*
X170862924Y-72775525D01*
X170864129Y-72774135D01*
X170865800Y-72766452D01*
X170865800Y-72761885D01*
X171119800Y-72761885D01*
X171124275Y-72777124D01*
X171125665Y-72778329D01*
X171133348Y-72780000D01*
X172378684Y-72780000D01*
X172393923Y-72775525D01*
X172395128Y-72774135D01*
X172396799Y-72766452D01*
X172396799Y-71638172D01*
X172395591Y-71625912D01*
X172384485Y-71570069D01*
X172375167Y-71547573D01*
X172332817Y-71484192D01*
X172315608Y-71466983D01*
X172252225Y-71424632D01*
X172229734Y-71415316D01*
X172173885Y-71404207D01*
X172161630Y-71403000D01*
X171137915Y-71403000D01*
X171122676Y-71407475D01*
X171121471Y-71408865D01*
X171119800Y-71416548D01*
X171119800Y-72761885D01*
X170865800Y-72761885D01*
X170865800Y-71421116D01*
X170861325Y-71405877D01*
X170859935Y-71404672D01*
X170852252Y-71403001D01*
X169823972Y-71403001D01*
X169811712Y-71404209D01*
X169755869Y-71415315D01*
X169733373Y-71424633D01*
X169669992Y-71466983D01*
X169652783Y-71484192D01*
X169610432Y-71547575D01*
X169601116Y-71570066D01*
X169590007Y-71625915D01*
X169588800Y-71638170D01*
X169588800Y-72761885D01*
X166611666Y-72761885D01*
X166493368Y-72643587D01*
X166489715Y-72639779D01*
X166453184Y-72600052D01*
X166453183Y-72600051D01*
X166447374Y-72593734D01*
X166421368Y-72577609D01*
X166410094Y-72570619D01*
X166400312Y-72563896D01*
X166373579Y-72543605D01*
X166365365Y-72537370D01*
X166355653Y-72533525D01*
X166351204Y-72531763D01*
X166331198Y-72521700D01*
X166325563Y-72518206D01*
X166325554Y-72518202D01*
X166318256Y-72513677D01*
X166276121Y-72501435D01*
X166264894Y-72497591D01*
X166257971Y-72494850D01*
X166227117Y-72482635D01*
X166171144Y-72438963D01*
X166147500Y-72365483D01*
X166147500Y-71906986D01*
X166131941Y-71808752D01*
X166071613Y-71690351D01*
X165977649Y-71596387D01*
X165859248Y-71536059D01*
X165761014Y-71520500D01*
X164374986Y-71520500D01*
X164276752Y-71536059D01*
X164158351Y-71596387D01*
X164064387Y-71690351D01*
X164004059Y-71808752D01*
X163988500Y-71906986D01*
X163988500Y-74143014D01*
X164004059Y-74241248D01*
X164064387Y-74359649D01*
X164091402Y-74386664D01*
X164125428Y-74448976D01*
X164120363Y-74519791D01*
X164102670Y-74551938D01*
X164097162Y-74559194D01*
X164097160Y-74559197D01*
X164091970Y-74566035D01*
X164088809Y-74574019D01*
X164086363Y-74580196D01*
X164076300Y-74600202D01*
X164072806Y-74605837D01*
X164072802Y-74605846D01*
X164068277Y-74613144D01*
X164065881Y-74621391D01*
X164056035Y-74655280D01*
X164052193Y-74666502D01*
X164036044Y-74707290D01*
X164035146Y-74715835D01*
X164034452Y-74722433D01*
X164030141Y-74744405D01*
X164025891Y-74759035D01*
X164025100Y-74769807D01*
X164025100Y-74804805D01*
X164024410Y-74817975D01*
X164020163Y-74858381D01*
X164023337Y-74877146D01*
X164025100Y-74898148D01*
X164025100Y-76487875D01*
X164005098Y-76555996D01*
X163999926Y-76563441D01*
X163935065Y-76649983D01*
X163935063Y-76649986D01*
X163929683Y-76657165D01*
X163926532Y-76665571D01*
X163922582Y-76676107D01*
X163879941Y-76732872D01*
X163813379Y-76757572D01*
X163744030Y-76742365D01*
X163693912Y-76692079D01*
X163686618Y-76676107D01*
X163682668Y-76665571D01*
X163679517Y-76657165D01*
X163674137Y-76649986D01*
X163674135Y-76649983D01*
X163602523Y-76554433D01*
X163597144Y-76547256D01*
X163584100Y-76537480D01*
X163494417Y-76470265D01*
X163494414Y-76470263D01*
X163487235Y-76464883D01*
X163478830Y-76461732D01*
X163366019Y-76419442D01*
X163366018Y-76419442D01*
X163358624Y-76416670D01*
X163350774Y-76415817D01*
X163350773Y-76415817D01*
X163303386Y-76410669D01*
X163303385Y-76410669D01*
X163299989Y-76410300D01*
X163029680Y-76410300D01*
X162759212Y-76410301D01*
X162755818Y-76410670D01*
X162755812Y-76410670D01*
X162708434Y-76415816D01*
X162708430Y-76415817D01*
X162700576Y-76416670D01*
X162571965Y-76464883D01*
X162564786Y-76470263D01*
X162564783Y-76470265D01*
X162475100Y-76537480D01*
X162462056Y-76547256D01*
X162456677Y-76554433D01*
X162385065Y-76649983D01*
X162385063Y-76649986D01*
X162379683Y-76657165D01*
X162376533Y-76665569D01*
X162376532Y-76665570D01*
X162347744Y-76742365D01*
X162331470Y-76785776D01*
X162325100Y-76844411D01*
X162325101Y-77435188D01*
X162325470Y-77438582D01*
X162325470Y-77438588D01*
X162329027Y-77471329D01*
X162331470Y-77493824D01*
X162379683Y-77622435D01*
X162385066Y-77629617D01*
X162385068Y-77629621D01*
X162421421Y-77678127D01*
X162446269Y-77744634D01*
X162431216Y-77814016D01*
X162409690Y-77842787D01*
X162324120Y-77928357D01*
X162305104Y-77943716D01*
X162304044Y-77944680D01*
X162295296Y-77950329D01*
X162288852Y-77958504D01*
X162288849Y-77958506D01*
X162274371Y-77976872D01*
X162270394Y-77981347D01*
X162270465Y-77981408D01*
X162267112Y-77985365D01*
X162263429Y-77989048D01*
X162260403Y-77993283D01*
X162260401Y-77993285D01*
X162252147Y-78004836D01*
X162248584Y-78009582D01*
X162216666Y-78050070D01*
X162213615Y-78058757D01*
X162208266Y-78066243D01*
X162205282Y-78076220D01*
X162200702Y-78085570D01*
X162197967Y-78084230D01*
X162168400Y-78129736D01*
X162103673Y-78158906D01*
X162086365Y-78160100D01*
X162011266Y-78160100D01*
X161916545Y-78175102D01*
X161802377Y-78233274D01*
X161778682Y-78256969D01*
X161716370Y-78290995D01*
X161645555Y-78285930D01*
X161600492Y-78256969D01*
X161429787Y-78086264D01*
X161395761Y-78023952D01*
X161400826Y-77953137D01*
X161407453Y-77938351D01*
X161408926Y-77935561D01*
X161417894Y-77918571D01*
X161438150Y-77850525D01*
X161447367Y-77788074D01*
X161448277Y-77781909D01*
X161448277Y-77781906D01*
X161448934Y-77777456D01*
X161449010Y-77757224D01*
X161460243Y-74746687D01*
X161472826Y-71374438D01*
X161467000Y-71318784D01*
X161455615Y-71265972D01*
X161448163Y-71238709D01*
X161398060Y-71150722D01*
X161351567Y-71097066D01*
X161318278Y-71064944D01*
X161228559Y-71018013D01*
X161222623Y-71016270D01*
X161164761Y-70999280D01*
X161164757Y-70999279D01*
X161160438Y-70998011D01*
X161155990Y-70997371D01*
X161155983Y-70997370D01*
X161091777Y-70988139D01*
X161091770Y-70988139D01*
X161087329Y-70987500D01*
X156894459Y-70987500D01*
X156887305Y-70987817D01*
X156872908Y-70988453D01*
X156872885Y-70988455D01*
X156871541Y-70988514D01*
X156870201Y-70988633D01*
X156870183Y-70988634D01*
X156862279Y-70989335D01*
X156849367Y-70990480D01*
X156756498Y-71016730D01*
X156692961Y-71048408D01*
X156632223Y-71090435D01*
X155115985Y-72497591D01*
X154964153Y-72638500D01*
X154909010Y-72689676D01*
X153551226Y-73949777D01*
X153361779Y-74125595D01*
X153179615Y-74294653D01*
X153179606Y-74294662D01*
X153178162Y-74296002D01*
X153155701Y-74319643D01*
X153135416Y-74343876D01*
X153132358Y-74349591D01*
X153132357Y-74349593D01*
X153099503Y-74411000D01*
X153085413Y-74437335D01*
X153065411Y-74505456D01*
X153064771Y-74509904D01*
X153064770Y-74509911D01*
X153055539Y-74574117D01*
X153054900Y-74578565D01*
X153054900Y-76485900D01*
X153034898Y-76554021D01*
X152981242Y-76600514D01*
X152928900Y-76611900D01*
X151944830Y-76611900D01*
X151933764Y-76611378D01*
X151926313Y-76609713D01*
X151918387Y-76609962D01*
X151918386Y-76609962D01*
X151858682Y-76611838D01*
X151854725Y-76611900D01*
X151826997Y-76611900D01*
X151823072Y-76612396D01*
X151823071Y-76612396D01*
X151811225Y-76613329D01*
X151781662Y-76614258D01*
X151775266Y-76614459D01*
X151775265Y-76614459D01*
X151767342Y-76614708D01*
X151748071Y-76620307D01*
X151728709Y-76624317D01*
X151726035Y-76624655D01*
X151716664Y-76625838D01*
X151716661Y-76625839D01*
X151708806Y-76626831D01*
X151701442Y-76629747D01*
X151701437Y-76629748D01*
X151667993Y-76642990D01*
X151656760Y-76646836D01*
X151622224Y-76656869D01*
X151622220Y-76656871D01*
X151614609Y-76659082D01*
X151607785Y-76663118D01*
X151607782Y-76663119D01*
X151597339Y-76669295D01*
X151579582Y-76677994D01*
X151560926Y-76685381D01*
X151554513Y-76690041D01*
X151554510Y-76690042D01*
X151525426Y-76711173D01*
X151515505Y-76717691D01*
X151496065Y-76729188D01*
X151477708Y-76740044D01*
X151463520Y-76754232D01*
X151448486Y-76767073D01*
X151432253Y-76778867D01*
X151406871Y-76809548D01*
X151404272Y-76812690D01*
X151396283Y-76821469D01*
X144466403Y-83751350D01*
X144458200Y-83758816D01*
X144451753Y-83762907D01*
X144446325Y-83768687D01*
X144446324Y-83768688D01*
X144405422Y-83812244D01*
X144402667Y-83815086D01*
X144383073Y-83834680D01*
X144380647Y-83837808D01*
X144380643Y-83837812D01*
X144380631Y-83837827D01*
X144372926Y-83846848D01*
X144342876Y-83878848D01*
X144339056Y-83885797D01*
X144333211Y-83896429D01*
X144322354Y-83912957D01*
X144314916Y-83922546D01*
X144314914Y-83922550D01*
X144310057Y-83928811D01*
X144306908Y-83936088D01*
X144292623Y-83969098D01*
X144287400Y-83979759D01*
X144270074Y-84011275D01*
X144266254Y-84018224D01*
X144264284Y-84025897D01*
X144261264Y-84037660D01*
X144254859Y-84056366D01*
X144246891Y-84074779D01*
X144245651Y-84082606D01*
X144245651Y-84082607D01*
X144240024Y-84118137D01*
X144237616Y-84129762D01*
X144229088Y-84162977D01*
X144226700Y-84172276D01*
X144226700Y-84192339D01*
X144225149Y-84212050D01*
X144222010Y-84231869D01*
X144222756Y-84239761D01*
X144226141Y-84275573D01*
X144226700Y-84287430D01*
X144226700Y-96187879D01*
X144206698Y-96256000D01*
X144153042Y-96302493D01*
X144082768Y-96312597D01*
X144023998Y-96287842D01*
X143978646Y-96253042D01*
X143843757Y-96197169D01*
X143773192Y-96187879D01*
X143718648Y-96180698D01*
X143653720Y-96151976D01*
X143645999Y-96144871D01*
X135114605Y-87613476D01*
X135080579Y-87551164D01*
X135077700Y-87524381D01*
X135077700Y-78251823D01*
X135097702Y-78183702D01*
X135145325Y-78140161D01*
X135270939Y-78074492D01*
X135270943Y-78074489D01*
X135276399Y-78071637D01*
X135437565Y-77942057D01*
X135570492Y-77783640D01*
X135670118Y-77602422D01*
X135732647Y-77405304D01*
X135733346Y-77399080D01*
X135744973Y-77295413D01*
X135750700Y-77244360D01*
X135750700Y-77237034D01*
X136181700Y-77237034D01*
X136196778Y-77390811D01*
X136256549Y-77588783D01*
X136269973Y-77614029D01*
X136346111Y-77757224D01*
X136353635Y-77771375D01*
X136357526Y-77776145D01*
X136357528Y-77776149D01*
X136480442Y-77926857D01*
X136480445Y-77926860D01*
X136484337Y-77931632D01*
X136489084Y-77935559D01*
X136489086Y-77935561D01*
X136638929Y-78059522D01*
X136638934Y-78059525D01*
X136643678Y-78063450D01*
X136649097Y-78066380D01*
X136649100Y-78066382D01*
X136820168Y-78158878D01*
X136820173Y-78158880D01*
X136825588Y-78161808D01*
X137023137Y-78222960D01*
X137029262Y-78223604D01*
X137029263Y-78223604D01*
X137222674Y-78243932D01*
X137222676Y-78243932D01*
X137228803Y-78244576D01*
X137385104Y-78230352D01*
X137428609Y-78226393D01*
X137428610Y-78226393D01*
X137434750Y-78225834D01*
X137633134Y-78167446D01*
X137643530Y-78162011D01*
X137810939Y-78074492D01*
X137810943Y-78074489D01*
X137816399Y-78071637D01*
X137977565Y-77942057D01*
X138110492Y-77783640D01*
X138210118Y-77602422D01*
X138272647Y-77405304D01*
X138273346Y-77399080D01*
X138284973Y-77295413D01*
X138290700Y-77244360D01*
X138290700Y-77237034D01*
X138721700Y-77237034D01*
X138736778Y-77390811D01*
X138796549Y-77588783D01*
X138809973Y-77614029D01*
X138886111Y-77757224D01*
X138893635Y-77771375D01*
X138897526Y-77776145D01*
X138897528Y-77776149D01*
X139020442Y-77926857D01*
X139020445Y-77926860D01*
X139024337Y-77931632D01*
X139029084Y-77935559D01*
X139029086Y-77935561D01*
X139178929Y-78059522D01*
X139178934Y-78059525D01*
X139183678Y-78063450D01*
X139189097Y-78066380D01*
X139189100Y-78066382D01*
X139360168Y-78158878D01*
X139360173Y-78158880D01*
X139365588Y-78161808D01*
X139563137Y-78222960D01*
X139569262Y-78223604D01*
X139569263Y-78223604D01*
X139762674Y-78243932D01*
X139762676Y-78243932D01*
X139768803Y-78244576D01*
X139925104Y-78230352D01*
X139968609Y-78226393D01*
X139968610Y-78226393D01*
X139974750Y-78225834D01*
X140173134Y-78167446D01*
X140183530Y-78162011D01*
X140350939Y-78074492D01*
X140350943Y-78074489D01*
X140356399Y-78071637D01*
X140517565Y-77942057D01*
X140650492Y-77783640D01*
X140750118Y-77602422D01*
X140812647Y-77405304D01*
X140813346Y-77399080D01*
X140824973Y-77295413D01*
X140830700Y-77244360D01*
X140830700Y-77233932D01*
X141262200Y-77233932D01*
X141262501Y-77240080D01*
X141276669Y-77384581D01*
X141279052Y-77396616D01*
X141335232Y-77582692D01*
X141339906Y-77594033D01*
X141431157Y-77765651D01*
X141437951Y-77775876D01*
X141560805Y-77926509D01*
X141569434Y-77935199D01*
X141719214Y-78059109D01*
X141729380Y-78065965D01*
X141900362Y-78158415D01*
X141911669Y-78163167D01*
X142097351Y-78220646D01*
X142109364Y-78223112D01*
X142171185Y-78229610D01*
X142185835Y-78226930D01*
X142189200Y-78214608D01*
X142189200Y-78213728D01*
X142443200Y-78213728D01*
X142447476Y-78228290D01*
X142459579Y-78230352D01*
X142508517Y-78225899D01*
X142520566Y-78223601D01*
X142707037Y-78168719D01*
X142718405Y-78164126D01*
X142890664Y-78074071D01*
X142900925Y-78067357D01*
X143052413Y-77945557D01*
X143061173Y-77936979D01*
X143186120Y-77788074D01*
X143193044Y-77777963D01*
X143286690Y-77607619D01*
X143291518Y-77596355D01*
X143350294Y-77411069D01*
X143352842Y-77399080D01*
X143369807Y-77247836D01*
X143370200Y-77240812D01*
X143370200Y-77237034D01*
X143801700Y-77237034D01*
X143816778Y-77390811D01*
X143876549Y-77588783D01*
X143889973Y-77614029D01*
X143966111Y-77757224D01*
X143973635Y-77771375D01*
X143977526Y-77776145D01*
X143977528Y-77776149D01*
X144100442Y-77926857D01*
X144100445Y-77926860D01*
X144104337Y-77931632D01*
X144109084Y-77935559D01*
X144109086Y-77935561D01*
X144258929Y-78059522D01*
X144258934Y-78059525D01*
X144263678Y-78063450D01*
X144269097Y-78066380D01*
X144269100Y-78066382D01*
X144440168Y-78158878D01*
X144440173Y-78158880D01*
X144445588Y-78161808D01*
X144643137Y-78222960D01*
X144649262Y-78223604D01*
X144649263Y-78223604D01*
X144842674Y-78243932D01*
X144842676Y-78243932D01*
X144848803Y-78244576D01*
X145005104Y-78230352D01*
X145048609Y-78226393D01*
X145048610Y-78226393D01*
X145054750Y-78225834D01*
X145253134Y-78167446D01*
X145263530Y-78162011D01*
X145430939Y-78074492D01*
X145430943Y-78074489D01*
X145436399Y-78071637D01*
X145597565Y-77942057D01*
X145730492Y-77783640D01*
X145830118Y-77602422D01*
X145892647Y-77405304D01*
X145893346Y-77399080D01*
X145904973Y-77295413D01*
X145910700Y-77244360D01*
X145910700Y-76732966D01*
X145895622Y-76579189D01*
X145835851Y-76381217D01*
X145738765Y-76198625D01*
X145734874Y-76193855D01*
X145734872Y-76193851D01*
X145611958Y-76043143D01*
X145611955Y-76043140D01*
X145608063Y-76038368D01*
X145601166Y-76032662D01*
X145453471Y-75910478D01*
X145453466Y-75910475D01*
X145448722Y-75906550D01*
X145443301Y-75903619D01*
X145443300Y-75903618D01*
X145272232Y-75811122D01*
X145272227Y-75811120D01*
X145266812Y-75808192D01*
X145069263Y-75747040D01*
X145063138Y-75746396D01*
X145063137Y-75746396D01*
X144869726Y-75726068D01*
X144869724Y-75726068D01*
X144863597Y-75725424D01*
X144737429Y-75736906D01*
X144663791Y-75743607D01*
X144663790Y-75743607D01*
X144657650Y-75744166D01*
X144459266Y-75802554D01*
X144453801Y-75805411D01*
X144281461Y-75895508D01*
X144281457Y-75895511D01*
X144276001Y-75898363D01*
X144114835Y-76027943D01*
X143981908Y-76186360D01*
X143882282Y-76367578D01*
X143819753Y-76564696D01*
X143819067Y-76570813D01*
X143819066Y-76570817D01*
X143814319Y-76613143D01*
X143801700Y-76725640D01*
X143801700Y-77237034D01*
X143370200Y-77237034D01*
X143370200Y-77130115D01*
X143365725Y-77114876D01*
X143364335Y-77113671D01*
X143356652Y-77112000D01*
X142461315Y-77112000D01*
X142446076Y-77116475D01*
X142444871Y-77117865D01*
X142443200Y-77125548D01*
X142443200Y-78213728D01*
X142189200Y-78213728D01*
X142189200Y-77130115D01*
X142184725Y-77114876D01*
X142183335Y-77113671D01*
X142175652Y-77112000D01*
X141280315Y-77112000D01*
X141265076Y-77116475D01*
X141263871Y-77117865D01*
X141262200Y-77125548D01*
X141262200Y-77233932D01*
X140830700Y-77233932D01*
X140830700Y-76839885D01*
X141262200Y-76839885D01*
X141266675Y-76855124D01*
X141268065Y-76856329D01*
X141275748Y-76858000D01*
X142171085Y-76858000D01*
X142186324Y-76853525D01*
X142187529Y-76852135D01*
X142189200Y-76844452D01*
X142189200Y-76839885D01*
X142443200Y-76839885D01*
X142447675Y-76855124D01*
X142449065Y-76856329D01*
X142456748Y-76858000D01*
X143352085Y-76858000D01*
X143367324Y-76853525D01*
X143368529Y-76852135D01*
X143370200Y-76844452D01*
X143370200Y-76736068D01*
X143369899Y-76729920D01*
X143355731Y-76585419D01*
X143353348Y-76573384D01*
X143297168Y-76387308D01*
X143292494Y-76375967D01*
X143201243Y-76204349D01*
X143194449Y-76194124D01*
X143071595Y-76043491D01*
X143062966Y-76034801D01*
X142913186Y-75910891D01*
X142903020Y-75904035D01*
X142732038Y-75811585D01*
X142720731Y-75806833D01*
X142535049Y-75749354D01*
X142523036Y-75746888D01*
X142461215Y-75740390D01*
X142446565Y-75743070D01*
X142443200Y-75755392D01*
X142443200Y-76839885D01*
X142189200Y-76839885D01*
X142189200Y-75756272D01*
X142184924Y-75741710D01*
X142172821Y-75739648D01*
X142123883Y-75744101D01*
X142111834Y-75746399D01*
X141925363Y-75801281D01*
X141913995Y-75805874D01*
X141741736Y-75895929D01*
X141731475Y-75902643D01*
X141579987Y-76024443D01*
X141571227Y-76033021D01*
X141446280Y-76181926D01*
X141439356Y-76192037D01*
X141345710Y-76362381D01*
X141340882Y-76373645D01*
X141282106Y-76558931D01*
X141279558Y-76570920D01*
X141262593Y-76722164D01*
X141262200Y-76729188D01*
X141262200Y-76839885D01*
X140830700Y-76839885D01*
X140830700Y-76732966D01*
X140815622Y-76579189D01*
X140755851Y-76381217D01*
X140658765Y-76198625D01*
X140654874Y-76193855D01*
X140654872Y-76193851D01*
X140531958Y-76043143D01*
X140531955Y-76043140D01*
X140528063Y-76038368D01*
X140521166Y-76032662D01*
X140373471Y-75910478D01*
X140373466Y-75910475D01*
X140368722Y-75906550D01*
X140363301Y-75903619D01*
X140363300Y-75903618D01*
X140192232Y-75811122D01*
X140192227Y-75811120D01*
X140186812Y-75808192D01*
X139989263Y-75747040D01*
X139983138Y-75746396D01*
X139983137Y-75746396D01*
X139789726Y-75726068D01*
X139789724Y-75726068D01*
X139783597Y-75725424D01*
X139657429Y-75736906D01*
X139583791Y-75743607D01*
X139583790Y-75743607D01*
X139577650Y-75744166D01*
X139379266Y-75802554D01*
X139373801Y-75805411D01*
X139201461Y-75895508D01*
X139201457Y-75895511D01*
X139196001Y-75898363D01*
X139034835Y-76027943D01*
X138901908Y-76186360D01*
X138802282Y-76367578D01*
X138739753Y-76564696D01*
X138739067Y-76570813D01*
X138739066Y-76570817D01*
X138734319Y-76613143D01*
X138721700Y-76725640D01*
X138721700Y-77237034D01*
X138290700Y-77237034D01*
X138290700Y-76732966D01*
X138275622Y-76579189D01*
X138215851Y-76381217D01*
X138118765Y-76198625D01*
X138114874Y-76193855D01*
X138114872Y-76193851D01*
X137991958Y-76043143D01*
X137991955Y-76043140D01*
X137988063Y-76038368D01*
X137981166Y-76032662D01*
X137833471Y-75910478D01*
X137833466Y-75910475D01*
X137828722Y-75906550D01*
X137823301Y-75903619D01*
X137823300Y-75903618D01*
X137652232Y-75811122D01*
X137652227Y-75811120D01*
X137646812Y-75808192D01*
X137449263Y-75747040D01*
X137443138Y-75746396D01*
X137443137Y-75746396D01*
X137249726Y-75726068D01*
X137249724Y-75726068D01*
X137243597Y-75725424D01*
X137117429Y-75736906D01*
X137043791Y-75743607D01*
X137043790Y-75743607D01*
X137037650Y-75744166D01*
X136839266Y-75802554D01*
X136833801Y-75805411D01*
X136661461Y-75895508D01*
X136661457Y-75895511D01*
X136656001Y-75898363D01*
X136494835Y-76027943D01*
X136361908Y-76186360D01*
X136262282Y-76367578D01*
X136199753Y-76564696D01*
X136199067Y-76570813D01*
X136199066Y-76570817D01*
X136194319Y-76613143D01*
X136181700Y-76725640D01*
X136181700Y-77237034D01*
X135750700Y-77237034D01*
X135750700Y-76732966D01*
X135735622Y-76579189D01*
X135675851Y-76381217D01*
X135578765Y-76198625D01*
X135574874Y-76193855D01*
X135574872Y-76193851D01*
X135451958Y-76043143D01*
X135451955Y-76043140D01*
X135448063Y-76038368D01*
X135441166Y-76032662D01*
X135293471Y-75910478D01*
X135293466Y-75910475D01*
X135288722Y-75906550D01*
X135283301Y-75903619D01*
X135283300Y-75903618D01*
X135112232Y-75811122D01*
X135112227Y-75811120D01*
X135106812Y-75808192D01*
X134909263Y-75747040D01*
X134903138Y-75746396D01*
X134903137Y-75746396D01*
X134709726Y-75726068D01*
X134709724Y-75726068D01*
X134703597Y-75725424D01*
X134577429Y-75736906D01*
X134503791Y-75743607D01*
X134503790Y-75743607D01*
X134497650Y-75744166D01*
X134299266Y-75802554D01*
X134293801Y-75805411D01*
X134121461Y-75895508D01*
X134121457Y-75895511D01*
X134116001Y-75898363D01*
X133954835Y-76027943D01*
X133821908Y-76186360D01*
X133722282Y-76367578D01*
X133659753Y-76564696D01*
X133659067Y-76570813D01*
X133659066Y-76570817D01*
X133654319Y-76613143D01*
X133641700Y-76725640D01*
X133641700Y-77237034D01*
X133656778Y-77390811D01*
X133716549Y-77588783D01*
X133729973Y-77614029D01*
X133794268Y-77734951D01*
X133808588Y-77804488D01*
X133783040Y-77870729D01*
X133725736Y-77912641D01*
X133654868Y-77916919D01*
X133593922Y-77883199D01*
X133227084Y-77516361D01*
X133193058Y-77454049D01*
X133192943Y-77405337D01*
X133192647Y-77405304D01*
X133192937Y-77402720D01*
X133192937Y-77402719D01*
X133194972Y-77384581D01*
X133204973Y-77295413D01*
X133210700Y-77244360D01*
X133210700Y-76732966D01*
X133195622Y-76579189D01*
X133135851Y-76381217D01*
X133038765Y-76198625D01*
X133034874Y-76193855D01*
X133034872Y-76193851D01*
X132911958Y-76043143D01*
X132911955Y-76043140D01*
X132908063Y-76038368D01*
X132901166Y-76032662D01*
X132753471Y-75910478D01*
X132753466Y-75910475D01*
X132748722Y-75906550D01*
X132743301Y-75903619D01*
X132743300Y-75903618D01*
X132572232Y-75811122D01*
X132572227Y-75811120D01*
X132566812Y-75808192D01*
X132369263Y-75747040D01*
X132363138Y-75746396D01*
X132363137Y-75746396D01*
X132169726Y-75726068D01*
X132169724Y-75726068D01*
X132163597Y-75725424D01*
X132037429Y-75736906D01*
X131963791Y-75743607D01*
X131963790Y-75743607D01*
X131957650Y-75744166D01*
X131759266Y-75802554D01*
X131753801Y-75805411D01*
X131581461Y-75895508D01*
X131581457Y-75895511D01*
X131576001Y-75898363D01*
X131414835Y-76027943D01*
X131281908Y-76186360D01*
X131182282Y-76367578D01*
X131119753Y-76564696D01*
X131119067Y-76570813D01*
X131119066Y-76570817D01*
X131114319Y-76613143D01*
X131101700Y-76725640D01*
X131101700Y-77237034D01*
X131116778Y-77390811D01*
X131176549Y-77588783D01*
X131189973Y-77614029D01*
X131266111Y-77757224D01*
X131273635Y-77771375D01*
X131277526Y-77776145D01*
X131277528Y-77776149D01*
X131400442Y-77926857D01*
X131400445Y-77926860D01*
X131404337Y-77931632D01*
X131409084Y-77935559D01*
X131409086Y-77935561D01*
X131558929Y-78059522D01*
X131558934Y-78059525D01*
X131563678Y-78063450D01*
X131569097Y-78066380D01*
X131569100Y-78066382D01*
X131740168Y-78158878D01*
X131740173Y-78158880D01*
X131745588Y-78161808D01*
X131943137Y-78222960D01*
X131949262Y-78223604D01*
X131949263Y-78223604D01*
X132142674Y-78243932D01*
X132142676Y-78243932D01*
X132148803Y-78244576D01*
X132305104Y-78230352D01*
X132348609Y-78226393D01*
X132348610Y-78226393D01*
X132354750Y-78225834D01*
X132479853Y-78189014D01*
X132547223Y-78169186D01*
X132547226Y-78169185D01*
X132553134Y-78167446D01*
X132558590Y-78164593D01*
X132558594Y-78164592D01*
X132632651Y-78125876D01*
X132702286Y-78112042D01*
X132768347Y-78138052D01*
X132780121Y-78148443D01*
X133541195Y-78909517D01*
X133575221Y-78971829D01*
X133578100Y-78998612D01*
X133578100Y-87829865D01*
X133575514Y-87854164D01*
X133575446Y-87855602D01*
X133573255Y-87865780D01*
X133574479Y-87876120D01*
X133577227Y-87899342D01*
X133577579Y-87905320D01*
X133577672Y-87905312D01*
X133578100Y-87910490D01*
X133578100Y-87915692D01*
X133578954Y-87920822D01*
X133581286Y-87934832D01*
X133582122Y-87940704D01*
X133588182Y-87991907D01*
X133592167Y-88000206D01*
X133593678Y-88009283D01*
X133618158Y-88054651D01*
X133620839Y-88059914D01*
X133639727Y-88099250D01*
X133639730Y-88099254D01*
X133643160Y-88106398D01*
X133646770Y-88110692D01*
X133648702Y-88112624D01*
X133650489Y-88114573D01*
X133650518Y-88114626D01*
X133650388Y-88114745D01*
X133650889Y-88115313D01*
X133653988Y-88121057D01*
X133661633Y-88128124D01*
X133693809Y-88157867D01*
X133697375Y-88161297D01*
X143069874Y-97533797D01*
X143103900Y-97596109D01*
X143105701Y-97606445D01*
X143122172Y-97731554D01*
X143178045Y-97866442D01*
X143266926Y-97982274D01*
X143273476Y-97987300D01*
X143273479Y-97987303D01*
X143376203Y-98066126D01*
X143382757Y-98071155D01*
X143517646Y-98127028D01*
X143662400Y-98146085D01*
X143670588Y-98145007D01*
X143798966Y-98128106D01*
X143807154Y-98127028D01*
X143942043Y-98071155D01*
X144023995Y-98008270D01*
X144090216Y-97982669D01*
X144159765Y-97996934D01*
X144210561Y-98046535D01*
X144226700Y-98108232D01*
X144226700Y-98737632D01*
X144206698Y-98805753D01*
X144179652Y-98835829D01*
X144114835Y-98887943D01*
X143981908Y-99046360D01*
X143882282Y-99227578D01*
X143819753Y-99424696D01*
X143819067Y-99430813D01*
X143819066Y-99430817D01*
X143813430Y-99481067D01*
X143801700Y-99585640D01*
X143801700Y-100097034D01*
X143816778Y-100250811D01*
X143876549Y-100448783D01*
X143973635Y-100631375D01*
X143977526Y-100636145D01*
X143977528Y-100636149D01*
X144100442Y-100786857D01*
X144100445Y-100786860D01*
X144104337Y-100791632D01*
X144109084Y-100795559D01*
X144109086Y-100795561D01*
X144258928Y-100919521D01*
X144258931Y-100919523D01*
X144263678Y-100923450D01*
X144269099Y-100926381D01*
X144335629Y-100962354D01*
X144386038Y-101012349D01*
X144401700Y-101073190D01*
X144401700Y-101852042D01*
X144381698Y-101920163D01*
X144328042Y-101966656D01*
X144319934Y-101970023D01*
X144297365Y-101978483D01*
X144290186Y-101983863D01*
X144290183Y-101983865D01*
X144194637Y-102055474D01*
X144187456Y-102060856D01*
X144182077Y-102068033D01*
X144123254Y-102146520D01*
X144105083Y-102170765D01*
X144101934Y-102179165D01*
X144097620Y-102187045D01*
X144096205Y-102186271D01*
X144059684Y-102234892D01*
X143993123Y-102259594D01*
X143984340Y-102259900D01*
X143915634Y-102259900D01*
X143847513Y-102239898D01*
X143801020Y-102186242D01*
X143796751Y-102175649D01*
X143795537Y-102172191D01*
X143788209Y-102151324D01*
X143782617Y-102143754D01*
X143782616Y-102143751D01*
X143712602Y-102048961D01*
X143707010Y-102041390D01*
X143597076Y-101960191D01*
X143468127Y-101914907D01*
X143460485Y-101914185D01*
X143460482Y-101914184D01*
X143445579Y-101912776D01*
X143436315Y-101911900D01*
X143182172Y-101911900D01*
X142927686Y-101911901D01*
X142924738Y-101912180D01*
X142924729Y-101912180D01*
X142903522Y-101914184D01*
X142903520Y-101914184D01*
X142895873Y-101914907D01*
X142865447Y-101925592D01*
X142794548Y-101929290D01*
X142732903Y-101894070D01*
X142700086Y-101831113D01*
X142697700Y-101806709D01*
X142697700Y-101111823D01*
X142717702Y-101043702D01*
X142765325Y-101000161D01*
X142769310Y-100998078D01*
X142783798Y-100990504D01*
X142890939Y-100934492D01*
X142890943Y-100934489D01*
X142896399Y-100931637D01*
X143057565Y-100802057D01*
X143190492Y-100643640D01*
X143290118Y-100462422D01*
X143352647Y-100265304D01*
X143370700Y-100104360D01*
X143370700Y-99592966D01*
X143355622Y-99439189D01*
X143295851Y-99241217D01*
X143198765Y-99058625D01*
X143194874Y-99053855D01*
X143194872Y-99053851D01*
X143071958Y-98903143D01*
X143071955Y-98903140D01*
X143068063Y-98898368D01*
X143061166Y-98892662D01*
X142913471Y-98770478D01*
X142913466Y-98770475D01*
X142908722Y-98766550D01*
X142903303Y-98763620D01*
X142903300Y-98763618D01*
X142732232Y-98671122D01*
X142732227Y-98671120D01*
X142726812Y-98668192D01*
X142529263Y-98607040D01*
X142523138Y-98606396D01*
X142523137Y-98606396D01*
X142329726Y-98586068D01*
X142329724Y-98586068D01*
X142323597Y-98585424D01*
X142197429Y-98596906D01*
X142123791Y-98603607D01*
X142123790Y-98603607D01*
X142117650Y-98604166D01*
X141919266Y-98662554D01*
X141913801Y-98665411D01*
X141741461Y-98755508D01*
X141741457Y-98755511D01*
X141736001Y-98758363D01*
X141574835Y-98887943D01*
X141441908Y-99046360D01*
X141342282Y-99227578D01*
X141279753Y-99424696D01*
X141279067Y-99430813D01*
X141279066Y-99430817D01*
X141273430Y-99481067D01*
X141261700Y-99585640D01*
X141261700Y-100097034D01*
X141276778Y-100250811D01*
X141336549Y-100448783D01*
X141433635Y-100631375D01*
X141437526Y-100636145D01*
X141437528Y-100636149D01*
X141560442Y-100786857D01*
X141560445Y-100786860D01*
X141564337Y-100791632D01*
X141569084Y-100795559D01*
X141569086Y-100795561D01*
X141718929Y-100919522D01*
X141718934Y-100919525D01*
X141723678Y-100923450D01*
X141868630Y-101001825D01*
X141919037Y-101051819D01*
X141934700Y-101112660D01*
X141934700Y-101787454D01*
X141914698Y-101855575D01*
X141861042Y-101902068D01*
X141796845Y-101912895D01*
X141789270Y-101912179D01*
X141789263Y-101912179D01*
X141786315Y-101911900D01*
X141532172Y-101911900D01*
X141277686Y-101911901D01*
X141274738Y-101912180D01*
X141274729Y-101912180D01*
X141253522Y-101914184D01*
X141253520Y-101914184D01*
X141245873Y-101914907D01*
X141116924Y-101960191D01*
X141006990Y-102041390D01*
X141001398Y-102048961D01*
X140931384Y-102143751D01*
X140931383Y-102143754D01*
X140925791Y-102151324D01*
X140918463Y-102172191D01*
X140917249Y-102175649D01*
X140875805Y-102233294D01*
X140809776Y-102259382D01*
X140798366Y-102259900D01*
X133611012Y-102259900D01*
X133542891Y-102239898D01*
X133521921Y-102222999D01*
X132574603Y-101275680D01*
X132540579Y-101213370D01*
X132537700Y-101186587D01*
X132537700Y-101111823D01*
X132557702Y-101043702D01*
X132605325Y-101000161D01*
X132609310Y-100998078D01*
X132623798Y-100990504D01*
X132730939Y-100934492D01*
X132730943Y-100934489D01*
X132736399Y-100931637D01*
X132897565Y-100802057D01*
X133030492Y-100643640D01*
X133130118Y-100462422D01*
X133192647Y-100265304D01*
X133210700Y-100104360D01*
X133210700Y-100097034D01*
X133641700Y-100097034D01*
X133656778Y-100250811D01*
X133716549Y-100448783D01*
X133813635Y-100631375D01*
X133817526Y-100636145D01*
X133817528Y-100636149D01*
X133940442Y-100786857D01*
X133940445Y-100786860D01*
X133944337Y-100791632D01*
X133949084Y-100795559D01*
X133949086Y-100795561D01*
X134098929Y-100919522D01*
X134098934Y-100919525D01*
X134103678Y-100923450D01*
X134109097Y-100926380D01*
X134109100Y-100926382D01*
X134280168Y-101018878D01*
X134280173Y-101018880D01*
X134285588Y-101021808D01*
X134483137Y-101082960D01*
X134489262Y-101083604D01*
X134489263Y-101083604D01*
X134682674Y-101103932D01*
X134682676Y-101103932D01*
X134688803Y-101104576D01*
X134814971Y-101093094D01*
X134888609Y-101086393D01*
X134888610Y-101086393D01*
X134894750Y-101085834D01*
X135093134Y-101027446D01*
X135100433Y-101023630D01*
X135270939Y-100934492D01*
X135270943Y-100934489D01*
X135276399Y-100931637D01*
X135437565Y-100802057D01*
X135570492Y-100643640D01*
X135670118Y-100462422D01*
X135732647Y-100265304D01*
X135750700Y-100104360D01*
X135750700Y-100097034D01*
X136181700Y-100097034D01*
X136196778Y-100250811D01*
X136256549Y-100448783D01*
X136353635Y-100631375D01*
X136357526Y-100636145D01*
X136357528Y-100636149D01*
X136480442Y-100786857D01*
X136480445Y-100786860D01*
X136484337Y-100791632D01*
X136489084Y-100795559D01*
X136489086Y-100795561D01*
X136638929Y-100919522D01*
X136638934Y-100919525D01*
X136643678Y-100923450D01*
X136649097Y-100926380D01*
X136649100Y-100926382D01*
X136820168Y-101018878D01*
X136820173Y-101018880D01*
X136825588Y-101021808D01*
X137023137Y-101082960D01*
X137029262Y-101083604D01*
X137029263Y-101083604D01*
X137222674Y-101103932D01*
X137222676Y-101103932D01*
X137228803Y-101104576D01*
X137354971Y-101093094D01*
X137428609Y-101086393D01*
X137428610Y-101086393D01*
X137434750Y-101085834D01*
X137633134Y-101027446D01*
X137640433Y-101023630D01*
X137810939Y-100934492D01*
X137810943Y-100934489D01*
X137816399Y-100931637D01*
X137977565Y-100802057D01*
X138110492Y-100643640D01*
X138210118Y-100462422D01*
X138272647Y-100265304D01*
X138290700Y-100104360D01*
X138290700Y-100097034D01*
X138721700Y-100097034D01*
X138736778Y-100250811D01*
X138796549Y-100448783D01*
X138893635Y-100631375D01*
X138897526Y-100636145D01*
X138897528Y-100636149D01*
X139020442Y-100786857D01*
X139020445Y-100786860D01*
X139024337Y-100791632D01*
X139029084Y-100795559D01*
X139029086Y-100795561D01*
X139178929Y-100919522D01*
X139178934Y-100919525D01*
X139183678Y-100923450D01*
X139189097Y-100926380D01*
X139189100Y-100926382D01*
X139360168Y-101018878D01*
X139360173Y-101018880D01*
X139365588Y-101021808D01*
X139563137Y-101082960D01*
X139569262Y-101083604D01*
X139569263Y-101083604D01*
X139762674Y-101103932D01*
X139762676Y-101103932D01*
X139768803Y-101104576D01*
X139894971Y-101093094D01*
X139968609Y-101086393D01*
X139968610Y-101086393D01*
X139974750Y-101085834D01*
X140173134Y-101027446D01*
X140180433Y-101023630D01*
X140350939Y-100934492D01*
X140350943Y-100934489D01*
X140356399Y-100931637D01*
X140517565Y-100802057D01*
X140650492Y-100643640D01*
X140750118Y-100462422D01*
X140812647Y-100265304D01*
X140830700Y-100104360D01*
X140830700Y-99592966D01*
X140815622Y-99439189D01*
X140755851Y-99241217D01*
X140658765Y-99058625D01*
X140654874Y-99053855D01*
X140654872Y-99053851D01*
X140531958Y-98903143D01*
X140531955Y-98903140D01*
X140528063Y-98898368D01*
X140521166Y-98892662D01*
X140373471Y-98770478D01*
X140373466Y-98770475D01*
X140368722Y-98766550D01*
X140363303Y-98763620D01*
X140363300Y-98763618D01*
X140192232Y-98671122D01*
X140192227Y-98671120D01*
X140186812Y-98668192D01*
X139989263Y-98607040D01*
X139983138Y-98606396D01*
X139983137Y-98606396D01*
X139789726Y-98586068D01*
X139789724Y-98586068D01*
X139783597Y-98585424D01*
X139657429Y-98596906D01*
X139583791Y-98603607D01*
X139583790Y-98603607D01*
X139577650Y-98604166D01*
X139379266Y-98662554D01*
X139373801Y-98665411D01*
X139201461Y-98755508D01*
X139201457Y-98755511D01*
X139196001Y-98758363D01*
X139034835Y-98887943D01*
X138901908Y-99046360D01*
X138802282Y-99227578D01*
X138739753Y-99424696D01*
X138739067Y-99430813D01*
X138739066Y-99430817D01*
X138733430Y-99481067D01*
X138721700Y-99585640D01*
X138721700Y-100097034D01*
X138290700Y-100097034D01*
X138290700Y-99592966D01*
X138275622Y-99439189D01*
X138215851Y-99241217D01*
X138118765Y-99058625D01*
X138114874Y-99053855D01*
X138114872Y-99053851D01*
X137991958Y-98903143D01*
X137991955Y-98903140D01*
X137988063Y-98898368D01*
X137981166Y-98892662D01*
X137833471Y-98770478D01*
X137833466Y-98770475D01*
X137828722Y-98766550D01*
X137823303Y-98763620D01*
X137823300Y-98763618D01*
X137652232Y-98671122D01*
X137652227Y-98671120D01*
X137646812Y-98668192D01*
X137449263Y-98607040D01*
X137443138Y-98606396D01*
X137443137Y-98606396D01*
X137249726Y-98586068D01*
X137249724Y-98586068D01*
X137243597Y-98585424D01*
X137117429Y-98596906D01*
X137043791Y-98603607D01*
X137043790Y-98603607D01*
X137037650Y-98604166D01*
X136839266Y-98662554D01*
X136833801Y-98665411D01*
X136661461Y-98755508D01*
X136661457Y-98755511D01*
X136656001Y-98758363D01*
X136494835Y-98887943D01*
X136361908Y-99046360D01*
X136262282Y-99227578D01*
X136199753Y-99424696D01*
X136199067Y-99430813D01*
X136199066Y-99430817D01*
X136193430Y-99481067D01*
X136181700Y-99585640D01*
X136181700Y-100097034D01*
X135750700Y-100097034D01*
X135750700Y-99592966D01*
X135735622Y-99439189D01*
X135675851Y-99241217D01*
X135578765Y-99058625D01*
X135574874Y-99053855D01*
X135574872Y-99053851D01*
X135451958Y-98903143D01*
X135451955Y-98903140D01*
X135448063Y-98898368D01*
X135441166Y-98892662D01*
X135293471Y-98770478D01*
X135293466Y-98770475D01*
X135288722Y-98766550D01*
X135283303Y-98763620D01*
X135283300Y-98763618D01*
X135112232Y-98671122D01*
X135112227Y-98671120D01*
X135106812Y-98668192D01*
X134909263Y-98607040D01*
X134903138Y-98606396D01*
X134903137Y-98606396D01*
X134709726Y-98586068D01*
X134709724Y-98586068D01*
X134703597Y-98585424D01*
X134577429Y-98596906D01*
X134503791Y-98603607D01*
X134503790Y-98603607D01*
X134497650Y-98604166D01*
X134299266Y-98662554D01*
X134293801Y-98665411D01*
X134121461Y-98755508D01*
X134121457Y-98755511D01*
X134116001Y-98758363D01*
X133954835Y-98887943D01*
X133821908Y-99046360D01*
X133722282Y-99227578D01*
X133659753Y-99424696D01*
X133659067Y-99430813D01*
X133659066Y-99430817D01*
X133653430Y-99481067D01*
X133641700Y-99585640D01*
X133641700Y-100097034D01*
X133210700Y-100097034D01*
X133210700Y-99592966D01*
X133195622Y-99439189D01*
X133135851Y-99241217D01*
X133038765Y-99058625D01*
X133034874Y-99053855D01*
X133034872Y-99053851D01*
X132911958Y-98903143D01*
X132911955Y-98903140D01*
X132908063Y-98898368D01*
X132901166Y-98892662D01*
X132753471Y-98770478D01*
X132753466Y-98770475D01*
X132748722Y-98766550D01*
X132743303Y-98763620D01*
X132743300Y-98763618D01*
X132572232Y-98671122D01*
X132572227Y-98671120D01*
X132566812Y-98668192D01*
X132369263Y-98607040D01*
X132363138Y-98606396D01*
X132363137Y-98606396D01*
X132169726Y-98586068D01*
X132169724Y-98586068D01*
X132163597Y-98585424D01*
X132037429Y-98596906D01*
X131963791Y-98603607D01*
X131963790Y-98603607D01*
X131957650Y-98604166D01*
X131759266Y-98662554D01*
X131753801Y-98665411D01*
X131581461Y-98755508D01*
X131581457Y-98755511D01*
X131576001Y-98758363D01*
X131414835Y-98887943D01*
X131281908Y-99046360D01*
X131182282Y-99227578D01*
X131119753Y-99424696D01*
X131119067Y-99430813D01*
X131119066Y-99430817D01*
X131113430Y-99481067D01*
X131101700Y-99585640D01*
X131101700Y-100097034D01*
X131116778Y-100250811D01*
X131176549Y-100448783D01*
X131273635Y-100631375D01*
X131277526Y-100636145D01*
X131277528Y-100636149D01*
X131400442Y-100786857D01*
X131400445Y-100786860D01*
X131404337Y-100791632D01*
X131409084Y-100795559D01*
X131409086Y-100795561D01*
X131558929Y-100919522D01*
X131558934Y-100919525D01*
X131563678Y-100923450D01*
X131708630Y-101001825D01*
X131759037Y-101051819D01*
X131774700Y-101112660D01*
X131774700Y-101342665D01*
X131772114Y-101366964D01*
X131772046Y-101368402D01*
X131769855Y-101378580D01*
X131771079Y-101388920D01*
X131773827Y-101412142D01*
X131774179Y-101418120D01*
X131774272Y-101418112D01*
X131774700Y-101423290D01*
X131774700Y-101428492D01*
X131775554Y-101433622D01*
X131777886Y-101447632D01*
X131778723Y-101453511D01*
X131781724Y-101478865D01*
X131784782Y-101504707D01*
X131788767Y-101513006D01*
X131790278Y-101522083D01*
X131814758Y-101567451D01*
X131817439Y-101572714D01*
X131836327Y-101612050D01*
X131836330Y-101612054D01*
X131839760Y-101619198D01*
X131843370Y-101623492D01*
X131845302Y-101625424D01*
X131847089Y-101627373D01*
X131847118Y-101627426D01*
X131846988Y-101627545D01*
X131847489Y-101628113D01*
X131850588Y-101633857D01*
X131858233Y-101640924D01*
X131890408Y-101670666D01*
X131893974Y-101674096D01*
X133092758Y-102872880D01*
X133108111Y-102891889D01*
X133109078Y-102892952D01*
X133114729Y-102901704D01*
X133140327Y-102921884D01*
X133141272Y-102922629D01*
X133145750Y-102926608D01*
X133145810Y-102926537D01*
X133149767Y-102929890D01*
X133153448Y-102933571D01*
X133157680Y-102936595D01*
X133157682Y-102936597D01*
X133169257Y-102944869D01*
X133174002Y-102948432D01*
X133214470Y-102980334D01*
X133223155Y-102983384D01*
X133230642Y-102988734D01*
X133280047Y-103003509D01*
X133285642Y-103005327D01*
X133334302Y-103022416D01*
X133339891Y-103022900D01*
X133342604Y-103022900D01*
X133345269Y-103023015D01*
X133345332Y-103023034D01*
X133345325Y-103023208D01*
X133346071Y-103023255D01*
X133352324Y-103025125D01*
X133402183Y-103023166D01*
X133406478Y-103022997D01*
X133411425Y-103022900D01*
X140798366Y-103022900D01*
X140866487Y-103042902D01*
X140912980Y-103096558D01*
X140917247Y-103107145D01*
X140925791Y-103131476D01*
X140931383Y-103139046D01*
X140931384Y-103139049D01*
X140965036Y-103184609D01*
X141006990Y-103241410D01*
X141014561Y-103247002D01*
X141014563Y-103247004D01*
X141030686Y-103258913D01*
X141073596Y-103315475D01*
X141079115Y-103386257D01*
X141044920Y-103449358D01*
X140048950Y-104445327D01*
X139214521Y-105279756D01*
X139195505Y-105295115D01*
X139194444Y-105296081D01*
X139185696Y-105301729D01*
X139179250Y-105309906D01*
X139164771Y-105328272D01*
X139160794Y-105332747D01*
X139160865Y-105332808D01*
X139157512Y-105336765D01*
X139153829Y-105340448D01*
X139150803Y-105344683D01*
X139150801Y-105344685D01*
X139142547Y-105356236D01*
X139138984Y-105360982D01*
X139107066Y-105401470D01*
X139104015Y-105410157D01*
X139098666Y-105417643D01*
X139095683Y-105427619D01*
X139095682Y-105427620D01*
X139083902Y-105467011D01*
X139082072Y-105472643D01*
X139064984Y-105521302D01*
X139064500Y-105526891D01*
X139064500Y-105529602D01*
X139064385Y-105532269D01*
X139064366Y-105532332D01*
X139064192Y-105532325D01*
X139064145Y-105533071D01*
X139062275Y-105539324D01*
X139062684Y-105549728D01*
X139064403Y-105593478D01*
X139064500Y-105598425D01*
X139064500Y-117544188D01*
X139044498Y-117612309D01*
X139027595Y-117633283D01*
X133651921Y-123008956D01*
X133632905Y-123024315D01*
X133631844Y-123025281D01*
X133623096Y-123030929D01*
X133616650Y-123039106D01*
X133602171Y-123057472D01*
X133598194Y-123061947D01*
X133598265Y-123062008D01*
X133594912Y-123065965D01*
X133591229Y-123069648D01*
X133588203Y-123073883D01*
X133588201Y-123073885D01*
X133579947Y-123085436D01*
X133576384Y-123090182D01*
X133544466Y-123130670D01*
X133541415Y-123139357D01*
X133536066Y-123146843D01*
X133533083Y-123156819D01*
X133533082Y-123156820D01*
X133521302Y-123196211D01*
X133519472Y-123201843D01*
X133502384Y-123250502D01*
X133501900Y-123256091D01*
X133501900Y-123258802D01*
X133501785Y-123261469D01*
X133501766Y-123261532D01*
X133501592Y-123261525D01*
X133501545Y-123262271D01*
X133499675Y-123268524D01*
X133500084Y-123278928D01*
X133501803Y-123322678D01*
X133501900Y-123327625D01*
X133501900Y-124529187D01*
X133481898Y-124597308D01*
X133464995Y-124618282D01*
X131857282Y-126225995D01*
X131794970Y-126260021D01*
X131768187Y-126262900D01*
X131279683Y-126262900D01*
X131211562Y-126242898D01*
X131166677Y-126192629D01*
X131099737Y-126056889D01*
X131097183Y-126051710D01*
X130972978Y-125885379D01*
X130820542Y-125744468D01*
X130644979Y-125633697D01*
X130620594Y-125623968D01*
X130539240Y-125591511D01*
X130452170Y-125556773D01*
X130446502Y-125555646D01*
X130446500Y-125555645D01*
X130254238Y-125517402D01*
X130254236Y-125517402D01*
X130248571Y-125516275D01*
X130242796Y-125516199D01*
X130242792Y-125516199D01*
X130139057Y-125514842D01*
X130041001Y-125513558D01*
X130035304Y-125514537D01*
X130035303Y-125514537D01*
X129842101Y-125547735D01*
X129842098Y-125547736D01*
X129836411Y-125548713D01*
X129641654Y-125620562D01*
X129463252Y-125726700D01*
X129412227Y-125771448D01*
X129311525Y-125859762D01*
X129311522Y-125859765D01*
X129307180Y-125863573D01*
X129178663Y-126026595D01*
X129175974Y-126031706D01*
X129175972Y-126031709D01*
X129140742Y-126098671D01*
X129082007Y-126210307D01*
X129020449Y-126408558D01*
X128996050Y-126614706D01*
X129009627Y-126821850D01*
X129060725Y-127023050D01*
X129147634Y-127211569D01*
X129267442Y-127381094D01*
X129326863Y-127438980D01*
X129406175Y-127516242D01*
X129416137Y-127525947D01*
X129420933Y-127529152D01*
X129420936Y-127529154D01*
X129500111Y-127582057D01*
X129588740Y-127641277D01*
X129594043Y-127643555D01*
X129594048Y-127643558D01*
X129774167Y-127720942D01*
X129774170Y-127720943D01*
X129779470Y-127723220D01*
X129785100Y-127724494D01*
X129974104Y-127767262D01*
X129981939Y-127769035D01*
X129987708Y-127769262D01*
X129987711Y-127769262D01*
X130066453Y-127772355D01*
X130189367Y-127777184D01*
X130276232Y-127764589D01*
X130389092Y-127748226D01*
X130389097Y-127748225D01*
X130394806Y-127747397D01*
X130401712Y-127745053D01*
X130493092Y-127714033D01*
X130591377Y-127680670D01*
X130772497Y-127579238D01*
X130833026Y-127528897D01*
X133930259Y-127528897D01*
X133940139Y-127541384D01*
X134084179Y-127637627D01*
X134094284Y-127643114D01*
X134274318Y-127720463D01*
X134285261Y-127724018D01*
X134476368Y-127767262D01*
X134487778Y-127768764D01*
X134683572Y-127776456D01*
X134695054Y-127775854D01*
X134888975Y-127747738D01*
X134900158Y-127745053D01*
X135085701Y-127682070D01*
X135096216Y-127677388D01*
X135161652Y-127640742D01*
X137359001Y-127640742D01*
X137359370Y-127647560D01*
X137364759Y-127697176D01*
X137368388Y-127712435D01*
X137412511Y-127830135D01*
X137421043Y-127845720D01*
X137495787Y-127945450D01*
X137508350Y-127958013D01*
X137608080Y-128032757D01*
X137623665Y-128041289D01*
X137741371Y-128085415D01*
X137756617Y-128089040D01*
X137806242Y-128094431D01*
X137813056Y-128094800D01*
X138167885Y-128094800D01*
X138183124Y-128090325D01*
X138184329Y-128088935D01*
X138186000Y-128081252D01*
X138186000Y-128076684D01*
X138440000Y-128076684D01*
X138444475Y-128091923D01*
X138445865Y-128093128D01*
X138453548Y-128094799D01*
X138812942Y-128094799D01*
X138819760Y-128094430D01*
X138869376Y-128089041D01*
X138884635Y-128085412D01*
X139002335Y-128041289D01*
X139017920Y-128032757D01*
X139117650Y-127958013D01*
X139130213Y-127945450D01*
X139204957Y-127845720D01*
X139213489Y-127830135D01*
X139257615Y-127712429D01*
X139261240Y-127697183D01*
X139266631Y-127647558D01*
X139267000Y-127640744D01*
X139267000Y-127498415D01*
X139262525Y-127483176D01*
X139261135Y-127481971D01*
X139253452Y-127480300D01*
X138458115Y-127480300D01*
X138442876Y-127484775D01*
X138441671Y-127486165D01*
X138440000Y-127493848D01*
X138440000Y-128076684D01*
X138186000Y-128076684D01*
X138186000Y-127498415D01*
X138181525Y-127483176D01*
X138180135Y-127481971D01*
X138172452Y-127480300D01*
X137377116Y-127480300D01*
X137361877Y-127484775D01*
X137360672Y-127486165D01*
X137359001Y-127493848D01*
X137359001Y-127640742D01*
X135161652Y-127640742D01*
X135267173Y-127581647D01*
X135276648Y-127575136D01*
X135319761Y-127539280D01*
X135328214Y-127526694D01*
X135322040Y-127516045D01*
X134642812Y-126836817D01*
X134628868Y-126829203D01*
X134627035Y-126829334D01*
X134620420Y-126833585D01*
X133936455Y-127517550D01*
X133930259Y-127528897D01*
X130833026Y-127528897D01*
X130932099Y-127446499D01*
X131028912Y-127330093D01*
X131061147Y-127291335D01*
X131064838Y-127286897D01*
X131166270Y-127105777D01*
X131168034Y-127100581D01*
X131213949Y-127046558D01*
X131283080Y-127025900D01*
X131924265Y-127025900D01*
X131948564Y-127028486D01*
X131950002Y-127028554D01*
X131960180Y-127030745D01*
X131993741Y-127026773D01*
X131999720Y-127026421D01*
X131999712Y-127026328D01*
X132004890Y-127025900D01*
X132010092Y-127025900D01*
X132029246Y-127022712D01*
X132035104Y-127021878D01*
X132051718Y-127019912D01*
X132075967Y-127017042D01*
X132075968Y-127017042D01*
X132086307Y-127015818D01*
X132094606Y-127011833D01*
X132103683Y-127010322D01*
X132149051Y-126985842D01*
X132154314Y-126983161D01*
X132193650Y-126964273D01*
X132193654Y-126964270D01*
X132200798Y-126960840D01*
X132205092Y-126957230D01*
X132207024Y-126955298D01*
X132208973Y-126953511D01*
X132209026Y-126953482D01*
X132209145Y-126953612D01*
X132209713Y-126953111D01*
X132215457Y-126950012D01*
X132252268Y-126910190D01*
X132255697Y-126906625D01*
X132541836Y-126620486D01*
X133496930Y-126620486D01*
X133509744Y-126816002D01*
X133511545Y-126827374D01*
X133559776Y-127017283D01*
X133563617Y-127028130D01*
X133645650Y-127206073D01*
X133651401Y-127216034D01*
X133735091Y-127334454D01*
X133745681Y-127342842D01*
X133758981Y-127335814D01*
X134437583Y-126657212D01*
X134443961Y-126645532D01*
X134814803Y-126645532D01*
X134814934Y-126647365D01*
X134819185Y-126653980D01*
X135500483Y-127335278D01*
X135513792Y-127342545D01*
X135523827Y-127335426D01*
X135560736Y-127291048D01*
X135567247Y-127281573D01*
X135608346Y-127208185D01*
X137359000Y-127208185D01*
X137363475Y-127223424D01*
X137364865Y-127224629D01*
X137372548Y-127226300D01*
X138167885Y-127226300D01*
X138183124Y-127221825D01*
X138184329Y-127220435D01*
X138186000Y-127212752D01*
X138186000Y-127208185D01*
X138440000Y-127208185D01*
X138444475Y-127223424D01*
X138445865Y-127224629D01*
X138453548Y-127226300D01*
X139248884Y-127226300D01*
X139264123Y-127221825D01*
X139265328Y-127220435D01*
X139266999Y-127212752D01*
X139266999Y-127065858D01*
X139266630Y-127059040D01*
X139261241Y-127009424D01*
X139257612Y-126994165D01*
X139213489Y-126876465D01*
X139204957Y-126860880D01*
X139130213Y-126761150D01*
X139117650Y-126748587D01*
X139017920Y-126673843D01*
X139002335Y-126665311D01*
X138884629Y-126621185D01*
X138869383Y-126617560D01*
X138819758Y-126612169D01*
X138812944Y-126611800D01*
X138458115Y-126611800D01*
X138442876Y-126616275D01*
X138441671Y-126617665D01*
X138440000Y-126625348D01*
X138440000Y-127208185D01*
X138186000Y-127208185D01*
X138186000Y-126629916D01*
X138181525Y-126614677D01*
X138180135Y-126613472D01*
X138172452Y-126611801D01*
X137813058Y-126611801D01*
X137806240Y-126612170D01*
X137756624Y-126617559D01*
X137741365Y-126621188D01*
X137623665Y-126665311D01*
X137608080Y-126673843D01*
X137508350Y-126748587D01*
X137495787Y-126761150D01*
X137421043Y-126860880D01*
X137412511Y-126876465D01*
X137368385Y-126994171D01*
X137364760Y-127009417D01*
X137359369Y-127059042D01*
X137359000Y-127065856D01*
X137359000Y-127208185D01*
X135608346Y-127208185D01*
X135662988Y-127110616D01*
X135667670Y-127100101D01*
X135730653Y-126914558D01*
X135733338Y-126903375D01*
X135761750Y-126707414D01*
X135762380Y-126700032D01*
X135763740Y-126648104D01*
X135763497Y-126640705D01*
X135745380Y-126443529D01*
X135743283Y-126432214D01*
X135690096Y-126243628D01*
X135685974Y-126232889D01*
X135599310Y-126057153D01*
X135593300Y-126047345D01*
X135524350Y-125955009D01*
X135513092Y-125946560D01*
X135500673Y-125953332D01*
X134822417Y-126631588D01*
X134814803Y-126645532D01*
X134443961Y-126645532D01*
X134445197Y-126643268D01*
X134445066Y-126641435D01*
X134440815Y-126634820D01*
X133759685Y-125953690D01*
X133746844Y-125946678D01*
X133736155Y-125954473D01*
X133682662Y-126022329D01*
X133676391Y-126031986D01*
X133585163Y-126205382D01*
X133580758Y-126216016D01*
X133522653Y-126403147D01*
X133520261Y-126414398D01*
X133497231Y-126608985D01*
X133496930Y-126620486D01*
X132541836Y-126620486D01*
X133400639Y-125761683D01*
X133930819Y-125761683D01*
X133936653Y-125771448D01*
X134617188Y-126451983D01*
X134631132Y-126459597D01*
X134632965Y-126459466D01*
X134639580Y-126455215D01*
X135322853Y-125771942D01*
X135330467Y-125757998D01*
X135330430Y-125757481D01*
X135324800Y-125749086D01*
X135324481Y-125748791D01*
X135315348Y-125741783D01*
X135149631Y-125637223D01*
X135139388Y-125632004D01*
X134957396Y-125559397D01*
X134946359Y-125556128D01*
X134754184Y-125517901D01*
X134742739Y-125516698D01*
X134546822Y-125514134D01*
X134535342Y-125515037D01*
X134342231Y-125548220D01*
X134331123Y-125551197D01*
X134147290Y-125619016D01*
X134136908Y-125623968D01*
X133968515Y-125724151D01*
X133959203Y-125730917D01*
X133939215Y-125748446D01*
X133930819Y-125761683D01*
X133400639Y-125761683D01*
X134114876Y-125047446D01*
X134133899Y-125032082D01*
X134134958Y-125031118D01*
X134143704Y-125025471D01*
X134150152Y-125017292D01*
X134150154Y-125017290D01*
X134164634Y-124998923D01*
X134168609Y-124994450D01*
X134168537Y-124994389D01*
X134171890Y-124990432D01*
X134175571Y-124986751D01*
X134186855Y-124970960D01*
X134190419Y-124966214D01*
X134215887Y-124933908D01*
X134222334Y-124925730D01*
X134225384Y-124917045D01*
X134230735Y-124909557D01*
X134245515Y-124860134D01*
X134247327Y-124854560D01*
X134264416Y-124805898D01*
X134264900Y-124800309D01*
X134264900Y-124797598D01*
X134265015Y-124794931D01*
X134265034Y-124794868D01*
X134265208Y-124794875D01*
X134265255Y-124794129D01*
X134267125Y-124787876D01*
X134264997Y-124733712D01*
X134264900Y-124728766D01*
X134264900Y-124154400D01*
X134570517Y-124154400D01*
X134590411Y-124381789D01*
X134649488Y-124602270D01*
X134651810Y-124607250D01*
X134651811Y-124607252D01*
X134743628Y-124804154D01*
X134743631Y-124804159D01*
X134745954Y-124809141D01*
X134778886Y-124856172D01*
X134825483Y-124922719D01*
X134876878Y-124996119D01*
X135038281Y-125157522D01*
X135042790Y-125160679D01*
X135042792Y-125160681D01*
X135065164Y-125176346D01*
X135225258Y-125288446D01*
X135230240Y-125290769D01*
X135230245Y-125290772D01*
X135409593Y-125374403D01*
X135432130Y-125384912D01*
X135437438Y-125386334D01*
X135437440Y-125386335D01*
X135647296Y-125442565D01*
X135652611Y-125443989D01*
X135880000Y-125463883D01*
X136107389Y-125443989D01*
X136112704Y-125442565D01*
X136322560Y-125386335D01*
X136322562Y-125386334D01*
X136327870Y-125384912D01*
X136350407Y-125374403D01*
X136529755Y-125290772D01*
X136529760Y-125290769D01*
X136534742Y-125288446D01*
X136679071Y-125187385D01*
X137358500Y-125187385D01*
X137358501Y-125769214D01*
X137365119Y-125830142D01*
X137367894Y-125837544D01*
X137367894Y-125837545D01*
X137411300Y-125953332D01*
X137415217Y-125963782D01*
X137420601Y-125970965D01*
X137420601Y-125970966D01*
X137458893Y-126022058D01*
X137500811Y-126077989D01*
X137615018Y-126163583D01*
X137623426Y-126166735D01*
X137741260Y-126210908D01*
X137741262Y-126210909D01*
X137748658Y-126213681D01*
X137809585Y-126220300D01*
X138312926Y-126220300D01*
X138816414Y-126220299D01*
X138819808Y-126219930D01*
X138819814Y-126219930D01*
X138869483Y-126214535D01*
X138869486Y-126214534D01*
X138877342Y-126213681D01*
X138886343Y-126210307D01*
X139002574Y-126166735D01*
X139010982Y-126163583D01*
X139125189Y-126077989D01*
X139167107Y-126022058D01*
X139205399Y-125970966D01*
X139205399Y-125970965D01*
X139210783Y-125963782D01*
X139214700Y-125953332D01*
X139258108Y-125837540D01*
X139258109Y-125837538D01*
X139260881Y-125830142D01*
X139267500Y-125769215D01*
X139267499Y-125187386D01*
X139266300Y-125176346D01*
X139261735Y-125134317D01*
X139261734Y-125134311D01*
X139260881Y-125126458D01*
X139224688Y-125029909D01*
X139213935Y-125001226D01*
X139210783Y-124992818D01*
X139172052Y-124941139D01*
X139130571Y-124885792D01*
X139125189Y-124878611D01*
X139060179Y-124829888D01*
X139018166Y-124798401D01*
X139018165Y-124798401D01*
X139010982Y-124793017D01*
X138925112Y-124760827D01*
X138868350Y-124718188D01*
X138843649Y-124651626D01*
X138858856Y-124582277D01*
X138894481Y-124541497D01*
X138905436Y-124533405D01*
X138905439Y-124533402D01*
X138913010Y-124527810D01*
X138994209Y-124417876D01*
X139039493Y-124288927D01*
X139042500Y-124257115D01*
X139042499Y-123748486D01*
X139040808Y-123730584D01*
X139040216Y-123724322D01*
X139040215Y-123724318D01*
X139039493Y-123716673D01*
X138994209Y-123587724D01*
X138913010Y-123477790D01*
X138803076Y-123396591D01*
X138674127Y-123351307D01*
X138666485Y-123350585D01*
X138666482Y-123350584D01*
X138651579Y-123349176D01*
X138642315Y-123348300D01*
X138313223Y-123348300D01*
X137983686Y-123348301D01*
X137980738Y-123348580D01*
X137980729Y-123348580D01*
X137959522Y-123350584D01*
X137959520Y-123350584D01*
X137951873Y-123351307D01*
X137822924Y-123396591D01*
X137712990Y-123477790D01*
X137631791Y-123587724D01*
X137586507Y-123716673D01*
X137583500Y-123748485D01*
X137583501Y-124257114D01*
X137586507Y-124288927D01*
X137631791Y-124417876D01*
X137712990Y-124527810D01*
X137720561Y-124533402D01*
X137720564Y-124533405D01*
X137731519Y-124541497D01*
X137774428Y-124598059D01*
X137779946Y-124668841D01*
X137746321Y-124731369D01*
X137700889Y-124760826D01*
X137615018Y-124793017D01*
X137607835Y-124798401D01*
X137607834Y-124798401D01*
X137565821Y-124829888D01*
X137500811Y-124878611D01*
X137495429Y-124885792D01*
X137453949Y-124941139D01*
X137415217Y-124992818D01*
X137412065Y-125001226D01*
X137369858Y-125113817D01*
X137365119Y-125126458D01*
X137358500Y-125187385D01*
X136679071Y-125187385D01*
X136694836Y-125176346D01*
X136717208Y-125160681D01*
X136717210Y-125160679D01*
X136721719Y-125157522D01*
X136883122Y-124996119D01*
X136934518Y-124922719D01*
X136981114Y-124856172D01*
X137014046Y-124809141D01*
X137016369Y-124804159D01*
X137016372Y-124804154D01*
X137108189Y-124607252D01*
X137108190Y-124607250D01*
X137110512Y-124602270D01*
X137169589Y-124381789D01*
X137189483Y-124154400D01*
X137169589Y-123927011D01*
X137155777Y-123875463D01*
X137111935Y-123711840D01*
X137111934Y-123711838D01*
X137110512Y-123706530D01*
X137092040Y-123666916D01*
X137016372Y-123504646D01*
X137016369Y-123504641D01*
X137014046Y-123499659D01*
X136911951Y-123353853D01*
X136886281Y-123317192D01*
X136886279Y-123317189D01*
X136883122Y-123312681D01*
X136721719Y-123151278D01*
X136716504Y-123147626D01*
X136605140Y-123069648D01*
X136534742Y-123020354D01*
X136529760Y-123018031D01*
X136529755Y-123018028D01*
X136332852Y-122926211D01*
X136332851Y-122926210D01*
X136327870Y-122923888D01*
X136322562Y-122922466D01*
X136322560Y-122922465D01*
X136112704Y-122866235D01*
X136112703Y-122866235D01*
X136107389Y-122864811D01*
X135880000Y-122844917D01*
X135652611Y-122864811D01*
X135647297Y-122866235D01*
X135647296Y-122866235D01*
X135437440Y-122922465D01*
X135437438Y-122922466D01*
X135432130Y-122923888D01*
X135427150Y-122926210D01*
X135427148Y-122926211D01*
X135230246Y-123018028D01*
X135230241Y-123018031D01*
X135225259Y-123020354D01*
X135125530Y-123090185D01*
X135043497Y-123147626D01*
X135038281Y-123151278D01*
X134876878Y-123312681D01*
X134873721Y-123317189D01*
X134873719Y-123317192D01*
X134848049Y-123353853D01*
X134745954Y-123499659D01*
X134743631Y-123504641D01*
X134743628Y-123504646D01*
X134667960Y-123666916D01*
X134649488Y-123706530D01*
X134648066Y-123711838D01*
X134648065Y-123711840D01*
X134604223Y-123875463D01*
X134590411Y-123927011D01*
X134570517Y-124154400D01*
X134264900Y-124154400D01*
X134264900Y-123527212D01*
X134284902Y-123459091D01*
X134301805Y-123438117D01*
X137716405Y-120023518D01*
X137778717Y-119989492D01*
X137849533Y-119994557D01*
X137906368Y-120037104D01*
X137931179Y-120103624D01*
X137931500Y-120112613D01*
X137931500Y-121619166D01*
X137911498Y-121687287D01*
X137857842Y-121733780D01*
X137847255Y-121738047D01*
X137822924Y-121746591D01*
X137815354Y-121752183D01*
X137815351Y-121752184D01*
X137730205Y-121815075D01*
X137712990Y-121827790D01*
X137631791Y-121937724D01*
X137586507Y-122066673D01*
X137583500Y-122098485D01*
X137583501Y-122607114D01*
X137586507Y-122638927D01*
X137631791Y-122767876D01*
X137712990Y-122877810D01*
X137822924Y-122959009D01*
X137951873Y-123004293D01*
X137959515Y-123005015D01*
X137959518Y-123005016D01*
X137974421Y-123006424D01*
X137983685Y-123007300D01*
X138312777Y-123007300D01*
X138642314Y-123007299D01*
X138645262Y-123007020D01*
X138645271Y-123007020D01*
X138666478Y-123005016D01*
X138666480Y-123005016D01*
X138674127Y-123004293D01*
X138803076Y-122959009D01*
X138913010Y-122877810D01*
X138994209Y-122767876D01*
X139039493Y-122638927D01*
X139042500Y-122607115D01*
X139042499Y-122098486D01*
X139039493Y-122066673D01*
X138994209Y-121937724D01*
X138913010Y-121827790D01*
X138895795Y-121815075D01*
X138810649Y-121752184D01*
X138810646Y-121752183D01*
X138803076Y-121746591D01*
X138778750Y-121738048D01*
X138721106Y-121696605D01*
X138695018Y-121630576D01*
X138694500Y-121619166D01*
X138694500Y-120062812D01*
X138714502Y-119994691D01*
X138731405Y-119973717D01*
X140337876Y-118367246D01*
X140356899Y-118351882D01*
X140357958Y-118350918D01*
X140366704Y-118345271D01*
X140373152Y-118337092D01*
X140373154Y-118337090D01*
X140387634Y-118318723D01*
X140391609Y-118314250D01*
X140391537Y-118314189D01*
X140394890Y-118310232D01*
X140398571Y-118306551D01*
X140409855Y-118290760D01*
X140413419Y-118286014D01*
X140438887Y-118253708D01*
X140445334Y-118245530D01*
X140448384Y-118236845D01*
X140453735Y-118229357D01*
X140468510Y-118179950D01*
X140470326Y-118174363D01*
X140487416Y-118125698D01*
X140487900Y-118120109D01*
X140487900Y-118117398D01*
X140488015Y-118114729D01*
X140488034Y-118114668D01*
X140488208Y-118114675D01*
X140488255Y-118113928D01*
X140490125Y-118107675D01*
X140487997Y-118053511D01*
X140487900Y-118048565D01*
X140487900Y-106077412D01*
X140507902Y-106009291D01*
X140524805Y-105988317D01*
X141569697Y-104943426D01*
X142067796Y-104445327D01*
X144051000Y-104445327D01*
X144051369Y-104452141D01*
X144056510Y-104499466D01*
X144060135Y-104514711D01*
X144102375Y-104627388D01*
X144110908Y-104642975D01*
X144182434Y-104738410D01*
X144194990Y-104750966D01*
X144290425Y-104822492D01*
X144306012Y-104831025D01*
X144418689Y-104873265D01*
X144433934Y-104876890D01*
X144481259Y-104882031D01*
X144488073Y-104882400D01*
X144634885Y-104882400D01*
X144650124Y-104877925D01*
X144651329Y-104876535D01*
X144653000Y-104868852D01*
X144653000Y-104323515D01*
X144648525Y-104308276D01*
X144647135Y-104307071D01*
X144639452Y-104305400D01*
X144069115Y-104305400D01*
X144053876Y-104309875D01*
X144052671Y-104311265D01*
X144051000Y-104318948D01*
X144051000Y-104445327D01*
X142067796Y-104445327D01*
X142623879Y-103889244D01*
X142642895Y-103873885D01*
X142643956Y-103872919D01*
X142652704Y-103867271D01*
X142673629Y-103840728D01*
X142677608Y-103836250D01*
X142677537Y-103836190D01*
X142680890Y-103832233D01*
X142684571Y-103828552D01*
X142692478Y-103817488D01*
X142695869Y-103812743D01*
X142699432Y-103807998D01*
X142711759Y-103792361D01*
X142731334Y-103767530D01*
X142734384Y-103758845D01*
X142739734Y-103751358D01*
X142754509Y-103701953D01*
X142756330Y-103696350D01*
X142765321Y-103670750D01*
X142773416Y-103647698D01*
X142773900Y-103642109D01*
X142773900Y-103639396D01*
X142774015Y-103636731D01*
X142774034Y-103636668D01*
X142774208Y-103636675D01*
X142774255Y-103635929D01*
X142776125Y-103629676D01*
X142773997Y-103575522D01*
X142773900Y-103570575D01*
X142773900Y-103494835D01*
X142793902Y-103426714D01*
X142847558Y-103380221D01*
X142911757Y-103369394D01*
X142923274Y-103370483D01*
X142924743Y-103370622D01*
X142924745Y-103370622D01*
X142927685Y-103370900D01*
X143181828Y-103370900D01*
X143436314Y-103370899D01*
X143439262Y-103370620D01*
X143439271Y-103370620D01*
X143460478Y-103368616D01*
X143460480Y-103368616D01*
X143468127Y-103367893D01*
X143597076Y-103322609D01*
X143707010Y-103241410D01*
X143748964Y-103184609D01*
X143782616Y-103139049D01*
X143782617Y-103139046D01*
X143788209Y-103131476D01*
X143796752Y-103107150D01*
X143838195Y-103049506D01*
X143904224Y-103023418D01*
X143915634Y-103022900D01*
X143997304Y-103022900D01*
X144065425Y-103042902D01*
X144104717Y-103085060D01*
X144105083Y-103086035D01*
X144187456Y-103195944D01*
X144194633Y-103201323D01*
X144290183Y-103272935D01*
X144290186Y-103272937D01*
X144297365Y-103278317D01*
X144317020Y-103285685D01*
X144373784Y-103328327D01*
X144398484Y-103394888D01*
X144383276Y-103464237D01*
X144332990Y-103514355D01*
X144317018Y-103521649D01*
X144306014Y-103525774D01*
X144290425Y-103534308D01*
X144194990Y-103605834D01*
X144182434Y-103618390D01*
X144110908Y-103713825D01*
X144102375Y-103729412D01*
X144060135Y-103842089D01*
X144056510Y-103857334D01*
X144051369Y-103904659D01*
X144051000Y-103911473D01*
X144051000Y-104033285D01*
X144055475Y-104048524D01*
X144056865Y-104049729D01*
X144064548Y-104051400D01*
X144781000Y-104051400D01*
X144849121Y-104071402D01*
X144895614Y-104125058D01*
X144907000Y-104177400D01*
X144907000Y-104864285D01*
X144911475Y-104879524D01*
X144912865Y-104880729D01*
X144920548Y-104882400D01*
X145071927Y-104882400D01*
X145078741Y-104882031D01*
X145126066Y-104876890D01*
X145141311Y-104873265D01*
X145253988Y-104831025D01*
X145269575Y-104822492D01*
X145365010Y-104750966D01*
X145377566Y-104738410D01*
X145449090Y-104642977D01*
X145451513Y-104638551D01*
X145501771Y-104588405D01*
X145571162Y-104573390D01*
X145637655Y-104598274D01*
X145671720Y-104638148D01*
X145673591Y-104643476D01*
X145754790Y-104753410D01*
X145762361Y-104759002D01*
X145857151Y-104829016D01*
X145857154Y-104829017D01*
X145864724Y-104834609D01*
X145873606Y-104837728D01*
X145881935Y-104842138D01*
X145880618Y-104844625D01*
X145926206Y-104877397D01*
X145952297Y-104943426D01*
X145938548Y-105013078D01*
X145926777Y-105031544D01*
X145875475Y-105098402D01*
X145875473Y-105098405D01*
X145870445Y-105104958D01*
X145814572Y-105239846D01*
X145813494Y-105248032D01*
X145813494Y-105248033D01*
X145801953Y-105335701D01*
X145773231Y-105400629D01*
X145766128Y-105408350D01*
X145693276Y-105481201D01*
X145625317Y-105549160D01*
X145606306Y-105564514D01*
X145605244Y-105565480D01*
X145596496Y-105571129D01*
X145590052Y-105579304D01*
X145590049Y-105579306D01*
X145575571Y-105597672D01*
X145571594Y-105602147D01*
X145571665Y-105602208D01*
X145568312Y-105606165D01*
X145564629Y-105609848D01*
X145561603Y-105614083D01*
X145561601Y-105614085D01*
X145553347Y-105625636D01*
X145549784Y-105630382D01*
X145517866Y-105670870D01*
X145514815Y-105679557D01*
X145509466Y-105687043D01*
X145506483Y-105697019D01*
X145506482Y-105697020D01*
X145494702Y-105736411D01*
X145492872Y-105742043D01*
X145475784Y-105790702D01*
X145475300Y-105796291D01*
X145475300Y-105799002D01*
X145475185Y-105801669D01*
X145475166Y-105801732D01*
X145474992Y-105801725D01*
X145474945Y-105802471D01*
X145473075Y-105808724D01*
X145473484Y-105819128D01*
X145475203Y-105862878D01*
X145475300Y-105867825D01*
X145475300Y-110567200D01*
X145455298Y-110635321D01*
X145401642Y-110681814D01*
X145349300Y-110693200D01*
X142392400Y-110693200D01*
X142392400Y-120267610D01*
X142372398Y-120335731D01*
X142355495Y-120356705D01*
X139522200Y-123190000D01*
X139522200Y-128370210D01*
X139502198Y-128438331D01*
X139485295Y-128459305D01*
X138822505Y-129122095D01*
X138760193Y-129156121D01*
X138733410Y-129159000D01*
X126266304Y-129159000D01*
X126198183Y-129138998D01*
X126175409Y-129120259D01*
X125724920Y-128651000D01*
X125638105Y-128560567D01*
X125605359Y-128497575D01*
X125603000Y-128473309D01*
X125603000Y-124154400D01*
X127560517Y-124154400D01*
X127580411Y-124381789D01*
X127639488Y-124602270D01*
X127641810Y-124607250D01*
X127641811Y-124607252D01*
X127733628Y-124804154D01*
X127733631Y-124804159D01*
X127735954Y-124809141D01*
X127768886Y-124856172D01*
X127815483Y-124922719D01*
X127866878Y-124996119D01*
X128028281Y-125157522D01*
X128032790Y-125160679D01*
X128032792Y-125160681D01*
X128055164Y-125176346D01*
X128215258Y-125288446D01*
X128220240Y-125290769D01*
X128220245Y-125290772D01*
X128399593Y-125374403D01*
X128422130Y-125384912D01*
X128427438Y-125386334D01*
X128427440Y-125386335D01*
X128637296Y-125442565D01*
X128642611Y-125443989D01*
X128870000Y-125463883D01*
X129097389Y-125443989D01*
X129102704Y-125442565D01*
X129312560Y-125386335D01*
X129312562Y-125386334D01*
X129317870Y-125384912D01*
X129340407Y-125374403D01*
X129519755Y-125290772D01*
X129519760Y-125290769D01*
X129524742Y-125288446D01*
X129684836Y-125176346D01*
X129707208Y-125160681D01*
X129707210Y-125160679D01*
X129711719Y-125157522D01*
X129873122Y-124996119D01*
X129924518Y-124922719D01*
X129971114Y-124856172D01*
X130004046Y-124809141D01*
X130006369Y-124804159D01*
X130006372Y-124804154D01*
X130098189Y-124607252D01*
X130098190Y-124607250D01*
X130100512Y-124602270D01*
X130159589Y-124381789D01*
X130179483Y-124154400D01*
X130159589Y-123927011D01*
X130145777Y-123875463D01*
X130101935Y-123711840D01*
X130101934Y-123711838D01*
X130100512Y-123706530D01*
X130082040Y-123666916D01*
X130006372Y-123504646D01*
X130006369Y-123504641D01*
X130004046Y-123499659D01*
X129901951Y-123353853D01*
X129876281Y-123317192D01*
X129876279Y-123317189D01*
X129873122Y-123312681D01*
X129711719Y-123151278D01*
X129706504Y-123147626D01*
X129595140Y-123069648D01*
X129524742Y-123020354D01*
X129519760Y-123018031D01*
X129519755Y-123018028D01*
X129322852Y-122926211D01*
X129322851Y-122926210D01*
X129317870Y-122923888D01*
X129312562Y-122922466D01*
X129312560Y-122922465D01*
X129102704Y-122866235D01*
X129102703Y-122866235D01*
X129097389Y-122864811D01*
X128870000Y-122844917D01*
X128642611Y-122864811D01*
X128637297Y-122866235D01*
X128637296Y-122866235D01*
X128427440Y-122922465D01*
X128427438Y-122922466D01*
X128422130Y-122923888D01*
X128417150Y-122926210D01*
X128417148Y-122926211D01*
X128220246Y-123018028D01*
X128220241Y-123018031D01*
X128215259Y-123020354D01*
X128115530Y-123090185D01*
X128033497Y-123147626D01*
X128028281Y-123151278D01*
X127866878Y-123312681D01*
X127863721Y-123317189D01*
X127863719Y-123317192D01*
X127838049Y-123353853D01*
X127735954Y-123499659D01*
X127733631Y-123504641D01*
X127733628Y-123504646D01*
X127657960Y-123666916D01*
X127639488Y-123706530D01*
X127638066Y-123711838D01*
X127638065Y-123711840D01*
X127594223Y-123875463D01*
X127580411Y-123927011D01*
X127560517Y-124154400D01*
X125603000Y-124154400D01*
X125603000Y-117191412D01*
X128029065Y-117191412D01*
X128042594Y-117397821D01*
X128044015Y-117403417D01*
X128044016Y-117403422D01*
X128092091Y-117592714D01*
X128093512Y-117598309D01*
X128180112Y-117786161D01*
X128299496Y-117955085D01*
X128327389Y-117982257D01*
X128397999Y-118051042D01*
X128447665Y-118099425D01*
X128452461Y-118102630D01*
X128452464Y-118102632D01*
X128568236Y-118179988D01*
X128619657Y-118214346D01*
X128624960Y-118216624D01*
X128624963Y-118216626D01*
X128763437Y-118276119D01*
X128809711Y-118296000D01*
X128890364Y-118314250D01*
X129005827Y-118340377D01*
X129005830Y-118340377D01*
X129011463Y-118341652D01*
X129017234Y-118341879D01*
X129017236Y-118341879D01*
X129080106Y-118344349D01*
X129218156Y-118349773D01*
X129327216Y-118333960D01*
X129417154Y-118320920D01*
X129417159Y-118320919D01*
X129422868Y-118320091D01*
X129428332Y-118318236D01*
X129428337Y-118318235D01*
X129613271Y-118255459D01*
X129613276Y-118255457D01*
X129618743Y-118253601D01*
X129633155Y-118245530D01*
X129794174Y-118155355D01*
X129794178Y-118155352D01*
X129799221Y-118152528D01*
X129958258Y-118020258D01*
X130090528Y-117861221D01*
X130093352Y-117856178D01*
X130093355Y-117856174D01*
X130188777Y-117685786D01*
X130188778Y-117685784D01*
X130191601Y-117680743D01*
X130193457Y-117675276D01*
X130193459Y-117675271D01*
X130256235Y-117490337D01*
X130256236Y-117490332D01*
X130258091Y-117484868D01*
X130258919Y-117479159D01*
X130258920Y-117479154D01*
X130287240Y-117283830D01*
X130287773Y-117280156D01*
X130289322Y-117221000D01*
X130273438Y-117048133D01*
X130270924Y-117020769D01*
X130270923Y-117020766D01*
X130270395Y-117015015D01*
X130262210Y-116985993D01*
X130215814Y-116821488D01*
X130215813Y-116821486D01*
X130214246Y-116815929D01*
X130203498Y-116794133D01*
X130125313Y-116635588D01*
X130125310Y-116635584D01*
X130122758Y-116630408D01*
X130100682Y-116600844D01*
X130002446Y-116469291D01*
X130002445Y-116469290D01*
X129998993Y-116464667D01*
X129907558Y-116380146D01*
X129851336Y-116328174D01*
X129851333Y-116328172D01*
X129847096Y-116324255D01*
X129769285Y-116275160D01*
X129677039Y-116216957D01*
X129677034Y-116216955D01*
X129672155Y-116213876D01*
X129480029Y-116137225D01*
X129474369Y-116136099D01*
X129474365Y-116136098D01*
X129282819Y-116097997D01*
X129282814Y-116097997D01*
X129277151Y-116096870D01*
X129271376Y-116096794D01*
X129271372Y-116096794D01*
X129167714Y-116095437D01*
X129070316Y-116094162D01*
X129064619Y-116095141D01*
X129064618Y-116095141D01*
X128872148Y-116128214D01*
X128866451Y-116129193D01*
X128672384Y-116200788D01*
X128494613Y-116306550D01*
X128490273Y-116310356D01*
X128490269Y-116310359D01*
X128435886Y-116358052D01*
X128339093Y-116442938D01*
X128335518Y-116447473D01*
X128335517Y-116447474D01*
X128228852Y-116582779D01*
X128211032Y-116605383D01*
X128208341Y-116610499D01*
X128208339Y-116610501D01*
X128123137Y-116772444D01*
X128114719Y-116788444D01*
X128098710Y-116840000D01*
X128058541Y-116969367D01*
X128053378Y-116985993D01*
X128029065Y-117191412D01*
X125603000Y-117191412D01*
X125603000Y-101007782D01*
X125623002Y-100939661D01*
X125676658Y-100893168D01*
X125746932Y-100883064D01*
X125811512Y-100912558D01*
X125835073Y-100945232D01*
X125836466Y-100944301D01*
X125892716Y-101028484D01*
X125976899Y-101084734D01*
X126051133Y-101099500D01*
X127076034Y-101099500D01*
X128101266Y-101099499D01*
X128137018Y-101092388D01*
X128163326Y-101087156D01*
X128163328Y-101087155D01*
X128175501Y-101084734D01*
X128185821Y-101077839D01*
X128185822Y-101077838D01*
X128249368Y-101035377D01*
X128259684Y-101028484D01*
X128315934Y-100944301D01*
X128330700Y-100870067D01*
X128330700Y-100289030D01*
X128350702Y-100220909D01*
X128404358Y-100174416D01*
X128474632Y-100164312D01*
X128539212Y-100193806D01*
X128577322Y-100252611D01*
X128636549Y-100448783D01*
X128733635Y-100631375D01*
X128737526Y-100636145D01*
X128737528Y-100636149D01*
X128860442Y-100786857D01*
X128860445Y-100786860D01*
X128864337Y-100791632D01*
X128869084Y-100795559D01*
X128869086Y-100795561D01*
X129018929Y-100919522D01*
X129018934Y-100919525D01*
X129023678Y-100923450D01*
X129029097Y-100926380D01*
X129029100Y-100926382D01*
X129200168Y-101018878D01*
X129200173Y-101018880D01*
X129205588Y-101021808D01*
X129403137Y-101082960D01*
X129409262Y-101083604D01*
X129409263Y-101083604D01*
X129602674Y-101103932D01*
X129602676Y-101103932D01*
X129608803Y-101104576D01*
X129734971Y-101093094D01*
X129808609Y-101086393D01*
X129808610Y-101086393D01*
X129814750Y-101085834D01*
X130013134Y-101027446D01*
X130020433Y-101023630D01*
X130190939Y-100934492D01*
X130190943Y-100934489D01*
X130196399Y-100931637D01*
X130357565Y-100802057D01*
X130490492Y-100643640D01*
X130590118Y-100462422D01*
X130652647Y-100265304D01*
X130670700Y-100104360D01*
X130670700Y-99592966D01*
X130655622Y-99439189D01*
X130595851Y-99241217D01*
X130498765Y-99058625D01*
X130494874Y-99053855D01*
X130494872Y-99053851D01*
X130371958Y-98903143D01*
X130371955Y-98903140D01*
X130368063Y-98898368D01*
X130361166Y-98892662D01*
X130213471Y-98770478D01*
X130213466Y-98770475D01*
X130208722Y-98766550D01*
X130203303Y-98763620D01*
X130203300Y-98763618D01*
X130032232Y-98671122D01*
X130032227Y-98671120D01*
X130026812Y-98668192D01*
X129829263Y-98607040D01*
X129823138Y-98606396D01*
X129823137Y-98606396D01*
X129629726Y-98586068D01*
X129629724Y-98586068D01*
X129623597Y-98585424D01*
X129497429Y-98596906D01*
X129423791Y-98603607D01*
X129423790Y-98603607D01*
X129417650Y-98604166D01*
X129219266Y-98662554D01*
X129213801Y-98665411D01*
X129041461Y-98755508D01*
X129041457Y-98755511D01*
X129036001Y-98758363D01*
X128874835Y-98887943D01*
X128741908Y-99046360D01*
X128642282Y-99227578D01*
X128579753Y-99424696D01*
X128579421Y-99427655D01*
X128546215Y-99489157D01*
X128484064Y-99523476D01*
X128413225Y-99518747D01*
X128356189Y-99476469D01*
X128331064Y-99410067D01*
X128330699Y-99400484D01*
X128330699Y-98819934D01*
X128321981Y-98776102D01*
X128318356Y-98757874D01*
X128318355Y-98757872D01*
X128315934Y-98745699D01*
X128259684Y-98661516D01*
X128175501Y-98605266D01*
X128101267Y-98590500D01*
X127076366Y-98590500D01*
X126051134Y-98590501D01*
X126015382Y-98597612D01*
X125989074Y-98602844D01*
X125989072Y-98602845D01*
X125976899Y-98605266D01*
X125966579Y-98612161D01*
X125966578Y-98612162D01*
X125906185Y-98652516D01*
X125892716Y-98661516D01*
X125836466Y-98745699D01*
X125834284Y-98744241D01*
X125800862Y-98785716D01*
X125733499Y-98808138D01*
X125664707Y-98790581D01*
X125616328Y-98738619D01*
X125603000Y-98682218D01*
X125603000Y-77237034D01*
X126021700Y-77237034D01*
X126036778Y-77390811D01*
X126096549Y-77588783D01*
X126109973Y-77614029D01*
X126186111Y-77757224D01*
X126193635Y-77771375D01*
X126197526Y-77776145D01*
X126197528Y-77776149D01*
X126320442Y-77926857D01*
X126320445Y-77926860D01*
X126324337Y-77931632D01*
X126329084Y-77935559D01*
X126329086Y-77935561D01*
X126478929Y-78059522D01*
X126478934Y-78059525D01*
X126483678Y-78063450D01*
X126489097Y-78066380D01*
X126489100Y-78066382D01*
X126660168Y-78158878D01*
X126660173Y-78158880D01*
X126665588Y-78161808D01*
X126863137Y-78222960D01*
X126869262Y-78223604D01*
X126869263Y-78223604D01*
X127062674Y-78243932D01*
X127062676Y-78243932D01*
X127068803Y-78244576D01*
X127225104Y-78230352D01*
X127268609Y-78226393D01*
X127268610Y-78226393D01*
X127274750Y-78225834D01*
X127473134Y-78167446D01*
X127483530Y-78162011D01*
X127650939Y-78074492D01*
X127650943Y-78074489D01*
X127656399Y-78071637D01*
X127817565Y-77942057D01*
X127950492Y-77783640D01*
X128050118Y-77602422D01*
X128112647Y-77405304D01*
X128113346Y-77399080D01*
X128124973Y-77295413D01*
X128130700Y-77244360D01*
X128130700Y-76732966D01*
X128115622Y-76579189D01*
X128055851Y-76381217D01*
X127958765Y-76198625D01*
X127954874Y-76193855D01*
X127954872Y-76193851D01*
X127831958Y-76043143D01*
X127831955Y-76043140D01*
X127828063Y-76038368D01*
X127821166Y-76032662D01*
X127673471Y-75910478D01*
X127673466Y-75910475D01*
X127668722Y-75906550D01*
X127574571Y-75855643D01*
X127524163Y-75805650D01*
X127508500Y-75744808D01*
X127508500Y-74382499D01*
X127528502Y-74314378D01*
X127582158Y-74267885D01*
X127634500Y-74256499D01*
X128002066Y-74256499D01*
X128037818Y-74249388D01*
X128064126Y-74244156D01*
X128064128Y-74244155D01*
X128076301Y-74241734D01*
X128086621Y-74234839D01*
X128086622Y-74234838D01*
X128150168Y-74192377D01*
X128160484Y-74185484D01*
X128216734Y-74101301D01*
X128231500Y-74027067D01*
X128231499Y-73122964D01*
X128558148Y-73122964D01*
X128571424Y-73325522D01*
X128572845Y-73331118D01*
X128572846Y-73331123D01*
X128593119Y-73410945D01*
X128621392Y-73522269D01*
X128623809Y-73527512D01*
X128660912Y-73607994D01*
X128706377Y-73706616D01*
X128709710Y-73711332D01*
X128797227Y-73835166D01*
X128823533Y-73872389D01*
X128968938Y-74014035D01*
X129137720Y-74126812D01*
X129143028Y-74129093D01*
X129143029Y-74129093D01*
X129209237Y-74157538D01*
X129263930Y-74202806D01*
X129285500Y-74273306D01*
X129285500Y-75691619D01*
X129265498Y-75759740D01*
X129217877Y-75803280D01*
X129036001Y-75898363D01*
X128874835Y-76027943D01*
X128741908Y-76186360D01*
X128642282Y-76367578D01*
X128579753Y-76564696D01*
X128579067Y-76570813D01*
X128579066Y-76570817D01*
X128574319Y-76613143D01*
X128561700Y-76725640D01*
X128561700Y-77237034D01*
X128576778Y-77390811D01*
X128636549Y-77588783D01*
X128649973Y-77614029D01*
X128726111Y-77757224D01*
X128733635Y-77771375D01*
X128737526Y-77776145D01*
X128737528Y-77776149D01*
X128860442Y-77926857D01*
X128860445Y-77926860D01*
X128864337Y-77931632D01*
X128869084Y-77935559D01*
X128869086Y-77935561D01*
X129018929Y-78059522D01*
X129018934Y-78059525D01*
X129023678Y-78063450D01*
X129029097Y-78066380D01*
X129029100Y-78066382D01*
X129200168Y-78158878D01*
X129200173Y-78158880D01*
X129205588Y-78161808D01*
X129403137Y-78222960D01*
X129409262Y-78223604D01*
X129409263Y-78223604D01*
X129602674Y-78243932D01*
X129602676Y-78243932D01*
X129608803Y-78244576D01*
X129765104Y-78230352D01*
X129808609Y-78226393D01*
X129808610Y-78226393D01*
X129814750Y-78225834D01*
X130013134Y-78167446D01*
X130023530Y-78162011D01*
X130190939Y-78074492D01*
X130190943Y-78074489D01*
X130196399Y-78071637D01*
X130357565Y-77942057D01*
X130490492Y-77783640D01*
X130590118Y-77602422D01*
X130652647Y-77405304D01*
X130653346Y-77399080D01*
X130664973Y-77295413D01*
X130670700Y-77244360D01*
X130670700Y-76732966D01*
X130655622Y-76579189D01*
X130595851Y-76381217D01*
X130498765Y-76198625D01*
X130494874Y-76193855D01*
X130494872Y-76193851D01*
X130371958Y-76043143D01*
X130371955Y-76043140D01*
X130368063Y-76038368D01*
X130361166Y-76032662D01*
X130213471Y-75910478D01*
X130213466Y-75910475D01*
X130208722Y-75906550D01*
X130114571Y-75855643D01*
X130064163Y-75805650D01*
X130048500Y-75744808D01*
X130048500Y-74277597D01*
X130068502Y-74209476D01*
X130118740Y-74166361D01*
X130118165Y-74165334D01*
X130193470Y-74123161D01*
X130295276Y-74066147D01*
X130303121Y-74059623D01*
X130446913Y-73940031D01*
X130451345Y-73936345D01*
X130491914Y-73887566D01*
X130577453Y-73784718D01*
X130577455Y-73784715D01*
X130581147Y-73780276D01*
X130680334Y-73603165D01*
X130682190Y-73597698D01*
X130682192Y-73597693D01*
X130743728Y-73416414D01*
X130743729Y-73416409D01*
X130745584Y-73410945D01*
X130746412Y-73405236D01*
X130746413Y-73405231D01*
X130762453Y-73294602D01*
X131109899Y-73294602D01*
X131111542Y-73319676D01*
X131113343Y-73331046D01*
X131160443Y-73516502D01*
X131164284Y-73527348D01*
X131244394Y-73701120D01*
X131250145Y-73711081D01*
X131360579Y-73867343D01*
X131368057Y-73876098D01*
X131505114Y-74009612D01*
X131514058Y-74016855D01*
X131673156Y-74123161D01*
X131683266Y-74128651D01*
X131859077Y-74204185D01*
X131870020Y-74207740D01*
X132056647Y-74249970D01*
X132063383Y-74250857D01*
X132077302Y-74247357D01*
X132077658Y-74246978D01*
X132080000Y-74237144D01*
X132080000Y-74231095D01*
X132334000Y-74231095D01*
X132337966Y-74244601D01*
X132351966Y-74246605D01*
X132460106Y-74230926D01*
X132471302Y-74228238D01*
X132652497Y-74166730D01*
X132662994Y-74162056D01*
X132829958Y-74068552D01*
X132839430Y-74062042D01*
X132986553Y-73939682D01*
X132994682Y-73931553D01*
X133117042Y-73784430D01*
X133123552Y-73774958D01*
X133217056Y-73607994D01*
X133221730Y-73597497D01*
X133283238Y-73416302D01*
X133285926Y-73405106D01*
X133301610Y-73296929D01*
X133299624Y-73282993D01*
X133286056Y-73279000D01*
X132352115Y-73279000D01*
X132336876Y-73283475D01*
X132335671Y-73284865D01*
X132334000Y-73292548D01*
X132334000Y-74231095D01*
X132080000Y-74231095D01*
X132080000Y-73297115D01*
X132075525Y-73281876D01*
X132074135Y-73280671D01*
X132066452Y-73279000D01*
X131126991Y-73279000D01*
X131111951Y-73283416D01*
X131109899Y-73294602D01*
X130762453Y-73294602D01*
X130774179Y-73213727D01*
X130774712Y-73210053D01*
X130776232Y-73152000D01*
X130764298Y-73022124D01*
X130762910Y-73007012D01*
X131112375Y-73007012D01*
X131114817Y-73021431D01*
X131127559Y-73025000D01*
X132061885Y-73025000D01*
X132077124Y-73020525D01*
X132078329Y-73019135D01*
X132080000Y-73011452D01*
X132080000Y-73006885D01*
X132334000Y-73006885D01*
X132338475Y-73022124D01*
X132339865Y-73023329D01*
X132347548Y-73025000D01*
X133285945Y-73025000D01*
X133300490Y-73020729D01*
X133302553Y-73008595D01*
X133297693Y-72955707D01*
X133295595Y-72944386D01*
X133243658Y-72760231D01*
X133239533Y-72749484D01*
X133154903Y-72577871D01*
X133148893Y-72568063D01*
X133034400Y-72414739D01*
X133026710Y-72406199D01*
X132886192Y-72276304D01*
X132877067Y-72269303D01*
X132715236Y-72167195D01*
X132704989Y-72161974D01*
X132527260Y-72091068D01*
X132516232Y-72087801D01*
X132351769Y-72055088D01*
X132338894Y-72056240D01*
X132334000Y-72071396D01*
X132334000Y-73006885D01*
X132080000Y-73006885D01*
X132080000Y-72071678D01*
X132076194Y-72058716D01*
X132061278Y-72056780D01*
X131925737Y-72080070D01*
X131914617Y-72083050D01*
X131735095Y-72149279D01*
X131724717Y-72154229D01*
X131560273Y-72252063D01*
X131550961Y-72258829D01*
X131407097Y-72384994D01*
X131399180Y-72393337D01*
X131280718Y-72543605D01*
X131274450Y-72553256D01*
X131185360Y-72722589D01*
X131180951Y-72733232D01*
X131124210Y-72915967D01*
X131121820Y-72927211D01*
X131112375Y-73007012D01*
X130762910Y-73007012D01*
X130758187Y-72955613D01*
X130758186Y-72955610D01*
X130757658Y-72949859D01*
X130751271Y-72927211D01*
X130704125Y-72760046D01*
X130704124Y-72760044D01*
X130702557Y-72754487D01*
X130692076Y-72733232D01*
X130615331Y-72577609D01*
X130612776Y-72572428D01*
X130491320Y-72409779D01*
X130342258Y-72271987D01*
X130337375Y-72268906D01*
X130337371Y-72268903D01*
X130191728Y-72177010D01*
X130170581Y-72163667D01*
X129982039Y-72088446D01*
X129976379Y-72087320D01*
X129976375Y-72087319D01*
X129788613Y-72049971D01*
X129788610Y-72049971D01*
X129782946Y-72048844D01*
X129777171Y-72048768D01*
X129777167Y-72048768D01*
X129675793Y-72047441D01*
X129579971Y-72046187D01*
X129574274Y-72047166D01*
X129574273Y-72047166D01*
X129486397Y-72062266D01*
X129379910Y-72080564D01*
X129189463Y-72150824D01*
X129015010Y-72254612D01*
X129010670Y-72258418D01*
X129010666Y-72258421D01*
X128888586Y-72365483D01*
X128862392Y-72388455D01*
X128736720Y-72547869D01*
X128734031Y-72552980D01*
X128734029Y-72552983D01*
X128721073Y-72577609D01*
X128642203Y-72727515D01*
X128582007Y-72921378D01*
X128558148Y-73122964D01*
X128231499Y-73122964D01*
X128231499Y-72276934D01*
X128216734Y-72202699D01*
X128190654Y-72163667D01*
X128167377Y-72128832D01*
X128160484Y-72118516D01*
X128076301Y-72062266D01*
X128002067Y-72047500D01*
X127127142Y-72047500D01*
X126251934Y-72047501D01*
X126216182Y-72054612D01*
X126189874Y-72059844D01*
X126189872Y-72059845D01*
X126177699Y-72062266D01*
X126167379Y-72069161D01*
X126167378Y-72069162D01*
X126134594Y-72091068D01*
X126093516Y-72118516D01*
X126037266Y-72202699D01*
X126022500Y-72276933D01*
X126022501Y-74027066D01*
X126037266Y-74101301D01*
X126044161Y-74111620D01*
X126044162Y-74111622D01*
X126068597Y-74148191D01*
X126093516Y-74185484D01*
X126177699Y-74241734D01*
X126251933Y-74256500D01*
X126619500Y-74256500D01*
X126687621Y-74276502D01*
X126734114Y-74330158D01*
X126745500Y-74382500D01*
X126745500Y-75691619D01*
X126725498Y-75759740D01*
X126677877Y-75803280D01*
X126496001Y-75898363D01*
X126334835Y-76027943D01*
X126201908Y-76186360D01*
X126102282Y-76367578D01*
X126039753Y-76564696D01*
X126039067Y-76570813D01*
X126039066Y-76570817D01*
X126034319Y-76613143D01*
X126021700Y-76725640D01*
X126021700Y-77237034D01*
X125603000Y-77237034D01*
X125603000Y-68296412D01*
X165367065Y-68296412D01*
X165380594Y-68502821D01*
X165431512Y-68703309D01*
X165518112Y-68891161D01*
X165637496Y-69060085D01*
X165785665Y-69204425D01*
X165790461Y-69207630D01*
X165790464Y-69207632D01*
X165869370Y-69260355D01*
X165957657Y-69319346D01*
X165962960Y-69321624D01*
X165962963Y-69321626D01*
X166142404Y-69398720D01*
X166147711Y-69401000D01*
X166245975Y-69423235D01*
X166343827Y-69445377D01*
X166343830Y-69445377D01*
X166349463Y-69446652D01*
X166355234Y-69446879D01*
X166355236Y-69446879D01*
X166418106Y-69449349D01*
X166556156Y-69454773D01*
X166658512Y-69439932D01*
X166755154Y-69425920D01*
X166755159Y-69425919D01*
X166760868Y-69425091D01*
X166766332Y-69423236D01*
X166766337Y-69423235D01*
X166951271Y-69360459D01*
X166951276Y-69360457D01*
X166956743Y-69358601D01*
X166961786Y-69355777D01*
X167132174Y-69260355D01*
X167132178Y-69260352D01*
X167137221Y-69257528D01*
X167296258Y-69125258D01*
X167428528Y-68966221D01*
X167431352Y-68961178D01*
X167431355Y-68961174D01*
X167526777Y-68790786D01*
X167526778Y-68790784D01*
X167529601Y-68785743D01*
X167531457Y-68780276D01*
X167531459Y-68780271D01*
X167594235Y-68595337D01*
X167594236Y-68595332D01*
X167596091Y-68589868D01*
X167596919Y-68584159D01*
X167596920Y-68584154D01*
X167625240Y-68388830D01*
X167625773Y-68385156D01*
X167627322Y-68326000D01*
X167615719Y-68199721D01*
X167608924Y-68125769D01*
X167608923Y-68125766D01*
X167608395Y-68120015D01*
X167600210Y-68090993D01*
X167553814Y-67926488D01*
X167553813Y-67926486D01*
X167552246Y-67920929D01*
X167545760Y-67907776D01*
X167463313Y-67740588D01*
X167463310Y-67740584D01*
X167460758Y-67735408D01*
X167438682Y-67705844D01*
X167340446Y-67574291D01*
X167340445Y-67574290D01*
X167336993Y-67569667D01*
X167185096Y-67429255D01*
X167138306Y-67399733D01*
X167015039Y-67321957D01*
X167015034Y-67321955D01*
X167010155Y-67318876D01*
X166818029Y-67242225D01*
X166812369Y-67241099D01*
X166812365Y-67241098D01*
X166620819Y-67202997D01*
X166620814Y-67202997D01*
X166615151Y-67201870D01*
X166609376Y-67201794D01*
X166609372Y-67201794D01*
X166505714Y-67200437D01*
X166408316Y-67199162D01*
X166402619Y-67200141D01*
X166402618Y-67200141D01*
X166210148Y-67233214D01*
X166204451Y-67234193D01*
X166010384Y-67305788D01*
X165832613Y-67411550D01*
X165828273Y-67415356D01*
X165828269Y-67415359D01*
X165681434Y-67544131D01*
X165677093Y-67547938D01*
X165549032Y-67710383D01*
X165546341Y-67715499D01*
X165546339Y-67715501D01*
X165533140Y-67740588D01*
X165452719Y-67893444D01*
X165391378Y-68090993D01*
X165367065Y-68296412D01*
X125603000Y-68296412D01*
X125603000Y-66342065D01*
X125623002Y-66273944D01*
X125635012Y-66258147D01*
X126200427Y-65624882D01*
X126260717Y-65587390D01*
X126294415Y-65582800D01*
X168578410Y-65582800D01*
X168646531Y-65602802D01*
G37*
%TD.AperFunction*%
%TA.AperFunction,Conductor*%
G36*
X163865170Y-77537235D02*
G01*
X163915288Y-77587521D01*
X163922582Y-77603493D01*
X163929683Y-77622435D01*
X163935063Y-77629614D01*
X163935065Y-77629617D01*
X163971422Y-77678127D01*
X164012056Y-77732344D01*
X164019233Y-77737723D01*
X164114783Y-77809335D01*
X164114786Y-77809337D01*
X164121965Y-77814717D01*
X164194331Y-77841845D01*
X164251093Y-77884484D01*
X164275794Y-77951045D01*
X164276100Y-77959826D01*
X164276100Y-78057715D01*
X164256098Y-78125836D01*
X164202442Y-78172329D01*
X164197908Y-78174094D01*
X164191545Y-78175102D01*
X164077377Y-78233274D01*
X163986774Y-78323877D01*
X163928602Y-78438045D01*
X163913600Y-78532766D01*
X163913600Y-78896434D01*
X163928602Y-78991155D01*
X163944131Y-79021632D01*
X163982232Y-79096408D01*
X163986774Y-79105323D01*
X163993785Y-79112334D01*
X163996113Y-79115538D01*
X164019972Y-79182405D01*
X164003893Y-79251557D01*
X163996113Y-79263662D01*
X163993785Y-79266866D01*
X163986774Y-79273877D01*
X163928602Y-79388045D01*
X163913600Y-79482766D01*
X163913600Y-79846434D01*
X163928602Y-79941155D01*
X163933103Y-79949988D01*
X163980335Y-80042685D01*
X163986774Y-80055323D01*
X163993785Y-80062334D01*
X163996113Y-80065538D01*
X164019972Y-80132405D01*
X164003893Y-80201557D01*
X163996113Y-80213662D01*
X163993785Y-80216866D01*
X163986774Y-80223877D01*
X163982274Y-80232709D01*
X163982273Y-80232710D01*
X163963510Y-80269534D01*
X163928602Y-80338045D01*
X163913600Y-80432766D01*
X163913600Y-80796434D01*
X163928602Y-80891155D01*
X163986774Y-81005323D01*
X164077377Y-81095926D01*
X164191545Y-81154098D01*
X164286266Y-81169100D01*
X165299170Y-81169100D01*
X165367291Y-81189102D01*
X165388265Y-81206004D01*
X165952945Y-81770683D01*
X165956083Y-81774242D01*
X165959017Y-81779680D01*
X165990256Y-81808557D01*
X165995894Y-81813769D01*
X165999460Y-81817198D01*
X166013156Y-81830894D01*
X166017390Y-81833920D01*
X166018960Y-81835250D01*
X166023005Y-81838830D01*
X166045680Y-81859791D01*
X166054168Y-81863543D01*
X166072666Y-81878605D01*
X166404395Y-82210334D01*
X166438421Y-82272646D01*
X166441300Y-82299429D01*
X166441300Y-83273156D01*
X166448002Y-83334848D01*
X166498729Y-83470164D01*
X166504109Y-83477343D01*
X166504111Y-83477346D01*
X166552326Y-83541678D01*
X166577174Y-83608184D01*
X166577500Y-83617243D01*
X166577500Y-87678331D01*
X166557498Y-87746452D01*
X166530452Y-87776528D01*
X166390635Y-87888943D01*
X166257708Y-88047360D01*
X166158082Y-88228578D01*
X166095553Y-88425696D01*
X166072501Y-88631206D01*
X166089806Y-88837278D01*
X166146807Y-89036066D01*
X166149625Y-89041548D01*
X166149626Y-89041552D01*
X166238514Y-89214509D01*
X166238517Y-89214513D01*
X166241334Y-89219995D01*
X166369786Y-89382061D01*
X166527271Y-89516091D01*
X166707789Y-89616980D01*
X166904466Y-89680884D01*
X167109809Y-89705370D01*
X167115944Y-89704898D01*
X167115946Y-89704898D01*
X167309856Y-89689977D01*
X167309860Y-89689976D01*
X167315998Y-89689504D01*
X167515178Y-89633892D01*
X167520682Y-89631112D01*
X167520684Y-89631111D01*
X167694262Y-89543431D01*
X167694264Y-89543430D01*
X167699763Y-89540652D01*
X167862722Y-89413334D01*
X167866748Y-89408670D01*
X167866751Y-89408667D01*
X167993819Y-89261457D01*
X167993820Y-89261455D01*
X167997848Y-89256789D01*
X168099995Y-89076979D01*
X168165270Y-88880753D01*
X168191189Y-88675586D01*
X168191602Y-88646000D01*
X168171422Y-88440189D01*
X168111651Y-88242217D01*
X168014565Y-88059625D01*
X168010674Y-88054855D01*
X168010672Y-88054851D01*
X167887758Y-87904143D01*
X167887755Y-87904140D01*
X167883863Y-87899368D01*
X167876966Y-87893662D01*
X167732185Y-87773889D01*
X167692446Y-87715055D01*
X167686500Y-87676804D01*
X167686500Y-83817554D01*
X167706502Y-83749433D01*
X167760158Y-83702940D01*
X167768271Y-83699572D01*
X167840564Y-83672471D01*
X167847743Y-83667091D01*
X167847746Y-83667089D01*
X167949024Y-83591185D01*
X167956204Y-83585804D01*
X167971513Y-83565377D01*
X168037489Y-83477346D01*
X168037491Y-83477343D01*
X168042871Y-83470164D01*
X168093598Y-83334848D01*
X168095505Y-83317293D01*
X168122746Y-83251731D01*
X168181109Y-83211304D01*
X168220768Y-83204900D01*
X170558971Y-83204900D01*
X170570037Y-83205422D01*
X170577488Y-83207087D01*
X170585414Y-83206838D01*
X170585415Y-83206838D01*
X170645118Y-83204962D01*
X170649075Y-83204900D01*
X170676803Y-83204900D01*
X170680728Y-83204404D01*
X170680729Y-83204404D01*
X170692575Y-83203471D01*
X170722138Y-83202542D01*
X170728534Y-83202341D01*
X170728535Y-83202341D01*
X170736458Y-83202092D01*
X170755730Y-83196493D01*
X170775091Y-83192483D01*
X170777765Y-83192145D01*
X170787136Y-83190962D01*
X170787139Y-83190961D01*
X170794994Y-83189969D01*
X170802359Y-83187053D01*
X170802363Y-83187052D01*
X170835805Y-83173811D01*
X170847038Y-83169965D01*
X170881577Y-83159931D01*
X170881581Y-83159929D01*
X170889192Y-83157718D01*
X170906471Y-83147500D01*
X170924216Y-83138806D01*
X170942874Y-83131419D01*
X170949283Y-83126763D01*
X170949286Y-83126761D01*
X170978384Y-83105620D01*
X170988304Y-83099104D01*
X171019265Y-83080794D01*
X171019268Y-83080792D01*
X171026092Y-83076756D01*
X171040280Y-83062568D01*
X171055314Y-83049727D01*
X171065133Y-83042593D01*
X171071547Y-83037933D01*
X171099528Y-83004110D01*
X171107517Y-82995331D01*
X171687406Y-82415442D01*
X171695604Y-82407982D01*
X171702047Y-82403893D01*
X171748363Y-82354572D01*
X171751118Y-82351730D01*
X171770728Y-82332120D01*
X171773166Y-82328977D01*
X171780879Y-82319946D01*
X171805495Y-82293733D01*
X171810924Y-82287952D01*
X171820596Y-82270359D01*
X171831445Y-82253844D01*
X171838880Y-82244259D01*
X171838884Y-82244253D01*
X171843743Y-82237988D01*
X171861174Y-82197707D01*
X171866390Y-82187058D01*
X171887546Y-82148576D01*
X171892539Y-82129128D01*
X171898940Y-82110435D01*
X171903763Y-82099291D01*
X171903764Y-82099288D01*
X171906909Y-82092020D01*
X171908148Y-82084199D01*
X171908149Y-82084195D01*
X171913775Y-82048671D01*
X171916183Y-82037046D01*
X171925128Y-82002209D01*
X171925129Y-82002200D01*
X171927100Y-81994524D01*
X171927100Y-81974460D01*
X171928651Y-81954749D01*
X171930550Y-81942759D01*
X171931790Y-81934930D01*
X171927659Y-81891226D01*
X171927100Y-81879369D01*
X171927100Y-81791200D01*
X171947102Y-81723079D01*
X172000758Y-81676586D01*
X172053100Y-81665200D01*
X172795356Y-81665200D01*
X172798753Y-81664831D01*
X172849197Y-81659351D01*
X172849198Y-81659351D01*
X172857048Y-81658498D01*
X172864441Y-81655726D01*
X172864443Y-81655726D01*
X172902646Y-81641404D01*
X172992364Y-81607771D01*
X172999543Y-81602391D01*
X172999546Y-81602389D01*
X173100824Y-81526485D01*
X173108004Y-81521104D01*
X173128175Y-81494189D01*
X173185033Y-81451676D01*
X173255851Y-81446650D01*
X173318145Y-81480710D01*
X173352135Y-81543041D01*
X173355000Y-81569756D01*
X173355000Y-84401644D01*
X173334998Y-84469765D01*
X173281342Y-84516258D01*
X173211068Y-84526362D01*
X173146488Y-84496868D01*
X173128179Y-84477215D01*
X173108004Y-84450296D01*
X173043088Y-84401644D01*
X172999546Y-84369011D01*
X172999543Y-84369009D01*
X172992364Y-84363629D01*
X172902646Y-84329996D01*
X172864443Y-84315674D01*
X172864441Y-84315674D01*
X172857048Y-84312902D01*
X172849198Y-84312049D01*
X172849197Y-84312049D01*
X172798753Y-84306569D01*
X172798752Y-84306569D01*
X172795356Y-84306200D01*
X169799844Y-84306200D01*
X169796448Y-84306569D01*
X169796447Y-84306569D01*
X169746003Y-84312049D01*
X169746002Y-84312049D01*
X169738152Y-84312902D01*
X169730759Y-84315674D01*
X169730757Y-84315674D01*
X169692554Y-84329996D01*
X169602836Y-84363629D01*
X169595657Y-84369009D01*
X169595654Y-84369011D01*
X169552112Y-84401644D01*
X169487196Y-84450296D01*
X169481815Y-84457476D01*
X169405911Y-84558754D01*
X169405909Y-84558757D01*
X169400529Y-84565936D01*
X169349802Y-84701252D01*
X169343100Y-84762944D01*
X169343100Y-85483456D01*
X169349802Y-85545148D01*
X169400529Y-85680464D01*
X169405909Y-85687643D01*
X169405911Y-85687646D01*
X169467026Y-85769191D01*
X169487196Y-85796104D01*
X169494376Y-85801485D01*
X169595654Y-85877389D01*
X169595657Y-85877391D01*
X169602836Y-85882771D01*
X169692554Y-85916404D01*
X169730757Y-85930726D01*
X169730759Y-85930726D01*
X169738152Y-85933498D01*
X169746002Y-85934351D01*
X169746003Y-85934351D01*
X169796447Y-85939831D01*
X169799844Y-85940200D01*
X170542100Y-85940200D01*
X170610221Y-85960202D01*
X170656714Y-86013858D01*
X170668100Y-86066200D01*
X170668100Y-89025212D01*
X170648098Y-89093333D01*
X170631195Y-89114307D01*
X169028203Y-90717300D01*
X169020000Y-90724766D01*
X169013553Y-90728857D01*
X169008125Y-90734637D01*
X169008124Y-90734638D01*
X168967222Y-90778194D01*
X168964467Y-90781036D01*
X168944873Y-90800630D01*
X168942447Y-90803758D01*
X168942443Y-90803762D01*
X168942431Y-90803777D01*
X168934726Y-90812798D01*
X168904676Y-90844798D01*
X168900856Y-90851747D01*
X168895011Y-90862379D01*
X168884154Y-90878907D01*
X168876716Y-90888496D01*
X168876714Y-90888500D01*
X168871857Y-90894761D01*
X168868708Y-90902038D01*
X168854423Y-90935048D01*
X168849200Y-90945709D01*
X168831874Y-90977225D01*
X168828054Y-90984174D01*
X168826084Y-90991847D01*
X168823064Y-91003610D01*
X168816659Y-91022316D01*
X168808691Y-91040729D01*
X168807451Y-91048556D01*
X168807451Y-91048557D01*
X168801824Y-91084087D01*
X168799416Y-91095712D01*
X168795657Y-91110354D01*
X168788500Y-91138226D01*
X168788500Y-91158289D01*
X168786949Y-91178000D01*
X168783810Y-91197819D01*
X168784556Y-91205711D01*
X168787941Y-91241523D01*
X168788500Y-91253380D01*
X168788500Y-99753739D01*
X168768498Y-99821860D01*
X168710718Y-99870148D01*
X168506463Y-99954752D01*
X168506459Y-99954754D01*
X168501889Y-99956647D01*
X168293262Y-100084494D01*
X168107203Y-100243403D01*
X167948294Y-100429462D01*
X167820447Y-100638089D01*
X167818554Y-100642659D01*
X167818552Y-100642663D01*
X167750931Y-100805916D01*
X167726811Y-100864148D01*
X167725656Y-100868960D01*
X167673272Y-101087156D01*
X167669691Y-101102071D01*
X167650493Y-101346000D01*
X167669691Y-101589929D01*
X167670845Y-101594736D01*
X167670846Y-101594742D01*
X167707052Y-101745548D01*
X167726811Y-101827852D01*
X167728704Y-101832423D01*
X167728705Y-101832425D01*
X167818397Y-102048961D01*
X167820447Y-102053911D01*
X167948294Y-102262538D01*
X168107203Y-102448597D01*
X168293262Y-102607506D01*
X168501889Y-102735353D01*
X168506459Y-102737246D01*
X168506463Y-102737248D01*
X168714310Y-102823340D01*
X168727948Y-102828989D01*
X168810252Y-102848748D01*
X168961058Y-102884954D01*
X168961064Y-102884955D01*
X168965871Y-102886109D01*
X169209800Y-102905307D01*
X169453729Y-102886109D01*
X169458536Y-102884955D01*
X169458542Y-102884954D01*
X169609348Y-102848748D01*
X169691652Y-102828989D01*
X169705290Y-102823340D01*
X169913137Y-102737248D01*
X169913141Y-102737246D01*
X169917711Y-102735353D01*
X170126338Y-102607506D01*
X170312397Y-102448597D01*
X170471306Y-102262538D01*
X170599153Y-102053911D01*
X170601204Y-102048961D01*
X170690895Y-101832425D01*
X170690896Y-101832423D01*
X170692789Y-101827852D01*
X170712548Y-101745548D01*
X170748754Y-101594742D01*
X170748755Y-101594736D01*
X170749909Y-101589929D01*
X170769107Y-101346000D01*
X170749909Y-101102071D01*
X170746329Y-101087156D01*
X170693944Y-100868960D01*
X170692789Y-100864148D01*
X170668669Y-100805916D01*
X170601048Y-100642663D01*
X170601046Y-100642659D01*
X170599153Y-100638089D01*
X170471306Y-100429462D01*
X170312397Y-100243403D01*
X170126338Y-100084494D01*
X170122120Y-100081909D01*
X170122117Y-100081907D01*
X170107664Y-100073050D01*
X170060033Y-100020402D01*
X170047500Y-99965618D01*
X170047500Y-91530688D01*
X170067502Y-91462567D01*
X170084405Y-91441593D01*
X171687397Y-89838600D01*
X171695600Y-89831134D01*
X171702047Y-89827043D01*
X171748378Y-89777706D01*
X171751133Y-89774864D01*
X171770727Y-89755270D01*
X171773157Y-89752138D01*
X171773169Y-89752123D01*
X171780874Y-89743102D01*
X171805496Y-89716882D01*
X171810924Y-89711102D01*
X171820589Y-89693521D01*
X171831446Y-89676993D01*
X171838884Y-89667404D01*
X171838886Y-89667400D01*
X171843743Y-89661139D01*
X171854816Y-89635551D01*
X171861177Y-89620852D01*
X171866400Y-89610191D01*
X171883726Y-89578675D01*
X171883727Y-89578673D01*
X171887546Y-89571726D01*
X171892537Y-89552288D01*
X171898941Y-89533584D01*
X171903760Y-89522448D01*
X171903760Y-89522447D01*
X171906909Y-89515171D01*
X171913777Y-89471809D01*
X171916184Y-89460187D01*
X171927100Y-89417674D01*
X171927100Y-89397610D01*
X171928651Y-89377899D01*
X171930550Y-89365909D01*
X171931790Y-89358080D01*
X171927659Y-89314376D01*
X171927100Y-89302519D01*
X171927100Y-86066200D01*
X171947102Y-85998079D01*
X172000758Y-85951586D01*
X172053100Y-85940200D01*
X172795356Y-85940200D01*
X172798753Y-85939831D01*
X172849197Y-85934351D01*
X172849198Y-85934351D01*
X172857048Y-85933498D01*
X172864441Y-85930726D01*
X172864443Y-85930726D01*
X172902646Y-85916404D01*
X172992364Y-85882771D01*
X172999543Y-85877391D01*
X172999546Y-85877389D01*
X173100824Y-85801485D01*
X173108004Y-85796104D01*
X173128175Y-85769189D01*
X173185033Y-85726676D01*
X173255851Y-85721650D01*
X173318145Y-85755710D01*
X173352135Y-85818041D01*
X173355000Y-85844756D01*
X173355000Y-122604410D01*
X173334998Y-122672531D01*
X173318095Y-122693505D01*
X172833105Y-123178495D01*
X172770793Y-123212521D01*
X172744010Y-123215400D01*
X170027600Y-123215400D01*
X169240200Y-124002800D01*
X169240200Y-128598810D01*
X169220198Y-128666931D01*
X169203295Y-128687905D01*
X168819905Y-129071295D01*
X168757593Y-129105321D01*
X168730810Y-129108200D01*
X155093790Y-129108200D01*
X155025669Y-129088198D01*
X155004695Y-129071295D01*
X154392705Y-128459305D01*
X154358679Y-128396993D01*
X154355800Y-128370210D01*
X154355800Y-128097942D01*
X155256001Y-128097942D01*
X155256370Y-128104760D01*
X155261759Y-128154376D01*
X155265388Y-128169635D01*
X155309511Y-128287335D01*
X155318043Y-128302920D01*
X155392787Y-128402650D01*
X155405350Y-128415213D01*
X155505080Y-128489957D01*
X155520665Y-128498489D01*
X155638371Y-128542615D01*
X155653617Y-128546240D01*
X155703242Y-128551631D01*
X155710056Y-128552000D01*
X156064885Y-128552000D01*
X156080124Y-128547525D01*
X156081329Y-128546135D01*
X156083000Y-128538452D01*
X156083000Y-128533884D01*
X156337000Y-128533884D01*
X156341475Y-128549123D01*
X156342865Y-128550328D01*
X156350548Y-128551999D01*
X156709942Y-128551999D01*
X156716760Y-128551630D01*
X156766376Y-128546241D01*
X156781635Y-128542612D01*
X156899335Y-128498489D01*
X156914920Y-128489957D01*
X157014650Y-128415213D01*
X157027213Y-128402650D01*
X157101957Y-128302920D01*
X157110489Y-128287335D01*
X157154615Y-128169629D01*
X157158240Y-128154383D01*
X157163631Y-128104758D01*
X157164000Y-128097944D01*
X157164000Y-127955615D01*
X157159525Y-127940376D01*
X157158135Y-127939171D01*
X157150452Y-127937500D01*
X156355115Y-127937500D01*
X156339876Y-127941975D01*
X156338671Y-127943365D01*
X156337000Y-127951048D01*
X156337000Y-128533884D01*
X156083000Y-128533884D01*
X156083000Y-127955615D01*
X156078525Y-127940376D01*
X156077135Y-127939171D01*
X156069452Y-127937500D01*
X155274116Y-127937500D01*
X155258877Y-127941975D01*
X155257672Y-127943365D01*
X155256001Y-127951048D01*
X155256001Y-128097942D01*
X154355800Y-128097942D01*
X154355800Y-127665385D01*
X155256000Y-127665385D01*
X155260475Y-127680624D01*
X155261865Y-127681829D01*
X155269548Y-127683500D01*
X156064885Y-127683500D01*
X156080124Y-127679025D01*
X156081329Y-127677635D01*
X156083000Y-127669952D01*
X156083000Y-127665385D01*
X156337000Y-127665385D01*
X156341475Y-127680624D01*
X156342865Y-127681829D01*
X156350548Y-127683500D01*
X157145884Y-127683500D01*
X157161123Y-127679025D01*
X157162328Y-127677635D01*
X157163999Y-127669952D01*
X157163999Y-127523058D01*
X157163630Y-127516240D01*
X157158241Y-127466624D01*
X157154612Y-127451365D01*
X157110489Y-127333665D01*
X157101957Y-127318080D01*
X157027213Y-127218350D01*
X157014650Y-127205787D01*
X156914920Y-127131043D01*
X156899335Y-127122511D01*
X156781629Y-127078385D01*
X156766383Y-127074760D01*
X156716758Y-127069369D01*
X156709944Y-127069000D01*
X156355115Y-127069000D01*
X156339876Y-127073475D01*
X156338671Y-127074865D01*
X156337000Y-127082548D01*
X156337000Y-127665385D01*
X156083000Y-127665385D01*
X156083000Y-127087116D01*
X156078525Y-127071877D01*
X156077135Y-127070672D01*
X156069452Y-127069001D01*
X155710058Y-127069001D01*
X155703240Y-127069370D01*
X155653624Y-127074759D01*
X155638365Y-127078388D01*
X155520665Y-127122511D01*
X155505080Y-127131043D01*
X155405350Y-127205787D01*
X155392787Y-127218350D01*
X155318043Y-127318080D01*
X155309511Y-127333665D01*
X155265385Y-127451371D01*
X155261760Y-127466617D01*
X155256369Y-127516242D01*
X155256000Y-127523056D01*
X155256000Y-127665385D01*
X154355800Y-127665385D01*
X154355800Y-125644585D01*
X155255500Y-125644585D01*
X155255501Y-126226414D01*
X155255870Y-126229808D01*
X155255870Y-126229814D01*
X155259031Y-126258911D01*
X155262119Y-126287342D01*
X155312217Y-126420982D01*
X155317601Y-126428165D01*
X155317601Y-126428166D01*
X155353650Y-126476266D01*
X155397811Y-126535189D01*
X155404992Y-126540571D01*
X155503910Y-126614706D01*
X155512018Y-126620783D01*
X155520426Y-126623935D01*
X155638260Y-126668108D01*
X155638262Y-126668109D01*
X155645658Y-126670881D01*
X155706585Y-126677500D01*
X156209926Y-126677500D01*
X156713414Y-126677499D01*
X156716808Y-126677130D01*
X156716814Y-126677130D01*
X156766483Y-126671735D01*
X156766486Y-126671734D01*
X156774342Y-126670881D01*
X156789201Y-126665311D01*
X156899574Y-126623935D01*
X156907982Y-126620783D01*
X156916091Y-126614706D01*
X157015008Y-126540571D01*
X157022189Y-126535189D01*
X157066350Y-126476266D01*
X157102399Y-126428166D01*
X157102399Y-126428165D01*
X157107783Y-126420982D01*
X157157881Y-126287342D01*
X157164500Y-126226415D01*
X157164499Y-125644586D01*
X157164130Y-125641186D01*
X157158735Y-125591517D01*
X157158734Y-125591511D01*
X157157881Y-125583658D01*
X157145531Y-125550712D01*
X157110935Y-125458426D01*
X157107783Y-125450018D01*
X157059967Y-125386217D01*
X157027571Y-125342992D01*
X157022189Y-125335811D01*
X156962094Y-125290772D01*
X156915166Y-125255601D01*
X156915165Y-125255601D01*
X156907982Y-125250217D01*
X156789510Y-125205805D01*
X156732749Y-125163167D01*
X156708048Y-125096606D01*
X156723255Y-125027256D01*
X156758882Y-124986474D01*
X156802439Y-124954302D01*
X156810010Y-124948710D01*
X156891209Y-124838776D01*
X156936493Y-124709827D01*
X156939500Y-124678015D01*
X156939499Y-124169386D01*
X156938601Y-124159875D01*
X156937216Y-124145222D01*
X156937215Y-124145218D01*
X156936493Y-124137573D01*
X156891209Y-124008624D01*
X156810010Y-123898690D01*
X156700076Y-123817491D01*
X156571127Y-123772207D01*
X156563485Y-123771485D01*
X156563482Y-123771484D01*
X156548579Y-123770076D01*
X156539315Y-123769200D01*
X156210223Y-123769200D01*
X155880686Y-123769201D01*
X155877738Y-123769480D01*
X155877729Y-123769480D01*
X155856522Y-123771484D01*
X155856520Y-123771484D01*
X155848873Y-123772207D01*
X155719924Y-123817491D01*
X155609990Y-123898690D01*
X155528791Y-124008624D01*
X155483507Y-124137573D01*
X155480500Y-124169385D01*
X155480501Y-124678014D01*
X155483507Y-124709827D01*
X155528791Y-124838776D01*
X155609990Y-124948710D01*
X155617561Y-124954302D01*
X155661118Y-124986474D01*
X155704028Y-125043035D01*
X155709548Y-125113817D01*
X155675924Y-125176346D01*
X155630491Y-125205805D01*
X155512018Y-125250217D01*
X155504835Y-125255601D01*
X155504834Y-125255601D01*
X155457906Y-125290772D01*
X155397811Y-125335811D01*
X155392429Y-125342992D01*
X155360034Y-125386217D01*
X155312217Y-125450018D01*
X155309065Y-125458426D01*
X155274288Y-125551197D01*
X155262119Y-125583658D01*
X155255500Y-125644585D01*
X154355800Y-125644585D01*
X154355800Y-123469400D01*
X151447193Y-120636016D01*
X151412356Y-120574156D01*
X151409117Y-120546438D01*
X151398605Y-118585969D01*
X151358600Y-111125000D01*
X150926800Y-110693200D01*
X149003550Y-110693200D01*
X148935429Y-110673198D01*
X148888936Y-110619542D01*
X148878832Y-110549268D01*
X148908326Y-110484688D01*
X148914455Y-110478105D01*
X149369611Y-110022949D01*
X149380700Y-110013094D01*
X149382044Y-110012035D01*
X149407659Y-109991841D01*
X149413013Y-109984094D01*
X149413017Y-109984090D01*
X149441328Y-109943128D01*
X149443629Y-109939908D01*
X149473210Y-109899858D01*
X149473211Y-109899856D01*
X149478809Y-109892277D01*
X149481223Y-109885402D01*
X149485364Y-109879411D01*
X149503236Y-109822899D01*
X149504466Y-109819215D01*
X149520971Y-109772216D01*
X149520972Y-109772212D01*
X149524092Y-109763327D01*
X149524375Y-109756127D01*
X149524409Y-109755951D01*
X149526575Y-109749103D01*
X149527100Y-109742432D01*
X149527100Y-109689252D01*
X149527197Y-109684305D01*
X149529088Y-109636175D01*
X149529458Y-109626763D01*
X149527561Y-109619608D01*
X149527100Y-109611233D01*
X149527100Y-103107656D01*
X149527973Y-103092847D01*
X149530900Y-103068115D01*
X149532007Y-103058762D01*
X149525864Y-103025125D01*
X149521371Y-103000520D01*
X149520722Y-102996618D01*
X149513316Y-102947364D01*
X149513315Y-102947361D01*
X149511915Y-102938049D01*
X149508762Y-102931482D01*
X149507453Y-102924317D01*
X149480138Y-102871733D01*
X149478388Y-102868230D01*
X149452754Y-102814847D01*
X149447859Y-102809552D01*
X149447766Y-102809413D01*
X149444452Y-102803034D01*
X149440106Y-102797946D01*
X149402524Y-102760364D01*
X149399094Y-102756798D01*
X149377034Y-102732934D01*
X149359983Y-102714488D01*
X149353583Y-102710770D01*
X149347323Y-102705163D01*
X148923549Y-102281389D01*
X148913694Y-102270300D01*
X148904250Y-102258321D01*
X148892441Y-102243341D01*
X148863003Y-102222995D01*
X148843706Y-102209658D01*
X148840513Y-102207376D01*
X148792876Y-102172191D01*
X148786003Y-102169777D01*
X148780011Y-102165636D01*
X148723522Y-102147771D01*
X148719801Y-102146529D01*
X148663926Y-102126907D01*
X148656722Y-102126624D01*
X148656551Y-102126591D01*
X148649703Y-102124425D01*
X148643032Y-102123900D01*
X148619868Y-102123900D01*
X148551747Y-102103898D01*
X148518517Y-102072760D01*
X148509802Y-102060961D01*
X148504210Y-102053390D01*
X148394276Y-101972191D01*
X148265327Y-101926907D01*
X148257685Y-101926185D01*
X148257682Y-101926184D01*
X148242779Y-101924776D01*
X148233515Y-101923900D01*
X147904423Y-101923900D01*
X147574886Y-101923901D01*
X147571938Y-101924180D01*
X147571929Y-101924180D01*
X147550722Y-101926184D01*
X147550720Y-101926184D01*
X147543073Y-101926907D01*
X147414124Y-101972191D01*
X147304190Y-102053390D01*
X147298598Y-102060961D01*
X147289883Y-102072760D01*
X147233322Y-102115670D01*
X147188532Y-102123900D01*
X147070468Y-102123900D01*
X147002347Y-102103898D01*
X146969117Y-102072760D01*
X146960402Y-102060961D01*
X146954810Y-102053390D01*
X146844876Y-101972191D01*
X146715927Y-101926907D01*
X146708285Y-101926185D01*
X146708282Y-101926184D01*
X146693379Y-101924776D01*
X146684115Y-101923900D01*
X146355023Y-101923900D01*
X146025486Y-101923901D01*
X146022538Y-101924180D01*
X146022529Y-101924180D01*
X146001322Y-101926184D01*
X146001320Y-101926184D01*
X145993673Y-101926907D01*
X145864724Y-101972191D01*
X145754790Y-102053390D01*
X145749198Y-102060961D01*
X145740483Y-102072760D01*
X145683922Y-102115670D01*
X145639132Y-102123900D01*
X145482820Y-102123900D01*
X145414699Y-102103898D01*
X145381994Y-102073465D01*
X145377928Y-102068040D01*
X145372544Y-102060856D01*
X145361137Y-102052307D01*
X145318621Y-101995448D01*
X145310700Y-101951479D01*
X145310700Y-101073659D01*
X145330702Y-101005538D01*
X145378324Y-100961998D01*
X145436399Y-100931637D01*
X145597565Y-100802057D01*
X145730492Y-100643640D01*
X145830118Y-100462422D01*
X145877073Y-100314401D01*
X145916735Y-100255518D01*
X145981937Y-100227425D01*
X145997174Y-100226500D01*
X151958788Y-100226500D01*
X152026909Y-100246502D01*
X152047883Y-100263405D01*
X155791595Y-104007118D01*
X155825621Y-104069430D01*
X155828500Y-104096213D01*
X155828500Y-122040066D01*
X155808498Y-122108187D01*
X155754842Y-122154680D01*
X155744255Y-122158947D01*
X155719924Y-122167491D01*
X155712354Y-122173083D01*
X155712351Y-122173084D01*
X155627205Y-122235975D01*
X155609990Y-122248690D01*
X155528791Y-122358624D01*
X155483507Y-122487573D01*
X155480500Y-122519385D01*
X155480501Y-123028014D01*
X155480780Y-123030962D01*
X155480780Y-123030971D01*
X155482784Y-123052178D01*
X155483507Y-123059827D01*
X155528791Y-123188776D01*
X155609990Y-123298710D01*
X155719924Y-123379909D01*
X155848873Y-123425193D01*
X155856515Y-123425915D01*
X155856518Y-123425916D01*
X155871421Y-123427324D01*
X155880685Y-123428200D01*
X156209777Y-123428200D01*
X156539314Y-123428199D01*
X156542262Y-123427920D01*
X156542271Y-123427920D01*
X156563478Y-123425916D01*
X156563480Y-123425916D01*
X156571127Y-123425193D01*
X156700076Y-123379909D01*
X156810010Y-123298710D01*
X156891209Y-123188776D01*
X156936493Y-123059827D01*
X156939500Y-123028015D01*
X156939499Y-122519386D01*
X156936493Y-122487573D01*
X156891209Y-122358624D01*
X156810010Y-122248690D01*
X156792795Y-122235975D01*
X156707649Y-122173084D01*
X156707646Y-122173083D01*
X156700076Y-122167491D01*
X156675750Y-122158948D01*
X156618106Y-122117505D01*
X156592018Y-122051476D01*
X156591500Y-122040066D01*
X156591500Y-116776876D01*
X160170372Y-116776876D01*
X160170626Y-116783325D01*
X160171417Y-116803459D01*
X160171417Y-116803462D01*
X160179510Y-117009455D01*
X160181516Y-117060524D01*
X160232516Y-117339772D01*
X160238010Y-117356239D01*
X160316904Y-117592714D01*
X160322353Y-117609048D01*
X160324346Y-117613036D01*
X160439003Y-117842500D01*
X160449236Y-117862980D01*
X160610631Y-118096500D01*
X160627432Y-118114675D01*
X160755854Y-118253601D01*
X160803320Y-118304950D01*
X160806774Y-118307762D01*
X161020001Y-118481356D01*
X161020005Y-118481359D01*
X161023458Y-118484170D01*
X161266652Y-118630585D01*
X161270747Y-118632319D01*
X161270749Y-118632320D01*
X161453820Y-118709840D01*
X161528049Y-118741272D01*
X161532342Y-118742410D01*
X161532347Y-118742412D01*
X161675898Y-118780473D01*
X161802435Y-118814024D01*
X162084334Y-118847389D01*
X162368122Y-118840701D01*
X162372517Y-118839969D01*
X162372522Y-118839969D01*
X162643734Y-118794827D01*
X162643738Y-118794826D01*
X162648136Y-118794094D01*
X162825887Y-118737878D01*
X162914544Y-118709840D01*
X162914546Y-118709839D01*
X162918790Y-118708497D01*
X162922801Y-118706571D01*
X162922806Y-118706569D01*
X163170665Y-118587549D01*
X163170666Y-118587548D01*
X163174684Y-118585619D01*
X163330724Y-118481356D01*
X163407002Y-118430389D01*
X163407006Y-118430386D01*
X163410710Y-118427911D01*
X163414027Y-118424940D01*
X163414031Y-118424937D01*
X163618845Y-118241490D01*
X163622161Y-118238520D01*
X163804817Y-118021225D01*
X163829120Y-117982257D01*
X163952669Y-117784152D01*
X163952671Y-117784149D01*
X163955033Y-117780361D01*
X163959336Y-117770629D01*
X164010678Y-117654494D01*
X164069813Y-117520734D01*
X164146866Y-117247525D01*
X164171983Y-117060524D01*
X164184227Y-116969367D01*
X164184228Y-116969359D01*
X164184654Y-116966185D01*
X164188620Y-116840000D01*
X164168571Y-116556842D01*
X164166982Y-116549459D01*
X164161259Y-116522876D01*
X168171372Y-116522876D01*
X168171547Y-116527327D01*
X168172417Y-116549459D01*
X168172417Y-116549462D01*
X168182023Y-116793968D01*
X168182516Y-116806524D01*
X168233516Y-117085772D01*
X168234925Y-117089995D01*
X168318257Y-117339772D01*
X168323353Y-117355048D01*
X168344726Y-117397821D01*
X168447524Y-117603552D01*
X168450236Y-117608980D01*
X168611631Y-117842500D01*
X168633046Y-117865667D01*
X168779361Y-118023949D01*
X168804320Y-118050950D01*
X168807774Y-118053762D01*
X169021001Y-118227356D01*
X169021005Y-118227359D01*
X169024458Y-118230170D01*
X169042961Y-118241310D01*
X169223118Y-118349773D01*
X169267652Y-118376585D01*
X169271747Y-118378319D01*
X169271749Y-118378320D01*
X169515078Y-118481356D01*
X169529049Y-118487272D01*
X169533342Y-118488410D01*
X169533347Y-118488412D01*
X169676898Y-118526473D01*
X169803435Y-118560024D01*
X170085334Y-118593389D01*
X170369122Y-118586701D01*
X170373517Y-118585969D01*
X170373522Y-118585969D01*
X170644734Y-118540827D01*
X170644738Y-118540826D01*
X170649136Y-118540094D01*
X170834863Y-118481356D01*
X170915544Y-118455840D01*
X170915546Y-118455839D01*
X170919790Y-118454497D01*
X170923801Y-118452571D01*
X170923806Y-118452569D01*
X171171665Y-118333549D01*
X171171666Y-118333548D01*
X171175684Y-118331619D01*
X171327513Y-118230170D01*
X171408002Y-118176389D01*
X171408006Y-118176386D01*
X171411710Y-118173911D01*
X171415027Y-118170940D01*
X171415031Y-118170937D01*
X171619845Y-117987490D01*
X171623161Y-117984520D01*
X171805817Y-117767225D01*
X171901978Y-117613036D01*
X171953669Y-117530152D01*
X171953671Y-117530149D01*
X171956033Y-117526361D01*
X172070813Y-117266734D01*
X172084754Y-117217305D01*
X172107534Y-117136530D01*
X172147866Y-116993525D01*
X172172395Y-116810903D01*
X172185227Y-116715367D01*
X172185228Y-116715359D01*
X172185654Y-116712185D01*
X172187324Y-116659055D01*
X172189519Y-116589222D01*
X172189519Y-116589217D01*
X172189620Y-116586000D01*
X172187556Y-116556842D01*
X172173480Y-116358052D01*
X172169571Y-116302842D01*
X172151081Y-116216957D01*
X172110761Y-116029681D01*
X172110761Y-116029679D01*
X172109825Y-116025334D01*
X172011574Y-115759013D01*
X171876778Y-115509192D01*
X171708127Y-115280856D01*
X171508986Y-115078562D01*
X171398424Y-114994184D01*
X171286872Y-114909050D01*
X171286868Y-114909047D01*
X171283327Y-114906345D01*
X171035655Y-114767641D01*
X171031506Y-114766036D01*
X171031502Y-114766034D01*
X170871830Y-114704262D01*
X170770909Y-114665219D01*
X170766588Y-114664217D01*
X170766580Y-114664215D01*
X170584110Y-114621922D01*
X170494374Y-114601122D01*
X170211566Y-114576628D01*
X170207131Y-114576872D01*
X170207127Y-114576872D01*
X170100718Y-114582728D01*
X169928128Y-114592226D01*
X169923768Y-114593093D01*
X169923762Y-114593094D01*
X169787296Y-114620239D01*
X169649715Y-114647606D01*
X169645505Y-114649084D01*
X169645503Y-114649085D01*
X169594996Y-114666822D01*
X169381884Y-114741662D01*
X169377933Y-114743715D01*
X169377927Y-114743717D01*
X169164202Y-114854738D01*
X169129976Y-114872517D01*
X169126361Y-114875100D01*
X169126355Y-114875104D01*
X168980428Y-114979386D01*
X168899020Y-115037561D01*
X168693623Y-115233501D01*
X168690867Y-115236997D01*
X168690866Y-115236998D01*
X168520638Y-115452930D01*
X168517882Y-115456426D01*
X168489314Y-115505610D01*
X168377540Y-115698042D01*
X168377537Y-115698048D01*
X168375306Y-115701889D01*
X168373636Y-115706012D01*
X168270411Y-115960861D01*
X168270408Y-115960869D01*
X168268738Y-115964993D01*
X168200305Y-116240488D01*
X168171372Y-116522876D01*
X164161259Y-116522876D01*
X164109761Y-116283681D01*
X164109761Y-116283679D01*
X164108825Y-116279334D01*
X164010574Y-116013013D01*
X164008460Y-116009095D01*
X163877891Y-115767108D01*
X163875778Y-115763192D01*
X163707127Y-115534856D01*
X163629920Y-115456426D01*
X163609378Y-115435560D01*
X163507986Y-115332562D01*
X163378185Y-115233501D01*
X163285872Y-115163050D01*
X163285868Y-115163047D01*
X163282327Y-115160345D01*
X163034655Y-115021641D01*
X163030506Y-115020036D01*
X163030502Y-115020034D01*
X162870830Y-114958262D01*
X162769909Y-114919219D01*
X162765588Y-114918217D01*
X162765580Y-114918215D01*
X162579583Y-114875104D01*
X162493374Y-114855122D01*
X162210566Y-114830628D01*
X162206131Y-114830872D01*
X162206127Y-114830872D01*
X162099718Y-114836728D01*
X161927128Y-114846226D01*
X161922768Y-114847093D01*
X161922762Y-114847094D01*
X161794955Y-114872517D01*
X161648715Y-114901606D01*
X161644505Y-114903084D01*
X161644503Y-114903085D01*
X161593996Y-114920822D01*
X161380884Y-114995662D01*
X161376933Y-114997715D01*
X161376927Y-114997717D01*
X161215170Y-115081743D01*
X161128976Y-115126517D01*
X161125361Y-115129100D01*
X161125355Y-115129104D01*
X161081638Y-115160345D01*
X160898020Y-115291561D01*
X160692623Y-115487501D01*
X160689867Y-115490997D01*
X160689866Y-115490998D01*
X160655291Y-115534856D01*
X160516882Y-115710426D01*
X160486233Y-115763192D01*
X160376540Y-115952042D01*
X160376537Y-115952048D01*
X160374306Y-115955889D01*
X160372636Y-115960012D01*
X160269411Y-116214861D01*
X160269408Y-116214869D01*
X160267738Y-116218993D01*
X160199305Y-116494488D01*
X160170372Y-116776876D01*
X156591500Y-116776876D01*
X156591500Y-103940135D01*
X156594086Y-103915836D01*
X156594154Y-103914398D01*
X156596345Y-103904220D01*
X156592373Y-103870658D01*
X156592021Y-103864680D01*
X156591928Y-103864688D01*
X156591500Y-103859510D01*
X156591500Y-103854308D01*
X156588312Y-103835154D01*
X156587477Y-103829289D01*
X156582642Y-103788433D01*
X156582642Y-103788432D01*
X156581418Y-103778093D01*
X156577433Y-103769794D01*
X156575922Y-103760717D01*
X156551442Y-103715349D01*
X156548761Y-103710086D01*
X156529873Y-103670750D01*
X156529870Y-103670746D01*
X156526440Y-103663602D01*
X156522830Y-103659308D01*
X156520898Y-103657376D01*
X156519111Y-103655427D01*
X156519082Y-103655374D01*
X156519212Y-103655254D01*
X156518710Y-103654685D01*
X156515612Y-103648943D01*
X156475792Y-103612133D01*
X156472227Y-103608704D01*
X155528351Y-102664828D01*
X162575801Y-102664828D01*
X162577009Y-102677088D01*
X162588115Y-102732931D01*
X162597433Y-102755427D01*
X162639783Y-102818808D01*
X162656992Y-102836017D01*
X162720375Y-102878368D01*
X162742866Y-102887684D01*
X162798715Y-102898793D01*
X162810970Y-102900000D01*
X163984685Y-102900000D01*
X163999924Y-102895525D01*
X164001129Y-102894135D01*
X164002800Y-102886452D01*
X164002800Y-102881884D01*
X164256800Y-102881884D01*
X164261275Y-102897123D01*
X164262665Y-102898328D01*
X164270348Y-102899999D01*
X165448628Y-102899999D01*
X165460888Y-102898791D01*
X165516731Y-102887685D01*
X165539227Y-102878367D01*
X165602608Y-102836017D01*
X165619817Y-102818808D01*
X165662168Y-102755425D01*
X165671484Y-102732934D01*
X165682593Y-102677085D01*
X165683800Y-102664830D01*
X165683800Y-101491115D01*
X165679325Y-101475876D01*
X165677935Y-101474671D01*
X165670252Y-101473000D01*
X164274915Y-101473000D01*
X164259676Y-101477475D01*
X164258471Y-101478865D01*
X164256800Y-101486548D01*
X164256800Y-102881884D01*
X164002800Y-102881884D01*
X164002800Y-101491115D01*
X163998325Y-101475876D01*
X163996935Y-101474671D01*
X163989252Y-101473000D01*
X162593916Y-101473000D01*
X162578677Y-101477475D01*
X162577472Y-101478865D01*
X162575801Y-101486548D01*
X162575801Y-102664828D01*
X155528351Y-102664828D01*
X154064408Y-101200885D01*
X162575800Y-101200885D01*
X162580275Y-101216124D01*
X162581665Y-101217329D01*
X162589348Y-101219000D01*
X163984685Y-101219000D01*
X163999924Y-101214525D01*
X164001129Y-101213135D01*
X164002800Y-101205452D01*
X164002800Y-101200885D01*
X164256800Y-101200885D01*
X164261275Y-101216124D01*
X164262665Y-101217329D01*
X164270348Y-101219000D01*
X165665684Y-101219000D01*
X165680923Y-101214525D01*
X165682128Y-101213135D01*
X165683799Y-101205452D01*
X165683799Y-100027172D01*
X165682591Y-100014912D01*
X165671485Y-99959069D01*
X165662167Y-99936573D01*
X165619817Y-99873192D01*
X165602608Y-99855983D01*
X165539225Y-99813632D01*
X165516734Y-99804316D01*
X165460885Y-99793207D01*
X165448630Y-99792000D01*
X164274915Y-99792000D01*
X164259676Y-99796475D01*
X164258471Y-99797865D01*
X164256800Y-99805548D01*
X164256800Y-101200885D01*
X164002800Y-101200885D01*
X164002800Y-99810116D01*
X163998325Y-99794877D01*
X163996935Y-99793672D01*
X163989252Y-99792001D01*
X162810972Y-99792001D01*
X162798712Y-99793209D01*
X162742869Y-99804315D01*
X162720373Y-99813633D01*
X162656992Y-99855983D01*
X162639783Y-99873192D01*
X162597432Y-99936575D01*
X162588116Y-99959066D01*
X162577007Y-100014915D01*
X162575800Y-100027170D01*
X162575800Y-101200885D01*
X154064408Y-101200885D01*
X152477044Y-99613521D01*
X152461685Y-99594505D01*
X152460719Y-99593444D01*
X152455071Y-99584696D01*
X152428528Y-99563771D01*
X152424053Y-99559794D01*
X152423992Y-99559865D01*
X152420035Y-99556512D01*
X152416352Y-99552829D01*
X152400561Y-99541545D01*
X152395815Y-99537982D01*
X152363507Y-99512512D01*
X152363506Y-99512511D01*
X152355330Y-99506066D01*
X152346643Y-99503015D01*
X152339157Y-99497666D01*
X152329181Y-99494683D01*
X152329180Y-99494682D01*
X152289789Y-99482902D01*
X152284157Y-99481072D01*
X152235498Y-99463984D01*
X152229909Y-99463500D01*
X152227198Y-99463500D01*
X152224531Y-99463385D01*
X152224468Y-99463366D01*
X152224475Y-99463192D01*
X152223729Y-99463145D01*
X152217476Y-99461275D01*
X152168692Y-99463192D01*
X152163322Y-99463403D01*
X152158375Y-99463500D01*
X145996538Y-99463500D01*
X145928417Y-99443498D01*
X145881924Y-99389842D01*
X145875916Y-99373918D01*
X145837632Y-99247117D01*
X145837632Y-99247116D01*
X145835851Y-99241217D01*
X145738765Y-99058625D01*
X145734874Y-99053855D01*
X145734872Y-99053851D01*
X145611958Y-98903143D01*
X145611955Y-98903140D01*
X145608063Y-98898368D01*
X145595462Y-98887943D01*
X145531385Y-98834935D01*
X145491647Y-98776102D01*
X145485700Y-98737850D01*
X145485700Y-92977003D01*
X166486733Y-92977003D01*
X166493565Y-92986749D01*
X166522860Y-93011681D01*
X166532940Y-93018687D01*
X166702612Y-93113514D01*
X166713851Y-93118424D01*
X166898715Y-93178490D01*
X166910689Y-93181123D01*
X167103708Y-93204139D01*
X167115957Y-93204396D01*
X167309769Y-93189483D01*
X167321849Y-93187352D01*
X167509061Y-93135081D01*
X167520494Y-93130647D01*
X167693994Y-93043006D01*
X167704353Y-93036432D01*
X167767814Y-92986851D01*
X167776285Y-92975035D01*
X167769749Y-92963354D01*
X167144812Y-92338417D01*
X167130868Y-92330803D01*
X167129035Y-92330934D01*
X167122420Y-92335185D01*
X166494109Y-92963496D01*
X166486733Y-92977003D01*
X145485700Y-92977003D01*
X145485700Y-92137357D01*
X166073519Y-92137357D01*
X166089783Y-92331049D01*
X166091997Y-92343108D01*
X166145576Y-92529959D01*
X166150092Y-92541364D01*
X166238935Y-92714235D01*
X166245587Y-92724556D01*
X166291040Y-92781904D01*
X166303031Y-92790375D01*
X166314476Y-92783919D01*
X166939583Y-92158812D01*
X166945961Y-92147132D01*
X167316803Y-92147132D01*
X167316934Y-92148965D01*
X167321185Y-92155580D01*
X167949725Y-92784120D01*
X167963352Y-92791561D01*
X167972917Y-92784907D01*
X167993409Y-92761167D01*
X168000483Y-92751138D01*
X168096489Y-92582138D01*
X168101483Y-92570922D01*
X168162834Y-92386494D01*
X168165554Y-92374523D01*
X168190244Y-92179075D01*
X168190736Y-92172048D01*
X168191051Y-92149523D01*
X168190756Y-92142494D01*
X168171531Y-91946419D01*
X168169148Y-91934384D01*
X168112968Y-91748308D01*
X168108294Y-91736967D01*
X168017042Y-91565347D01*
X168010250Y-91555125D01*
X167973288Y-91509806D01*
X167960944Y-91501343D01*
X167949969Y-91507636D01*
X167324417Y-92133188D01*
X167316803Y-92147132D01*
X166945961Y-92147132D01*
X166947197Y-92144868D01*
X166947066Y-92143035D01*
X166942815Y-92136420D01*
X166314696Y-91508301D01*
X166301311Y-91500992D01*
X166291385Y-91508001D01*
X166262081Y-91542925D01*
X166255156Y-91553039D01*
X166161510Y-91723381D01*
X166156682Y-91734645D01*
X166097906Y-91919931D01*
X166095358Y-91931920D01*
X166073690Y-92125088D01*
X166073519Y-92137357D01*
X145485700Y-92137357D01*
X145485700Y-91317062D01*
X166487502Y-91317062D01*
X166493877Y-91328272D01*
X167119188Y-91953583D01*
X167133132Y-91961197D01*
X167134965Y-91961066D01*
X167141580Y-91956815D01*
X167769542Y-91328853D01*
X167776784Y-91315591D01*
X167769595Y-91305486D01*
X167728990Y-91271895D01*
X167718819Y-91265034D01*
X167547838Y-91172585D01*
X167536531Y-91167833D01*
X167350849Y-91110354D01*
X167338836Y-91107888D01*
X167145522Y-91087570D01*
X167133254Y-91087485D01*
X166939683Y-91105101D01*
X166927634Y-91107399D01*
X166741163Y-91162281D01*
X166729795Y-91166874D01*
X166557534Y-91256930D01*
X166547276Y-91263642D01*
X166495970Y-91304894D01*
X166487502Y-91317062D01*
X145485700Y-91317062D01*
X145485700Y-84564738D01*
X145505702Y-84496617D01*
X145522605Y-84475643D01*
X146532963Y-83465285D01*
X158819900Y-83465285D01*
X158819901Y-84123914D01*
X158820180Y-84126862D01*
X158820180Y-84126871D01*
X158822184Y-84148078D01*
X158822907Y-84155727D01*
X158868191Y-84284676D01*
X158949390Y-84394610D01*
X159059324Y-84475809D01*
X159188273Y-84521093D01*
X159195915Y-84521815D01*
X159195918Y-84521816D01*
X159210821Y-84523224D01*
X159220085Y-84524100D01*
X159474228Y-84524100D01*
X159728714Y-84524099D01*
X159731662Y-84523820D01*
X159731671Y-84523820D01*
X159752878Y-84521816D01*
X159752880Y-84521816D01*
X159760527Y-84521093D01*
X159889476Y-84475809D01*
X159999410Y-84394610D01*
X160080609Y-84284676D01*
X160125893Y-84155727D01*
X160128900Y-84123915D01*
X160128899Y-83465286D01*
X160125893Y-83433473D01*
X160080609Y-83304524D01*
X159999410Y-83194590D01*
X160002533Y-83192284D01*
X159977418Y-83146291D01*
X159977363Y-83094373D01*
X159979216Y-83089098D01*
X159979700Y-83083509D01*
X159979700Y-83080794D01*
X159979815Y-83078129D01*
X159979834Y-83078068D01*
X159980008Y-83078075D01*
X159980055Y-83077328D01*
X159981925Y-83071075D01*
X159981277Y-83054580D01*
X159980875Y-83044335D01*
X159998189Y-82975482D01*
X160031918Y-82938040D01*
X160115639Y-82876202D01*
X160123210Y-82870610D01*
X160128802Y-82863039D01*
X160128805Y-82863036D01*
X160195849Y-82772266D01*
X160252410Y-82729355D01*
X160323192Y-82723835D01*
X160385721Y-82757459D01*
X160398551Y-82772266D01*
X160465595Y-82863036D01*
X160465598Y-82863039D01*
X160471190Y-82870610D01*
X160478761Y-82876202D01*
X160577830Y-82949376D01*
X160620740Y-83005937D01*
X160623592Y-83014454D01*
X160624782Y-83024507D01*
X160628767Y-83032806D01*
X160630278Y-83041883D01*
X160635224Y-83051050D01*
X160637744Y-83058408D01*
X160640890Y-83129335D01*
X160607635Y-83188324D01*
X160606961Y-83188998D01*
X160599390Y-83194590D01*
X160518191Y-83304524D01*
X160472907Y-83433473D01*
X160469900Y-83465285D01*
X160469901Y-84123914D01*
X160470180Y-84126862D01*
X160470180Y-84126871D01*
X160472184Y-84148078D01*
X160472907Y-84155727D01*
X160518191Y-84284676D01*
X160599390Y-84394610D01*
X160709324Y-84475809D01*
X160838273Y-84521093D01*
X160845915Y-84521815D01*
X160845918Y-84521816D01*
X160860821Y-84523224D01*
X160870085Y-84524100D01*
X161124228Y-84524100D01*
X161378714Y-84524099D01*
X161381662Y-84523820D01*
X161381671Y-84523820D01*
X161402878Y-84521816D01*
X161402880Y-84521816D01*
X161410527Y-84521093D01*
X161539476Y-84475809D01*
X161649410Y-84394610D01*
X161730609Y-84284676D01*
X161775893Y-84155727D01*
X161778900Y-84123915D01*
X161778899Y-83465286D01*
X161775893Y-83433473D01*
X161730609Y-83304524D01*
X161649410Y-83194590D01*
X161641839Y-83188998D01*
X161641836Y-83188995D01*
X161558385Y-83127357D01*
X161515474Y-83070796D01*
X161508117Y-83040814D01*
X161506773Y-83029457D01*
X161506421Y-83023480D01*
X161506328Y-83023488D01*
X161505900Y-83018310D01*
X161505900Y-83013108D01*
X161502712Y-82993954D01*
X161501877Y-82988087D01*
X161498427Y-82958933D01*
X161510285Y-82888934D01*
X161522203Y-82869267D01*
X161596812Y-82768255D01*
X161596815Y-82768249D01*
X161602409Y-82760676D01*
X161647693Y-82631727D01*
X161649503Y-82612584D01*
X161650400Y-82603087D01*
X161650700Y-82599915D01*
X161650700Y-82596883D01*
X161992201Y-82596883D01*
X161992480Y-82602807D01*
X161994481Y-82623982D01*
X161997749Y-82638880D01*
X162037316Y-82751551D01*
X162046037Y-82768020D01*
X162115952Y-82862678D01*
X162129122Y-82875848D01*
X162223780Y-82945763D01*
X162240249Y-82954484D01*
X162352923Y-82994052D01*
X162367814Y-82997319D01*
X162388999Y-82999321D01*
X162394913Y-82999600D01*
X162501085Y-82999600D01*
X162516324Y-82995125D01*
X162517529Y-82993735D01*
X162519200Y-82986052D01*
X162519200Y-82981484D01*
X162773200Y-82981484D01*
X162777675Y-82996723D01*
X162779065Y-82997928D01*
X162786748Y-82999599D01*
X162897483Y-82999599D01*
X162903407Y-82999320D01*
X162924582Y-82997319D01*
X162939480Y-82994051D01*
X163052151Y-82954484D01*
X163068620Y-82945763D01*
X163163278Y-82875848D01*
X163176448Y-82862678D01*
X163246364Y-82768020D01*
X163254448Y-82752752D01*
X163304003Y-82701911D01*
X163373178Y-82685931D01*
X163440011Y-82709887D01*
X163483282Y-82766173D01*
X163491801Y-82811715D01*
X163491801Y-83269692D01*
X163492170Y-83276510D01*
X163497641Y-83326882D01*
X163501270Y-83342141D01*
X163546022Y-83461518D01*
X163554554Y-83477104D01*
X163630372Y-83578267D01*
X163642933Y-83590828D01*
X163744096Y-83666646D01*
X163759682Y-83675178D01*
X163879065Y-83719933D01*
X163894310Y-83723558D01*
X163944692Y-83729031D01*
X163951506Y-83729400D01*
X164175685Y-83729400D01*
X164190924Y-83724925D01*
X164192129Y-83723535D01*
X164193800Y-83715852D01*
X164193800Y-83711284D01*
X164447800Y-83711284D01*
X164452275Y-83726523D01*
X164453665Y-83727728D01*
X164461348Y-83729399D01*
X164690092Y-83729399D01*
X164696910Y-83729030D01*
X164747282Y-83723559D01*
X164762541Y-83719930D01*
X164881918Y-83675178D01*
X164897504Y-83666646D01*
X164998667Y-83590828D01*
X165011228Y-83578267D01*
X165087046Y-83477104D01*
X165095578Y-83461518D01*
X165140333Y-83342135D01*
X165143958Y-83326890D01*
X165149431Y-83276508D01*
X165149800Y-83269694D01*
X165149800Y-82720515D01*
X165145325Y-82705276D01*
X165143935Y-82704071D01*
X165136252Y-82702400D01*
X164465915Y-82702400D01*
X164450676Y-82706875D01*
X164449471Y-82708265D01*
X164447800Y-82715948D01*
X164447800Y-83711284D01*
X164193800Y-83711284D01*
X164193800Y-82430285D01*
X164447800Y-82430285D01*
X164452275Y-82445524D01*
X164453665Y-82446729D01*
X164461348Y-82448400D01*
X165131684Y-82448400D01*
X165146923Y-82443925D01*
X165148128Y-82442535D01*
X165149799Y-82434852D01*
X165149799Y-81881108D01*
X165149430Y-81874290D01*
X165143959Y-81823918D01*
X165140330Y-81808659D01*
X165095578Y-81689282D01*
X165087046Y-81673696D01*
X165011228Y-81572533D01*
X164998667Y-81559972D01*
X164897504Y-81484154D01*
X164881918Y-81475622D01*
X164762535Y-81430867D01*
X164747290Y-81427242D01*
X164696908Y-81421769D01*
X164690094Y-81421400D01*
X164465915Y-81421400D01*
X164450676Y-81425875D01*
X164449471Y-81427265D01*
X164447800Y-81434948D01*
X164447800Y-82430285D01*
X164193800Y-82430285D01*
X164193800Y-81439516D01*
X164189325Y-81424277D01*
X164187935Y-81423072D01*
X164180252Y-81421401D01*
X163951508Y-81421401D01*
X163944690Y-81421770D01*
X163894318Y-81427241D01*
X163879059Y-81430870D01*
X163759682Y-81475622D01*
X163744096Y-81484154D01*
X163642933Y-81559972D01*
X163630372Y-81572533D01*
X163554554Y-81673696D01*
X163546022Y-81689282D01*
X163499454Y-81813502D01*
X163456813Y-81870267D01*
X163390251Y-81894967D01*
X163320903Y-81879760D01*
X163270784Y-81829474D01*
X163262590Y-81811022D01*
X163255086Y-81789653D01*
X163246363Y-81773180D01*
X163176448Y-81678522D01*
X163163278Y-81665352D01*
X163068620Y-81595437D01*
X163052151Y-81586716D01*
X162939477Y-81547148D01*
X162924586Y-81543881D01*
X162903401Y-81541879D01*
X162897487Y-81541600D01*
X162791315Y-81541600D01*
X162776076Y-81546075D01*
X162774871Y-81547465D01*
X162773200Y-81555148D01*
X162773200Y-82981484D01*
X162519200Y-82981484D01*
X162519200Y-82415715D01*
X162514725Y-82400476D01*
X162513335Y-82399271D01*
X162505652Y-82397600D01*
X162010316Y-82397600D01*
X161995077Y-82402075D01*
X161993872Y-82403465D01*
X161992201Y-82411148D01*
X161992201Y-82596883D01*
X161650700Y-82596883D01*
X161650699Y-82125485D01*
X161992200Y-82125485D01*
X161996675Y-82140724D01*
X161998065Y-82141929D01*
X162005748Y-82143600D01*
X162501085Y-82143600D01*
X162516324Y-82139125D01*
X162517529Y-82137735D01*
X162519200Y-82130052D01*
X162519200Y-81559716D01*
X162514725Y-81544477D01*
X162513335Y-81543272D01*
X162505652Y-81541601D01*
X162394917Y-81541601D01*
X162388993Y-81541880D01*
X162367818Y-81543881D01*
X162352920Y-81547149D01*
X162240249Y-81586716D01*
X162223780Y-81595437D01*
X162129122Y-81665352D01*
X162115952Y-81678522D01*
X162046037Y-81773180D01*
X162037316Y-81789649D01*
X161997748Y-81902323D01*
X161994481Y-81917214D01*
X161992479Y-81938399D01*
X161992200Y-81944313D01*
X161992200Y-82125485D01*
X161650699Y-82125485D01*
X161650699Y-81941286D01*
X161650099Y-81934930D01*
X161648416Y-81917122D01*
X161648415Y-81917118D01*
X161647693Y-81909473D01*
X161623629Y-81840949D01*
X161619929Y-81770052D01*
X161653416Y-81710107D01*
X162157518Y-81206005D01*
X162219830Y-81171979D01*
X162246613Y-81169100D01*
X163099934Y-81169100D01*
X163194655Y-81154098D01*
X163308823Y-81095926D01*
X163399426Y-81005323D01*
X163457598Y-80891155D01*
X163472600Y-80796434D01*
X163472600Y-80432766D01*
X163457598Y-80338045D01*
X163399426Y-80223877D01*
X163392411Y-80216862D01*
X163389775Y-80213234D01*
X163365915Y-80146367D01*
X163381993Y-80077215D01*
X163389774Y-80065108D01*
X163403518Y-80046192D01*
X163452615Y-79949832D01*
X163458667Y-79931208D01*
X163471325Y-79851285D01*
X163472100Y-79841442D01*
X163472100Y-79809715D01*
X163467625Y-79794476D01*
X163466235Y-79793271D01*
X163458552Y-79791600D01*
X161657216Y-79791600D01*
X161641977Y-79796075D01*
X161640772Y-79797465D01*
X161639101Y-79805148D01*
X161639101Y-79841440D01*
X161639876Y-79851287D01*
X161652533Y-79931207D01*
X161658585Y-79949833D01*
X161707681Y-80046189D01*
X161721425Y-80065105D01*
X161745285Y-80131972D01*
X161729207Y-80201124D01*
X161721426Y-80213231D01*
X161718785Y-80216866D01*
X161711774Y-80223877D01*
X161707274Y-80232709D01*
X161707273Y-80232710D01*
X161688510Y-80269534D01*
X161653602Y-80338045D01*
X161638600Y-80432766D01*
X161638600Y-80593688D01*
X161618598Y-80661809D01*
X161601695Y-80682783D01*
X160773739Y-81510739D01*
X160713323Y-81543800D01*
X160710073Y-81544107D01*
X160581124Y-81589391D01*
X160471190Y-81670590D01*
X160465598Y-81678161D01*
X160465595Y-81678164D01*
X160398551Y-81768934D01*
X160341990Y-81811845D01*
X160271208Y-81817365D01*
X160208679Y-81783741D01*
X160195849Y-81768934D01*
X160128805Y-81678164D01*
X160128802Y-81678161D01*
X160123210Y-81670590D01*
X160013276Y-81589391D01*
X159884327Y-81544107D01*
X159876685Y-81543385D01*
X159876682Y-81543384D01*
X159860756Y-81541879D01*
X159852515Y-81541100D01*
X159598372Y-81541100D01*
X159343886Y-81541101D01*
X159340938Y-81541380D01*
X159340929Y-81541380D01*
X159319722Y-81543384D01*
X159319720Y-81543384D01*
X159312073Y-81544107D01*
X159304823Y-81546653D01*
X159303411Y-81547149D01*
X159183124Y-81589391D01*
X159073190Y-81670590D01*
X158991991Y-81780524D01*
X158946707Y-81909473D01*
X158943700Y-81941285D01*
X158943701Y-82599914D01*
X158943980Y-82602862D01*
X158943980Y-82602871D01*
X158945975Y-82623982D01*
X158946707Y-82631727D01*
X158991991Y-82760676D01*
X159073190Y-82870610D01*
X159080761Y-82876202D01*
X159086273Y-82881714D01*
X159120299Y-82944026D01*
X159117894Y-83006912D01*
X159116041Y-83013108D01*
X159112301Y-83025614D01*
X159110476Y-83031231D01*
X159105875Y-83044335D01*
X159102277Y-83054580D01*
X159058255Y-83114180D01*
X158982729Y-83169965D01*
X158949390Y-83194590D01*
X158868191Y-83304524D01*
X158822907Y-83433473D01*
X158819900Y-83465285D01*
X146532963Y-83465285D01*
X152090442Y-77907805D01*
X152152754Y-77873779D01*
X152179537Y-77870900D01*
X152614116Y-77870900D01*
X152682237Y-77890902D01*
X152728730Y-77944558D01*
X152738834Y-78014832D01*
X152713065Y-78074907D01*
X152696066Y-78096470D01*
X152693015Y-78105157D01*
X152687666Y-78112643D01*
X152684683Y-78122619D01*
X152684682Y-78122620D01*
X152672902Y-78162011D01*
X152671072Y-78167643D01*
X152653984Y-78216302D01*
X152653500Y-78221891D01*
X152653500Y-78224602D01*
X152653385Y-78227269D01*
X152653366Y-78227332D01*
X152653192Y-78227325D01*
X152653145Y-78228071D01*
X152651275Y-78234324D01*
X152653234Y-78284183D01*
X152653403Y-78288478D01*
X152653500Y-78293425D01*
X152653500Y-80590865D01*
X152650914Y-80615164D01*
X152650846Y-80616602D01*
X152648655Y-80626780D01*
X152649879Y-80637120D01*
X152652627Y-80660342D01*
X152652979Y-80666320D01*
X152653072Y-80666312D01*
X152653500Y-80671490D01*
X152653500Y-80676692D01*
X152654603Y-80683315D01*
X152656686Y-80695832D01*
X152657522Y-80701704D01*
X152663582Y-80752907D01*
X152667567Y-80761206D01*
X152669078Y-80770283D01*
X152693558Y-80815651D01*
X152696239Y-80820914D01*
X152715127Y-80860250D01*
X152715130Y-80860254D01*
X152718560Y-80867398D01*
X152722170Y-80871692D01*
X152724102Y-80873624D01*
X152725889Y-80875573D01*
X152725918Y-80875626D01*
X152725788Y-80875745D01*
X152726289Y-80876313D01*
X152729388Y-80882057D01*
X152737033Y-80889124D01*
X152769209Y-80918867D01*
X152772775Y-80922297D01*
X154352554Y-82502076D01*
X154367918Y-82521099D01*
X154368882Y-82522158D01*
X154374529Y-82530904D01*
X154382708Y-82537352D01*
X154382710Y-82537354D01*
X154401077Y-82551834D01*
X154405550Y-82555809D01*
X154405611Y-82555737D01*
X154409568Y-82559090D01*
X154413249Y-82562771D01*
X154417481Y-82565795D01*
X154429039Y-82574055D01*
X154433785Y-82577618D01*
X154474270Y-82609534D01*
X154482955Y-82612584D01*
X154490443Y-82617935D01*
X154539850Y-82632710D01*
X154545437Y-82634526D01*
X154594102Y-82651616D01*
X154599691Y-82652100D01*
X154602402Y-82652100D01*
X154605071Y-82652215D01*
X154605132Y-82652234D01*
X154605125Y-82652408D01*
X154605872Y-82652455D01*
X154612125Y-82654325D01*
X154666289Y-82652197D01*
X154671235Y-82652100D01*
X157214566Y-82652100D01*
X157282687Y-82672102D01*
X157329180Y-82725758D01*
X157333447Y-82736345D01*
X157341991Y-82760676D01*
X157347583Y-82768246D01*
X157347584Y-82768249D01*
X157379689Y-82811715D01*
X157423190Y-82870610D01*
X157533124Y-82951809D01*
X157662073Y-82997093D01*
X157669715Y-82997815D01*
X157669718Y-82997816D01*
X157684621Y-82999224D01*
X157693885Y-83000100D01*
X157948028Y-83000100D01*
X158202514Y-83000099D01*
X158205462Y-82999820D01*
X158205471Y-82999820D01*
X158226678Y-82997816D01*
X158226680Y-82997816D01*
X158234327Y-82997093D01*
X158242987Y-82994052D01*
X158265767Y-82986052D01*
X158363276Y-82951809D01*
X158473210Y-82870610D01*
X158554409Y-82760676D01*
X158599693Y-82631727D01*
X158601503Y-82612584D01*
X158602400Y-82603087D01*
X158602700Y-82599915D01*
X158602699Y-81941286D01*
X158602099Y-81934930D01*
X158600416Y-81917122D01*
X158600415Y-81917118D01*
X158599693Y-81909473D01*
X158554409Y-81780524D01*
X158473210Y-81670590D01*
X158363276Y-81589391D01*
X158234327Y-81544107D01*
X158226685Y-81543385D01*
X158226682Y-81543384D01*
X158210756Y-81541879D01*
X158202515Y-81541100D01*
X157948372Y-81541100D01*
X157693886Y-81541101D01*
X157690938Y-81541380D01*
X157690929Y-81541380D01*
X157669722Y-81543384D01*
X157669720Y-81543384D01*
X157662073Y-81544107D01*
X157654823Y-81546653D01*
X157653411Y-81547149D01*
X157533124Y-81589391D01*
X157423190Y-81670590D01*
X157417598Y-81678161D01*
X157347584Y-81772951D01*
X157347583Y-81772954D01*
X157341991Y-81780524D01*
X157333449Y-81804849D01*
X157292005Y-81862494D01*
X157225976Y-81888582D01*
X157214566Y-81889100D01*
X154870813Y-81889100D01*
X154802692Y-81869098D01*
X154781718Y-81852195D01*
X153490215Y-80560692D01*
X156259801Y-80560692D01*
X156260170Y-80567510D01*
X156265641Y-80617882D01*
X156269270Y-80633141D01*
X156314022Y-80752518D01*
X156322554Y-80768104D01*
X156398372Y-80869267D01*
X156410933Y-80881828D01*
X156512096Y-80957646D01*
X156527682Y-80966178D01*
X156647065Y-81010933D01*
X156662310Y-81014558D01*
X156712692Y-81020031D01*
X156719506Y-81020400D01*
X157268685Y-81020400D01*
X157283924Y-81015925D01*
X157285129Y-81014535D01*
X157286800Y-81006852D01*
X157286800Y-81002284D01*
X157540800Y-81002284D01*
X157545275Y-81017523D01*
X157546665Y-81018728D01*
X157554348Y-81020399D01*
X158108092Y-81020399D01*
X158114910Y-81020030D01*
X158165282Y-81014559D01*
X158180541Y-81010930D01*
X158299918Y-80966178D01*
X158315504Y-80957646D01*
X158416667Y-80881828D01*
X158429228Y-80869267D01*
X158508123Y-80763998D01*
X158564982Y-80721483D01*
X158635801Y-80716457D01*
X158698094Y-80750517D01*
X158709775Y-80763998D01*
X158785972Y-80865667D01*
X158798533Y-80878228D01*
X158899696Y-80954046D01*
X158915282Y-80962578D01*
X159034665Y-81007333D01*
X159049910Y-81010958D01*
X159100292Y-81016431D01*
X159107106Y-81016800D01*
X159656285Y-81016800D01*
X159671524Y-81012325D01*
X159672729Y-81010935D01*
X159674400Y-81003252D01*
X159674400Y-80998684D01*
X159928400Y-80998684D01*
X159932875Y-81013923D01*
X159934265Y-81015128D01*
X159941948Y-81016799D01*
X160495692Y-81016799D01*
X160502510Y-81016430D01*
X160552882Y-81010959D01*
X160568141Y-81007330D01*
X160687518Y-80962578D01*
X160703104Y-80954046D01*
X160804267Y-80878228D01*
X160816828Y-80865667D01*
X160892646Y-80764504D01*
X160901178Y-80748918D01*
X160945933Y-80629535D01*
X160949558Y-80614290D01*
X160955031Y-80563908D01*
X160955400Y-80557094D01*
X160955400Y-80332915D01*
X160950925Y-80317676D01*
X160949535Y-80316471D01*
X160941852Y-80314800D01*
X159946515Y-80314800D01*
X159931276Y-80319275D01*
X159930071Y-80320665D01*
X159928400Y-80328348D01*
X159928400Y-80998684D01*
X159674400Y-80998684D01*
X159674400Y-80332915D01*
X159669925Y-80317676D01*
X159668535Y-80316471D01*
X159660852Y-80314800D01*
X158665518Y-80314800D01*
X158641982Y-80321711D01*
X158579700Y-80323935D01*
X158554256Y-80318400D01*
X157558915Y-80318400D01*
X157543676Y-80322875D01*
X157542471Y-80324265D01*
X157540800Y-80331948D01*
X157540800Y-81002284D01*
X157286800Y-81002284D01*
X157286800Y-80336515D01*
X157282325Y-80321276D01*
X157280935Y-80320071D01*
X157273252Y-80318400D01*
X156277916Y-80318400D01*
X156262677Y-80322875D01*
X156261472Y-80324265D01*
X156259801Y-80331948D01*
X156259801Y-80560692D01*
X153490215Y-80560692D01*
X153453405Y-80523882D01*
X153419379Y-80461570D01*
X153416500Y-80434787D01*
X153416500Y-80046285D01*
X156259800Y-80046285D01*
X156264275Y-80061524D01*
X156265665Y-80062729D01*
X156273348Y-80064400D01*
X157268685Y-80064400D01*
X157283924Y-80059925D01*
X157285129Y-80058535D01*
X157286800Y-80050852D01*
X157286800Y-80046285D01*
X157540800Y-80046285D01*
X157545275Y-80061524D01*
X157546665Y-80062729D01*
X157554348Y-80064400D01*
X158549682Y-80064400D01*
X158573218Y-80057489D01*
X158635500Y-80055265D01*
X158660944Y-80060800D01*
X159656285Y-80060800D01*
X159671524Y-80056325D01*
X159672729Y-80054935D01*
X159674400Y-80047252D01*
X159674400Y-80042685D01*
X159928400Y-80042685D01*
X159932875Y-80057924D01*
X159934265Y-80059129D01*
X159941948Y-80060800D01*
X160937284Y-80060800D01*
X160952523Y-80056325D01*
X160953728Y-80054935D01*
X160955399Y-80047252D01*
X160955399Y-79818508D01*
X160955030Y-79811690D01*
X160949559Y-79761318D01*
X160945930Y-79746059D01*
X160901178Y-79626682D01*
X160892646Y-79611096D01*
X160816828Y-79509933D01*
X160804267Y-79497372D01*
X160703104Y-79421554D01*
X160687518Y-79413022D01*
X160568135Y-79368267D01*
X160552890Y-79364642D01*
X160502508Y-79359169D01*
X160495694Y-79358800D01*
X159946515Y-79358800D01*
X159931276Y-79363275D01*
X159930071Y-79364665D01*
X159928400Y-79372348D01*
X159928400Y-80042685D01*
X159674400Y-80042685D01*
X159674400Y-79376916D01*
X159669925Y-79361677D01*
X159668535Y-79360472D01*
X159660852Y-79358801D01*
X159107108Y-79358801D01*
X159100290Y-79359170D01*
X159049918Y-79364641D01*
X159034659Y-79368270D01*
X158915282Y-79413022D01*
X158899696Y-79421554D01*
X158798533Y-79497372D01*
X158785972Y-79509933D01*
X158707077Y-79615202D01*
X158650218Y-79657717D01*
X158579399Y-79662743D01*
X158517106Y-79628683D01*
X158505425Y-79615202D01*
X158429228Y-79513533D01*
X158416667Y-79500972D01*
X158315504Y-79425154D01*
X158299918Y-79416622D01*
X158180535Y-79371867D01*
X158165290Y-79368242D01*
X158114908Y-79362769D01*
X158108094Y-79362400D01*
X157558915Y-79362400D01*
X157543676Y-79366875D01*
X157542471Y-79368265D01*
X157540800Y-79375948D01*
X157540800Y-80046285D01*
X157286800Y-80046285D01*
X157286800Y-79380516D01*
X157282325Y-79365277D01*
X157280935Y-79364072D01*
X157273252Y-79362401D01*
X156719508Y-79362401D01*
X156712690Y-79362770D01*
X156662318Y-79368241D01*
X156647059Y-79371870D01*
X156527682Y-79416622D01*
X156512096Y-79425154D01*
X156410933Y-79500972D01*
X156398373Y-79513532D01*
X156394621Y-79518538D01*
X156337761Y-79561052D01*
X156289224Y-79564495D01*
X156307780Y-79614245D01*
X156300083Y-79667463D01*
X156269267Y-79749665D01*
X156265642Y-79764910D01*
X156260169Y-79815292D01*
X156259800Y-79822106D01*
X156259800Y-80046285D01*
X153416500Y-80046285D01*
X153416500Y-78493013D01*
X153436502Y-78424892D01*
X153453405Y-78403917D01*
X153757405Y-78099918D01*
X153819717Y-78065893D01*
X153890533Y-78070958D01*
X153947368Y-78113505D01*
X153972179Y-78180025D01*
X153972500Y-78189014D01*
X153972501Y-78785158D01*
X153972501Y-79361666D01*
X153987266Y-79435901D01*
X153994161Y-79446221D01*
X153994162Y-79446222D01*
X154028340Y-79497372D01*
X154043516Y-79520084D01*
X154127699Y-79576334D01*
X154201933Y-79591100D01*
X155076858Y-79591100D01*
X155952066Y-79591099D01*
X155987818Y-79583988D01*
X156014126Y-79578756D01*
X156014128Y-79578755D01*
X156026301Y-79576334D01*
X156036621Y-79569439D01*
X156036622Y-79569438D01*
X156110484Y-79520084D01*
X156112692Y-79523389D01*
X156155318Y-79500113D01*
X156188549Y-79502490D01*
X156170660Y-79469684D01*
X156170217Y-79418389D01*
X156181500Y-79361667D01*
X156181499Y-78739499D01*
X156201501Y-78671379D01*
X156255157Y-78624886D01*
X156307499Y-78613500D01*
X160825787Y-78613500D01*
X160893908Y-78633502D01*
X160914882Y-78650405D01*
X161210560Y-78946083D01*
X161225914Y-78965094D01*
X161226880Y-78966156D01*
X161232529Y-78974904D01*
X161240704Y-78981348D01*
X161240706Y-78981351D01*
X161259072Y-78995829D01*
X161263550Y-78999808D01*
X161263610Y-78999737D01*
X161267567Y-79003090D01*
X161271248Y-79006771D01*
X161275480Y-79009795D01*
X161275482Y-79009797D01*
X161287057Y-79018069D01*
X161291802Y-79021632D01*
X161332270Y-79053534D01*
X161340955Y-79056584D01*
X161348442Y-79061934D01*
X161397847Y-79076709D01*
X161403442Y-79078527D01*
X161452102Y-79095616D01*
X161457691Y-79096100D01*
X161460404Y-79096100D01*
X161463069Y-79096215D01*
X161463132Y-79096234D01*
X161463125Y-79096408D01*
X161463871Y-79096455D01*
X161470124Y-79098325D01*
X161519983Y-79096366D01*
X161524278Y-79096197D01*
X161529225Y-79096100D01*
X161597303Y-79096100D01*
X161665424Y-79116102D01*
X161711917Y-79169758D01*
X161722021Y-79240032D01*
X161709570Y-79279303D01*
X161658585Y-79379368D01*
X161652533Y-79397992D01*
X161639875Y-79477915D01*
X161639100Y-79487758D01*
X161639100Y-79519485D01*
X161643575Y-79534724D01*
X161644965Y-79535929D01*
X161652648Y-79537600D01*
X163453984Y-79537600D01*
X163469223Y-79533125D01*
X163470428Y-79531735D01*
X163472099Y-79524052D01*
X163472099Y-79487760D01*
X163471324Y-79477913D01*
X163458667Y-79397993D01*
X163452615Y-79379367D01*
X163403519Y-79283011D01*
X163389775Y-79264095D01*
X163365915Y-79197228D01*
X163381993Y-79128076D01*
X163389774Y-79115969D01*
X163392415Y-79112334D01*
X163399426Y-79105323D01*
X163403969Y-79096408D01*
X163442069Y-79021632D01*
X163457598Y-78991155D01*
X163472600Y-78896434D01*
X163472600Y-78532766D01*
X163457598Y-78438045D01*
X163399426Y-78323877D01*
X163308823Y-78233274D01*
X163305790Y-78231729D01*
X163264646Y-78178371D01*
X163258571Y-78107635D01*
X163289729Y-78048584D01*
X163289904Y-78048471D01*
X163310829Y-78021928D01*
X163314808Y-78017450D01*
X163314737Y-78017390D01*
X163318090Y-78013433D01*
X163321771Y-78009752D01*
X163333069Y-77993943D01*
X163336632Y-77989198D01*
X163346349Y-77976872D01*
X163368534Y-77948730D01*
X163371584Y-77940045D01*
X163376934Y-77932558D01*
X163384777Y-77906332D01*
X163423459Y-77846798D01*
X163461261Y-77824454D01*
X163487235Y-77814717D01*
X163597144Y-77732344D01*
X163637778Y-77678127D01*
X163674135Y-77629617D01*
X163674137Y-77629614D01*
X163679517Y-77622435D01*
X163686618Y-77603493D01*
X163729259Y-77546728D01*
X163795821Y-77522028D01*
X163865170Y-77537235D01*
G37*
%TD.AperFunction*%
%TA.AperFunction,Conductor*%
G36*
X148556395Y-105573836D02*
G01*
X148604773Y-105625798D01*
X148618100Y-105682197D01*
X148618100Y-109436750D01*
X148598098Y-109504871D01*
X148581195Y-109525845D01*
X147450745Y-110656295D01*
X147388433Y-110690321D01*
X147361650Y-110693200D01*
X146818399Y-110693200D01*
X146750278Y-110673198D01*
X146703785Y-110619542D01*
X146692399Y-110567200D01*
X146692399Y-108654356D01*
X146694444Y-108635141D01*
X146695016Y-108633513D01*
X146695500Y-108627924D01*
X146695500Y-108625213D01*
X146695617Y-108622509D01*
X146695625Y-108622482D01*
X146695808Y-108622490D01*
X146695857Y-108621704D01*
X146697733Y-108615429D01*
X146695598Y-108561315D01*
X146695500Y-108556348D01*
X146695500Y-107058012D01*
X146715502Y-106989891D01*
X146732405Y-106968917D01*
X147727621Y-105973702D01*
X147789931Y-105939677D01*
X147833159Y-105937876D01*
X147878800Y-105943885D01*
X147886988Y-105942807D01*
X147918709Y-105938631D01*
X148023554Y-105924828D01*
X148158443Y-105868955D01*
X148166363Y-105862878D01*
X148267721Y-105785103D01*
X148267724Y-105785100D01*
X148274274Y-105780074D01*
X148363155Y-105664242D01*
X148366318Y-105656607D01*
X148375692Y-105633978D01*
X148420240Y-105578697D01*
X148487604Y-105556277D01*
X148556395Y-105573836D01*
G37*
%TD.AperFunction*%
%TD*%
M02*
