%TF.GenerationSoftware,KiCad,Pcbnew,(6.0.7)*%
%TF.CreationDate,2022-10-17T23:11:19+02:00*%
%TF.ProjectId,Wifi_homesensor,57696669-5f68-46f6-9d65-73656e736f72,rev?*%
%TF.SameCoordinates,Original*%
%TF.FileFunction,Copper,L2,Bot*%
%TF.FilePolarity,Positive*%
%FSLAX46Y46*%
G04 Gerber Fmt 4.6, Leading zero omitted, Abs format (unit mm)*
G04 Created by KiCad (PCBNEW (6.0.7)) date 2022-10-17 23:11:19*
%MOMM*%
%LPD*%
G01*
G04 APERTURE LIST*
%TA.AperFunction,ComponentPad*%
%ADD10R,2.000000X2.000000*%
%TD*%
%TA.AperFunction,ComponentPad*%
%ADD11O,1.600000X2.000000*%
%TD*%
%TA.AperFunction,ComponentPad*%
%ADD12R,2.600000X2.600000*%
%TD*%
%TA.AperFunction,ComponentPad*%
%ADD13C,2.600000*%
%TD*%
%TA.AperFunction,ComponentPad*%
%ADD14C,2.100000*%
%TD*%
%TA.AperFunction,ComponentPad*%
%ADD15C,1.750000*%
%TD*%
%TA.AperFunction,ComponentPad*%
%ADD16R,1.700000X1.700000*%
%TD*%
%TA.AperFunction,ComponentPad*%
%ADD17O,1.700000X1.700000*%
%TD*%
%TA.AperFunction,ComponentPad*%
%ADD18C,1.600000*%
%TD*%
%TA.AperFunction,ViaPad*%
%ADD19C,0.600000*%
%TD*%
%TA.AperFunction,ViaPad*%
%ADD20C,1.000000*%
%TD*%
%TA.AperFunction,Conductor*%
%ADD21C,0.254000*%
%TD*%
G04 APERTURE END LIST*
D10*
%TO.P,U2,1,~{RST}*%
%TO.N,unconnected-(U2-Pad1)*%
X127076200Y-99845000D03*
D11*
%TO.P,U2,2,A0*%
%TO.N,unconnected-(U2-Pad2)*%
X129616200Y-99845000D03*
%TO.P,U2,3,D0*%
%TO.N,/CONFIG*%
X132156200Y-99845000D03*
%TO.P,U2,4,SCK/D5*%
%TO.N,unconnected-(U2-Pad4)*%
X134696200Y-99845000D03*
%TO.P,U2,5,MISO/D6*%
%TO.N,unconnected-(U2-Pad5)*%
X137236200Y-99845000D03*
%TO.P,U2,6,MOSI/D7*%
%TO.N,unconnected-(U2-Pad6)*%
X139776200Y-99845000D03*
%TO.P,U2,7,CS/D8*%
%TO.N,Net-(R5-Pad2)*%
X142316200Y-99845000D03*
%TO.P,U2,8,3V3*%
%TO.N,+3V3*%
X144856200Y-99845000D03*
%TO.P,U2,9,5V*%
%TO.N,unconnected-(U2-Pad9)*%
X144856200Y-76985000D03*
%TO.P,U2,10,GND*%
%TO.N,GND*%
X142316200Y-76985000D03*
%TO.P,U2,11,D4*%
%TO.N,unconnected-(U2-Pad11)*%
X139776200Y-76985000D03*
%TO.P,U2,12,D3*%
%TO.N,unconnected-(U2-Pad12)*%
X137236200Y-76985000D03*
%TO.P,U2,13,SDA/D2*%
%TO.N,/SDA*%
X134696200Y-76985000D03*
%TO.P,U2,14,SCL/D1*%
%TO.N,/SCL*%
X132156200Y-76985000D03*
%TO.P,U2,15,RX*%
%TO.N,/RX*%
X129616200Y-76985000D03*
%TO.P,U2,16,TX*%
%TO.N,/TX*%
X127076200Y-76985000D03*
%TD*%
D12*
%TO.P,J2,1,Pin_1*%
%TO.N,GND*%
X164129800Y-101346000D03*
D13*
%TO.P,J2,2,Pin_2*%
%TO.N,Net-(F1-Pad2)*%
X169209800Y-101346000D03*
%TD*%
D14*
%TO.P,SW1,*%
%TO.N,*%
X135880000Y-124154400D03*
X128870000Y-124154400D03*
D15*
%TO.P,SW1,1,1*%
%TO.N,GND*%
X134630000Y-126644400D03*
%TO.P,SW1,2,2*%
%TO.N,/CONFIG*%
X130130000Y-126644400D03*
%TD*%
D16*
%TO.P,J1,1,Pin_1*%
%TO.N,/TX*%
X127127000Y-73152000D03*
D17*
%TO.P,J1,2,Pin_2*%
%TO.N,/RX*%
X129667000Y-73152000D03*
%TO.P,J1,3,Pin_3*%
%TO.N,GND*%
X132207000Y-73152000D03*
%TD*%
D18*
%TO.P,C8,1*%
%TO.N,+12V*%
X167132000Y-88646000D03*
%TO.P,C8,2*%
%TO.N,GND*%
X167132000Y-92146000D03*
%TD*%
D19*
%TO.N,GND*%
X167513000Y-105029000D03*
X126365000Y-114935000D03*
X132715000Y-95885000D03*
X148844000Y-78232000D03*
X165608000Y-81915000D03*
X138303000Y-114300000D03*
X168529000Y-78613000D03*
X165735000Y-82931000D03*
X168148000Y-127889000D03*
X161290000Y-80010000D03*
X126365000Y-118364000D03*
X159639000Y-128270000D03*
X151130000Y-66167000D03*
X138176000Y-105410000D03*
X160274000Y-81280000D03*
X168148000Y-113284000D03*
X154686000Y-122936000D03*
X163703000Y-80137000D03*
X172593000Y-116586000D03*
X168402000Y-66548000D03*
X141859000Y-120015000D03*
X169037000Y-72644000D03*
X152898553Y-70101333D03*
X148082000Y-106299000D03*
X134620000Y-108458000D03*
X126238000Y-95758000D03*
X143637000Y-86487000D03*
X159766000Y-78994000D03*
X137795000Y-96266000D03*
X164573434Y-87864558D03*
X163703000Y-118999000D03*
X164338000Y-84201000D03*
X138531947Y-69844786D03*
X144780000Y-105181400D03*
X163693100Y-79248000D03*
X126238000Y-68199000D03*
X136144000Y-84582000D03*
X157480000Y-78994000D03*
X172593000Y-82931000D03*
X126619000Y-128524000D03*
X147193000Y-108712000D03*
X169291000Y-79629000D03*
X168275000Y-125222000D03*
X168656000Y-68453000D03*
X130556000Y-82042000D03*
X168529000Y-123063000D03*
X152400000Y-117221000D03*
X158970155Y-97252508D03*
X136398000Y-117856000D03*
X126238000Y-102108000D03*
X143256000Y-104013000D03*
X141605000Y-107061000D03*
X141859000Y-113538000D03*
X153162000Y-104648000D03*
X126365000Y-110998000D03*
X138379200Y-128447800D03*
X166116000Y-77089000D03*
X157861000Y-128270000D03*
X126238000Y-86487000D03*
X126365000Y-107696000D03*
X162941000Y-106807000D03*
X166116000Y-77978000D03*
X172720000Y-79375000D03*
X141859000Y-115443000D03*
X149978787Y-95370920D03*
X158623000Y-81280000D03*
X168275000Y-80899000D03*
X158496000Y-66167000D03*
X155829000Y-80137000D03*
X150495000Y-109855000D03*
X130027714Y-110342054D03*
X165608000Y-66167000D03*
X156591000Y-92837000D03*
X160782000Y-78994000D03*
X136779000Y-72771000D03*
X168529000Y-77089000D03*
X170307000Y-122301000D03*
X162433000Y-66040000D03*
X145161000Y-81915000D03*
X158877000Y-104902000D03*
X165227000Y-128270000D03*
X152400000Y-113538000D03*
X147320000Y-83947000D03*
X172593000Y-119380000D03*
X141097000Y-108712000D03*
X131445000Y-114427000D03*
X172593000Y-102362000D03*
X172593000Y-95377000D03*
X130683000Y-66167000D03*
X146685000Y-66167000D03*
X139748917Y-88737228D03*
X172593000Y-105791000D03*
X142875000Y-66167000D03*
X152654000Y-120523000D03*
X146290854Y-94466767D03*
X159005424Y-87370469D03*
X152527000Y-110744000D03*
X159131000Y-119380000D03*
X144780000Y-109855000D03*
X139065000Y-123190000D03*
X126873000Y-66167000D03*
X126238000Y-79121000D03*
X148964840Y-73350922D03*
X145031126Y-69844786D03*
X135636000Y-66040000D03*
X126365000Y-104648000D03*
X132207000Y-128524000D03*
X126238000Y-90043000D03*
X157226000Y-81407000D03*
X166751000Y-76530200D03*
X172593000Y-113157000D03*
X136017000Y-79756000D03*
X139700000Y-103759000D03*
X167386000Y-78740000D03*
X129286000Y-128524000D03*
X156083000Y-81153000D03*
X126365000Y-121666000D03*
X171323000Y-70739000D03*
X159131000Y-115443000D03*
X162560000Y-128270000D03*
X165481000Y-83820000D03*
X138938000Y-66167000D03*
X166116000Y-115189000D03*
X126238000Y-81915000D03*
X144646306Y-73393680D03*
X141859000Y-110998000D03*
X172593000Y-122174000D03*
X146177000Y-87122000D03*
X162687000Y-124206000D03*
X159258000Y-110236000D03*
X135001000Y-128524000D03*
X126238000Y-70358000D03*
X162179000Y-69342000D03*
X155067000Y-66167000D03*
X132207000Y-104648000D03*
X172593000Y-75057000D03*
X163576000Y-113411000D03*
X167767000Y-76581000D03*
X168529000Y-77851000D03*
X163449000Y-81407000D03*
X163068000Y-83312000D03*
X172720000Y-106807000D03*
X172593000Y-91059000D03*
X140335000Y-121539000D03*
X154686000Y-126746000D03*
X169037000Y-70612000D03*
X172593000Y-87249000D03*
X158623000Y-78994000D03*
X131191000Y-120015000D03*
X167640000Y-119888000D03*
X126365000Y-124333000D03*
X142748000Y-91948000D03*
X172593000Y-99187000D03*
X138557000Y-109728000D03*
X132842000Y-91313000D03*
X141859000Y-117856000D03*
X130556000Y-87249000D03*
X131049340Y-68989631D03*
X165227000Y-98298000D03*
X151499062Y-88529679D03*
D20*
X147878800Y-107492800D03*
D19*
X149352000Y-81661000D03*
X151765000Y-79629000D03*
X126365000Y-126746000D03*
%TO.N,/SCL*%
X146354800Y-105384600D03*
X143662400Y-97586800D03*
%TO.N,/SDA*%
X143699003Y-96737397D03*
X147878800Y-105384600D03*
%TD*%
D21*
%TO.N,/SCL*%
X146812000Y-104927400D02*
X146812000Y-99593400D01*
X146354800Y-105384600D02*
X146812000Y-104927400D01*
X146812000Y-99593400D02*
X144805400Y-97586800D01*
X144805400Y-97586800D02*
X143662400Y-97586800D01*
%TO.N,/SDA*%
X147878800Y-105384600D02*
X147447000Y-104952800D01*
X147447000Y-104952800D02*
X147447000Y-99237800D01*
X144946597Y-96737397D02*
X143699003Y-96737397D01*
X147447000Y-99237800D02*
X144946597Y-96737397D01*
%TD*%
%TA.AperFunction,Conductor*%
%TO.N,GND*%
G36*
X168646531Y-65602802D02*
G01*
X168667505Y-65619705D01*
X169838295Y-66790495D01*
X169872321Y-66852807D01*
X169875200Y-66879590D01*
X169875200Y-69443600D01*
X170459400Y-70027800D01*
X172286810Y-70027800D01*
X172354931Y-70047802D01*
X172375905Y-70064705D01*
X173318095Y-71006895D01*
X173352121Y-71069207D01*
X173355000Y-71095990D01*
X173355000Y-122604410D01*
X173334998Y-122672531D01*
X173318095Y-122693505D01*
X172833105Y-123178495D01*
X172770793Y-123212521D01*
X172744010Y-123215400D01*
X170027600Y-123215400D01*
X169240200Y-124002800D01*
X169240200Y-128598810D01*
X169220198Y-128666931D01*
X169203295Y-128687905D01*
X168819905Y-129071295D01*
X168757593Y-129105321D01*
X168730810Y-129108200D01*
X155093790Y-129108200D01*
X155025669Y-129088198D01*
X155004695Y-129071295D01*
X154392705Y-128459305D01*
X154358679Y-128396993D01*
X154355800Y-128370210D01*
X154355800Y-123469400D01*
X151447193Y-120636016D01*
X151412356Y-120574156D01*
X151409117Y-120546438D01*
X151398982Y-118656233D01*
X151388914Y-116778577D01*
X160224483Y-116778577D01*
X160224658Y-116783029D01*
X160226896Y-116840000D01*
X160232324Y-116978139D01*
X160235327Y-117054583D01*
X160284953Y-117326309D01*
X160372370Y-117588331D01*
X160374363Y-117592319D01*
X160457550Y-117758802D01*
X160495834Y-117835421D01*
X160652882Y-118062651D01*
X160655904Y-118065920D01*
X160798903Y-118220615D01*
X160840380Y-118265485D01*
X160843834Y-118268297D01*
X161051131Y-118437063D01*
X161051135Y-118437066D01*
X161054588Y-118439877D01*
X161058410Y-118442178D01*
X161221761Y-118540523D01*
X161291230Y-118582347D01*
X161389747Y-118624064D01*
X161541482Y-118688316D01*
X161541487Y-118688318D01*
X161545585Y-118690053D01*
X161549882Y-118691192D01*
X161549887Y-118691194D01*
X161679082Y-118725449D01*
X161812579Y-118760845D01*
X162086884Y-118793311D01*
X162363027Y-118786804D01*
X162448587Y-118772563D01*
X162631108Y-118742183D01*
X162631112Y-118742182D01*
X162635498Y-118741452D01*
X162639739Y-118740111D01*
X162639742Y-118740110D01*
X162894615Y-118659504D01*
X162894617Y-118659503D01*
X162898861Y-118658161D01*
X162902872Y-118656235D01*
X162902877Y-118656233D01*
X163143842Y-118540523D01*
X163143843Y-118540522D01*
X163147861Y-118538593D01*
X163156525Y-118532804D01*
X163373821Y-118387612D01*
X163373825Y-118387609D01*
X163377529Y-118385134D01*
X163583283Y-118200845D01*
X163761018Y-117989403D01*
X163907188Y-117755028D01*
X163909070Y-117750773D01*
X164017077Y-117506463D01*
X164018875Y-117502396D01*
X164093853Y-117236547D01*
X164117705Y-117058962D01*
X164130196Y-116965968D01*
X164130197Y-116965961D01*
X164130623Y-116962786D01*
X164134482Y-116840000D01*
X164114973Y-116564470D01*
X164106385Y-116524577D01*
X168225483Y-116524577D01*
X168227896Y-116586000D01*
X168236327Y-116800583D01*
X168285953Y-117072309D01*
X168373370Y-117334331D01*
X168375363Y-117338319D01*
X168459380Y-117506463D01*
X168496834Y-117581421D01*
X168653882Y-117808651D01*
X168656904Y-117811920D01*
X168820968Y-117989403D01*
X168841380Y-118011485D01*
X168844834Y-118014297D01*
X169052131Y-118183063D01*
X169052135Y-118183066D01*
X169055588Y-118185877D01*
X169059410Y-118188178D01*
X169222761Y-118286523D01*
X169292230Y-118328347D01*
X169390747Y-118370064D01*
X169542482Y-118434316D01*
X169542487Y-118434318D01*
X169546585Y-118436053D01*
X169550882Y-118437192D01*
X169550887Y-118437194D01*
X169680082Y-118471449D01*
X169813579Y-118506845D01*
X170087884Y-118539311D01*
X170364027Y-118532804D01*
X170449587Y-118518563D01*
X170632108Y-118488183D01*
X170632112Y-118488182D01*
X170636498Y-118487452D01*
X170640739Y-118486111D01*
X170640742Y-118486110D01*
X170895615Y-118405504D01*
X170895617Y-118405503D01*
X170899861Y-118404161D01*
X170903872Y-118402235D01*
X170903877Y-118402233D01*
X171144842Y-118286523D01*
X171144843Y-118286522D01*
X171148861Y-118284593D01*
X171173250Y-118268297D01*
X171374821Y-118133612D01*
X171374825Y-118133609D01*
X171378529Y-118131134D01*
X171584283Y-117946845D01*
X171762018Y-117735403D01*
X171908188Y-117501028D01*
X171910070Y-117496773D01*
X172018077Y-117252463D01*
X172019875Y-117248396D01*
X172094853Y-116982547D01*
X172118705Y-116804962D01*
X172131196Y-116711968D01*
X172131197Y-116711961D01*
X172131623Y-116708786D01*
X172131724Y-116705575D01*
X172135381Y-116589222D01*
X172135381Y-116589217D01*
X172135482Y-116586000D01*
X172115973Y-116310470D01*
X172113458Y-116298785D01*
X172058773Y-116044785D01*
X172058773Y-116044783D01*
X172057837Y-116040438D01*
X171962233Y-115781291D01*
X171831068Y-115538200D01*
X171666960Y-115316016D01*
X171660622Y-115309577D01*
X171476314Y-115122352D01*
X171473183Y-115119171D01*
X171253604Y-114951594D01*
X171199448Y-114921265D01*
X171016490Y-114818803D01*
X171016487Y-114818802D01*
X171012604Y-114816627D01*
X171008459Y-114815023D01*
X171008456Y-114815022D01*
X170759134Y-114718567D01*
X170754991Y-114716964D01*
X170750666Y-114715961D01*
X170750661Y-114715960D01*
X170602567Y-114681634D01*
X170485905Y-114654593D01*
X170210715Y-114630759D01*
X170206280Y-114631003D01*
X170206276Y-114631003D01*
X169939356Y-114645693D01*
X169939349Y-114645694D01*
X169934913Y-114645938D01*
X169747848Y-114683147D01*
X169668364Y-114698957D01*
X169668362Y-114698958D01*
X169664001Y-114699825D01*
X169403384Y-114791347D01*
X169158263Y-114918678D01*
X169154648Y-114921261D01*
X169154642Y-114921265D01*
X168937150Y-115076687D01*
X168937146Y-115076690D01*
X168933529Y-115079275D01*
X168733665Y-115269936D01*
X168730909Y-115273431D01*
X168730908Y-115273433D01*
X168683733Y-115333275D01*
X168562659Y-115486856D01*
X168516204Y-115566834D01*
X168426161Y-115721853D01*
X168426158Y-115721859D01*
X168423923Y-115725707D01*
X168360398Y-115882542D01*
X168322604Y-115975853D01*
X168320226Y-115981723D01*
X168319155Y-115986036D01*
X168319153Y-115986041D01*
X168256059Y-116240041D01*
X168253636Y-116249796D01*
X168253182Y-116254224D01*
X168253182Y-116254226D01*
X168246963Y-116314922D01*
X168225483Y-116524577D01*
X164106385Y-116524577D01*
X164057773Y-116298785D01*
X164057773Y-116298783D01*
X164056837Y-116294438D01*
X163961233Y-116035291D01*
X163830068Y-115792200D01*
X163665960Y-115570016D01*
X163472183Y-115373171D01*
X163252604Y-115205594D01*
X163198448Y-115175265D01*
X163015490Y-115072803D01*
X163015487Y-115072802D01*
X163011604Y-115070627D01*
X163007459Y-115069023D01*
X163007456Y-115069022D01*
X162758134Y-114972567D01*
X162753991Y-114970964D01*
X162749666Y-114969961D01*
X162749661Y-114969960D01*
X162601567Y-114935634D01*
X162484905Y-114908593D01*
X162209715Y-114884759D01*
X162205280Y-114885003D01*
X162205276Y-114885003D01*
X161938356Y-114899693D01*
X161938349Y-114899694D01*
X161933913Y-114899938D01*
X161746848Y-114937147D01*
X161667364Y-114952957D01*
X161667362Y-114952958D01*
X161663001Y-114953825D01*
X161402384Y-115045347D01*
X161157263Y-115172678D01*
X161153648Y-115175261D01*
X161153642Y-115175265D01*
X160936150Y-115330687D01*
X160936146Y-115330690D01*
X160932529Y-115333275D01*
X160929309Y-115336347D01*
X160775199Y-115483361D01*
X160732665Y-115523936D01*
X160729909Y-115527431D01*
X160729908Y-115527433D01*
X160570343Y-115729841D01*
X160561659Y-115740856D01*
X160496294Y-115853391D01*
X160425161Y-115975853D01*
X160425158Y-115975859D01*
X160422923Y-115979707D01*
X160319226Y-116235723D01*
X160318155Y-116240036D01*
X160318153Y-116240041D01*
X160253709Y-116499475D01*
X160252636Y-116503796D01*
X160252182Y-116508224D01*
X160252182Y-116508226D01*
X160224937Y-116774145D01*
X160224483Y-116778577D01*
X151388914Y-116778577D01*
X151358600Y-111125000D01*
X150926800Y-110693200D01*
X142392400Y-110693200D01*
X142392400Y-120267610D01*
X142372398Y-120335731D01*
X142355495Y-120356705D01*
X139522200Y-123190000D01*
X139522200Y-128370210D01*
X139502198Y-128438331D01*
X139485295Y-128459305D01*
X138822505Y-129122095D01*
X138760193Y-129156121D01*
X138733410Y-129159000D01*
X126266304Y-129159000D01*
X126198183Y-129138998D01*
X126175409Y-129120259D01*
X125724920Y-128651000D01*
X125638105Y-128560567D01*
X125605359Y-128497575D01*
X125603000Y-128473309D01*
X125603000Y-126616126D01*
X129050262Y-126616126D01*
X129063190Y-126813366D01*
X129111845Y-127004947D01*
X129194599Y-127184454D01*
X129308679Y-127345874D01*
X129312813Y-127349901D01*
X129444946Y-127478619D01*
X129450266Y-127483802D01*
X129614617Y-127593617D01*
X129619919Y-127595895D01*
X129619921Y-127595896D01*
X129706250Y-127632986D01*
X129796228Y-127671644D01*
X129867698Y-127687816D01*
X129983381Y-127713993D01*
X129983387Y-127713994D01*
X129989018Y-127715268D01*
X129994789Y-127715495D01*
X129994791Y-127715495D01*
X130055384Y-127717875D01*
X130186528Y-127723028D01*
X130284337Y-127708846D01*
X130376432Y-127695494D01*
X130376437Y-127695493D01*
X130382146Y-127694665D01*
X130387610Y-127692810D01*
X130387615Y-127692809D01*
X130563848Y-127632986D01*
X130563853Y-127632984D01*
X130569320Y-127631128D01*
X130575177Y-127627848D01*
X130736742Y-127537367D01*
X130736746Y-127537364D01*
X130741780Y-127534545D01*
X130746217Y-127530854D01*
X130746221Y-127530852D01*
X130795388Y-127489960D01*
X133969194Y-127489960D01*
X133979077Y-127502450D01*
X134110053Y-127589965D01*
X134120161Y-127595454D01*
X134291077Y-127668885D01*
X134302020Y-127672440D01*
X134483448Y-127713494D01*
X134494855Y-127714996D01*
X134680733Y-127722298D01*
X134692217Y-127721696D01*
X134876315Y-127695004D01*
X134887498Y-127692319D01*
X135063647Y-127632524D01*
X135074150Y-127627848D01*
X135236450Y-127536956D01*
X135245944Y-127530431D01*
X135281413Y-127500931D01*
X135289865Y-127488346D01*
X135283693Y-127477699D01*
X134642811Y-126836816D01*
X134628868Y-126829203D01*
X134627034Y-126829334D01*
X134620420Y-126833585D01*
X133975387Y-127478619D01*
X133969194Y-127489960D01*
X130795388Y-127489960D01*
X130889314Y-127411843D01*
X130893752Y-127408152D01*
X130949469Y-127341159D01*
X131016452Y-127260621D01*
X131016454Y-127260617D01*
X131020145Y-127256180D01*
X131022964Y-127251146D01*
X131022967Y-127251142D01*
X131113905Y-127088761D01*
X131113905Y-127088760D01*
X131116728Y-127083720D01*
X131118584Y-127078253D01*
X131118586Y-127078248D01*
X131178409Y-126902015D01*
X131178410Y-126902010D01*
X131180265Y-126896546D01*
X131181093Y-126890837D01*
X131181094Y-126890832D01*
X131208095Y-126704602D01*
X131208628Y-126700928D01*
X131210108Y-126644400D01*
X131209769Y-126640705D01*
X131208041Y-126621905D01*
X133551143Y-126621905D01*
X133563309Y-126807519D01*
X133565110Y-126818889D01*
X133610898Y-126999180D01*
X133614739Y-127010026D01*
X133692616Y-127178956D01*
X133698367Y-127188917D01*
X133773840Y-127295708D01*
X133784427Y-127304095D01*
X133797727Y-127297067D01*
X134437584Y-126657211D01*
X134443961Y-126645532D01*
X134814803Y-126645532D01*
X134814934Y-126647366D01*
X134819185Y-126653980D01*
X135462139Y-127296933D01*
X135475442Y-127304197D01*
X135485481Y-127297075D01*
X135516031Y-127260344D01*
X135522556Y-127250850D01*
X135613448Y-127088550D01*
X135618124Y-127078047D01*
X135677919Y-126901898D01*
X135680604Y-126890715D01*
X135707592Y-126704576D01*
X135708222Y-126697193D01*
X135709508Y-126648104D01*
X135709265Y-126640705D01*
X135692056Y-126453412D01*
X135689959Y-126442097D01*
X135639466Y-126263063D01*
X135635344Y-126252324D01*
X135553070Y-126085489D01*
X135547060Y-126075681D01*
X135485764Y-125993596D01*
X135474506Y-125985147D01*
X135462088Y-125991918D01*
X134822416Y-126631589D01*
X134814803Y-126645532D01*
X134443961Y-126645532D01*
X134445197Y-126643268D01*
X134445066Y-126641434D01*
X134440815Y-126634820D01*
X133798134Y-125992140D01*
X133785299Y-125985131D01*
X133774607Y-125992929D01*
X133728147Y-126051863D01*
X133721874Y-126061524D01*
X133635267Y-126226136D01*
X133630862Y-126236771D01*
X133575700Y-126414420D01*
X133573308Y-126425674D01*
X133551444Y-126610404D01*
X133551143Y-126621905D01*
X131208041Y-126621905D01*
X131192550Y-126453323D01*
X131192021Y-126447566D01*
X131138368Y-126257324D01*
X131128233Y-126236771D01*
X131053497Y-126085224D01*
X131050943Y-126080045D01*
X130932677Y-125921667D01*
X130801005Y-125799951D01*
X133969088Y-125799951D01*
X133974921Y-125809715D01*
X134617189Y-126451984D01*
X134631132Y-126459597D01*
X134632966Y-126459466D01*
X134639580Y-126455215D01*
X135284641Y-125810153D01*
X135292252Y-125796215D01*
X135292215Y-125795698D01*
X135287641Y-125788880D01*
X135282331Y-125784806D01*
X135125013Y-125685546D01*
X135114769Y-125680326D01*
X134941992Y-125611395D01*
X134930954Y-125608125D01*
X134748516Y-125571836D01*
X134737070Y-125570633D01*
X134551077Y-125568199D01*
X134539597Y-125569102D01*
X134356268Y-125600604D01*
X134345160Y-125603581D01*
X134170637Y-125667965D01*
X134160255Y-125672917D01*
X134000389Y-125768027D01*
X133991080Y-125774791D01*
X133977486Y-125786712D01*
X133969088Y-125799951D01*
X130801005Y-125799951D01*
X130791769Y-125791413D01*
X130791767Y-125791411D01*
X130787528Y-125787493D01*
X130620359Y-125682017D01*
X130614999Y-125679879D01*
X130614996Y-125679877D01*
X130528563Y-125645394D01*
X130436767Y-125608771D01*
X130431107Y-125607645D01*
X130431103Y-125607644D01*
X130248569Y-125571336D01*
X130248567Y-125571336D01*
X130242902Y-125570209D01*
X130237127Y-125570133D01*
X130237123Y-125570133D01*
X130138687Y-125568845D01*
X130045256Y-125567622D01*
X130039559Y-125568601D01*
X130039558Y-125568601D01*
X129886308Y-125594934D01*
X129850447Y-125601096D01*
X129665002Y-125669510D01*
X129660041Y-125672462D01*
X129660040Y-125672462D01*
X129500096Y-125767618D01*
X129500093Y-125767620D01*
X129495128Y-125770574D01*
X129490788Y-125774380D01*
X129490784Y-125774383D01*
X129465890Y-125796215D01*
X129346517Y-125900903D01*
X129342942Y-125905438D01*
X129342941Y-125905439D01*
X129273444Y-125993596D01*
X129224145Y-126056131D01*
X129221454Y-126061247D01*
X129221452Y-126061249D01*
X129214863Y-126073773D01*
X129132110Y-126231061D01*
X129073495Y-126419833D01*
X129050262Y-126616126D01*
X125603000Y-126616126D01*
X125603000Y-124154400D01*
X127614723Y-124154400D01*
X127633793Y-124372377D01*
X127690425Y-124583730D01*
X127692747Y-124588710D01*
X127692748Y-124588712D01*
X127776848Y-124769063D01*
X127782898Y-124782038D01*
X127908402Y-124961277D01*
X128063123Y-125115998D01*
X128067631Y-125119155D01*
X128067634Y-125119157D01*
X128237852Y-125238345D01*
X128242361Y-125241502D01*
X128247343Y-125243825D01*
X128247348Y-125243828D01*
X128435688Y-125331652D01*
X128440670Y-125333975D01*
X128445978Y-125335397D01*
X128445980Y-125335398D01*
X128511745Y-125353020D01*
X128652023Y-125390607D01*
X128870000Y-125409677D01*
X129087977Y-125390607D01*
X129228255Y-125353020D01*
X129294020Y-125335398D01*
X129294022Y-125335397D01*
X129299330Y-125333975D01*
X129304312Y-125331652D01*
X129492652Y-125243828D01*
X129492657Y-125243825D01*
X129497639Y-125241502D01*
X129502148Y-125238345D01*
X129672366Y-125119157D01*
X129672369Y-125119155D01*
X129676877Y-125115998D01*
X129831598Y-124961277D01*
X129957102Y-124782038D01*
X129963153Y-124769063D01*
X130047252Y-124588712D01*
X130047253Y-124588710D01*
X130049575Y-124583730D01*
X130106207Y-124372377D01*
X130125277Y-124154400D01*
X134624723Y-124154400D01*
X134643793Y-124372377D01*
X134700425Y-124583730D01*
X134702747Y-124588710D01*
X134702748Y-124588712D01*
X134786848Y-124769063D01*
X134792898Y-124782038D01*
X134918402Y-124961277D01*
X135073123Y-125115998D01*
X135077631Y-125119155D01*
X135077634Y-125119157D01*
X135247852Y-125238345D01*
X135252361Y-125241502D01*
X135257343Y-125243825D01*
X135257348Y-125243828D01*
X135445688Y-125331652D01*
X135450670Y-125333975D01*
X135455978Y-125335397D01*
X135455980Y-125335398D01*
X135521745Y-125353020D01*
X135662023Y-125390607D01*
X135880000Y-125409677D01*
X136097977Y-125390607D01*
X136238255Y-125353020D01*
X136304020Y-125335398D01*
X136304022Y-125335397D01*
X136309330Y-125333975D01*
X136314312Y-125331652D01*
X136502652Y-125243828D01*
X136502657Y-125243825D01*
X136507639Y-125241502D01*
X136512148Y-125238345D01*
X136682366Y-125119157D01*
X136682369Y-125119155D01*
X136686877Y-125115998D01*
X136841598Y-124961277D01*
X136967102Y-124782038D01*
X136973153Y-124769063D01*
X137057252Y-124588712D01*
X137057253Y-124588710D01*
X137059575Y-124583730D01*
X137116207Y-124372377D01*
X137135277Y-124154400D01*
X137116207Y-123936423D01*
X137059575Y-123725070D01*
X137055650Y-123716653D01*
X136969425Y-123531743D01*
X136969423Y-123531740D01*
X136967102Y-123526762D01*
X136841598Y-123347523D01*
X136686877Y-123192802D01*
X136682369Y-123189645D01*
X136682366Y-123189643D01*
X136512148Y-123070455D01*
X136512145Y-123070453D01*
X136507639Y-123067298D01*
X136502657Y-123064975D01*
X136502652Y-123064972D01*
X136314312Y-122977148D01*
X136314311Y-122977147D01*
X136309330Y-122974825D01*
X136304022Y-122973403D01*
X136304020Y-122973402D01*
X136238255Y-122955780D01*
X136097977Y-122918193D01*
X135880000Y-122899123D01*
X135662023Y-122918193D01*
X135521745Y-122955780D01*
X135455980Y-122973402D01*
X135455978Y-122973403D01*
X135450670Y-122974825D01*
X135445690Y-122977147D01*
X135445688Y-122977148D01*
X135257343Y-123064975D01*
X135257340Y-123064977D01*
X135252362Y-123067298D01*
X135073123Y-123192802D01*
X134918402Y-123347523D01*
X134792898Y-123526762D01*
X134790577Y-123531740D01*
X134790575Y-123531743D01*
X134704350Y-123716653D01*
X134700425Y-123725070D01*
X134643793Y-123936423D01*
X134624723Y-124154400D01*
X130125277Y-124154400D01*
X130106207Y-123936423D01*
X130049575Y-123725070D01*
X130045650Y-123716653D01*
X129959425Y-123531743D01*
X129959423Y-123531740D01*
X129957102Y-123526762D01*
X129831598Y-123347523D01*
X129676877Y-123192802D01*
X129672369Y-123189645D01*
X129672366Y-123189643D01*
X129502148Y-123070455D01*
X129502145Y-123070453D01*
X129497639Y-123067298D01*
X129492657Y-123064975D01*
X129492652Y-123064972D01*
X129304312Y-122977148D01*
X129304311Y-122977147D01*
X129299330Y-122974825D01*
X129294022Y-122973403D01*
X129294020Y-122973402D01*
X129228255Y-122955780D01*
X129087977Y-122918193D01*
X128870000Y-122899123D01*
X128652023Y-122918193D01*
X128511745Y-122955780D01*
X128445980Y-122973402D01*
X128445978Y-122973403D01*
X128440670Y-122974825D01*
X128435690Y-122977147D01*
X128435688Y-122977148D01*
X128247343Y-123064975D01*
X128247340Y-123064977D01*
X128242362Y-123067298D01*
X128063123Y-123192802D01*
X127908402Y-123347523D01*
X127782898Y-123526762D01*
X127780577Y-123531740D01*
X127780575Y-123531743D01*
X127694350Y-123716653D01*
X127690425Y-123725070D01*
X127633793Y-123936423D01*
X127614723Y-124154400D01*
X125603000Y-124154400D01*
X125603000Y-100864748D01*
X125875700Y-100864748D01*
X125887333Y-100923231D01*
X125931648Y-100989552D01*
X125997969Y-101033867D01*
X126010138Y-101036288D01*
X126010139Y-101036288D01*
X126050384Y-101044293D01*
X126056452Y-101045500D01*
X128095948Y-101045500D01*
X128102016Y-101044293D01*
X128142261Y-101036288D01*
X128142262Y-101036288D01*
X128154431Y-101033867D01*
X128220752Y-100989552D01*
X128265067Y-100923231D01*
X128276700Y-100864748D01*
X128276700Y-100095800D01*
X128615700Y-100095800D01*
X128616023Y-100098979D01*
X128628704Y-100223821D01*
X128631080Y-100247216D01*
X128691862Y-100441172D01*
X128790403Y-100618944D01*
X128922677Y-100773271D01*
X129083281Y-100897848D01*
X129265655Y-100987587D01*
X129271833Y-100989196D01*
X129271835Y-100989197D01*
X129456166Y-101037212D01*
X129456169Y-101037212D01*
X129462348Y-101038822D01*
X129543528Y-101043076D01*
X129658944Y-101049125D01*
X129658948Y-101049125D01*
X129665326Y-101049459D01*
X129866297Y-101019065D01*
X130057052Y-100948881D01*
X130062473Y-100945520D01*
X130224376Y-100845137D01*
X130224380Y-100845134D01*
X130229799Y-100841774D01*
X130377480Y-100702119D01*
X130494063Y-100535621D01*
X130574786Y-100349081D01*
X130616351Y-100150120D01*
X130616700Y-100143461D01*
X130616700Y-100095800D01*
X131155700Y-100095800D01*
X131156023Y-100098979D01*
X131168704Y-100223821D01*
X131171080Y-100247216D01*
X131231862Y-100441172D01*
X131330403Y-100618944D01*
X131462677Y-100773271D01*
X131623281Y-100897848D01*
X131805655Y-100987587D01*
X131811833Y-100989196D01*
X131811835Y-100989197D01*
X131996166Y-101037212D01*
X131996169Y-101037212D01*
X132002348Y-101038822D01*
X132083528Y-101043076D01*
X132198944Y-101049125D01*
X132198948Y-101049125D01*
X132205326Y-101049459D01*
X132406297Y-101019065D01*
X132597052Y-100948881D01*
X132602473Y-100945520D01*
X132764376Y-100845137D01*
X132764380Y-100845134D01*
X132769799Y-100841774D01*
X132917480Y-100702119D01*
X133034063Y-100535621D01*
X133114786Y-100349081D01*
X133156351Y-100150120D01*
X133156700Y-100143461D01*
X133156700Y-100095800D01*
X133695700Y-100095800D01*
X133696023Y-100098979D01*
X133708704Y-100223821D01*
X133711080Y-100247216D01*
X133771862Y-100441172D01*
X133870403Y-100618944D01*
X134002677Y-100773271D01*
X134163281Y-100897848D01*
X134345655Y-100987587D01*
X134351833Y-100989196D01*
X134351835Y-100989197D01*
X134536166Y-101037212D01*
X134536169Y-101037212D01*
X134542348Y-101038822D01*
X134623528Y-101043076D01*
X134738944Y-101049125D01*
X134738948Y-101049125D01*
X134745326Y-101049459D01*
X134946297Y-101019065D01*
X135137052Y-100948881D01*
X135142473Y-100945520D01*
X135304376Y-100845137D01*
X135304380Y-100845134D01*
X135309799Y-100841774D01*
X135457480Y-100702119D01*
X135574063Y-100535621D01*
X135654786Y-100349081D01*
X135696351Y-100150120D01*
X135696700Y-100143461D01*
X135696700Y-100095800D01*
X136235700Y-100095800D01*
X136236023Y-100098979D01*
X136248704Y-100223821D01*
X136251080Y-100247216D01*
X136311862Y-100441172D01*
X136410403Y-100618944D01*
X136542677Y-100773271D01*
X136703281Y-100897848D01*
X136885655Y-100987587D01*
X136891833Y-100989196D01*
X136891835Y-100989197D01*
X137076166Y-101037212D01*
X137076169Y-101037212D01*
X137082348Y-101038822D01*
X137163528Y-101043076D01*
X137278944Y-101049125D01*
X137278948Y-101049125D01*
X137285326Y-101049459D01*
X137486297Y-101019065D01*
X137677052Y-100948881D01*
X137682473Y-100945520D01*
X137844376Y-100845137D01*
X137844380Y-100845134D01*
X137849799Y-100841774D01*
X137997480Y-100702119D01*
X138114063Y-100535621D01*
X138194786Y-100349081D01*
X138236351Y-100150120D01*
X138236700Y-100143461D01*
X138236700Y-100095800D01*
X138775700Y-100095800D01*
X138776023Y-100098979D01*
X138788704Y-100223821D01*
X138791080Y-100247216D01*
X138851862Y-100441172D01*
X138950403Y-100618944D01*
X139082677Y-100773271D01*
X139243281Y-100897848D01*
X139425655Y-100987587D01*
X139431833Y-100989196D01*
X139431835Y-100989197D01*
X139616166Y-101037212D01*
X139616169Y-101037212D01*
X139622348Y-101038822D01*
X139703528Y-101043076D01*
X139818944Y-101049125D01*
X139818948Y-101049125D01*
X139825326Y-101049459D01*
X140026297Y-101019065D01*
X140217052Y-100948881D01*
X140222473Y-100945520D01*
X140384376Y-100845137D01*
X140384380Y-100845134D01*
X140389799Y-100841774D01*
X140537480Y-100702119D01*
X140654063Y-100535621D01*
X140734786Y-100349081D01*
X140776351Y-100150120D01*
X140776700Y-100143461D01*
X140776700Y-100095800D01*
X141315700Y-100095800D01*
X141316023Y-100098979D01*
X141328704Y-100223821D01*
X141331080Y-100247216D01*
X141391862Y-100441172D01*
X141490403Y-100618944D01*
X141622677Y-100773271D01*
X141783281Y-100897848D01*
X141965655Y-100987587D01*
X141971833Y-100989196D01*
X141971835Y-100989197D01*
X142156166Y-101037212D01*
X142156169Y-101037212D01*
X142162348Y-101038822D01*
X142243528Y-101043076D01*
X142358944Y-101049125D01*
X142358948Y-101049125D01*
X142365326Y-101049459D01*
X142566297Y-101019065D01*
X142757052Y-100948881D01*
X142762473Y-100945520D01*
X142924376Y-100845137D01*
X142924380Y-100845134D01*
X142929799Y-100841774D01*
X143077480Y-100702119D01*
X143194063Y-100535621D01*
X143274786Y-100349081D01*
X143316351Y-100150120D01*
X143316700Y-100143461D01*
X143316700Y-99594200D01*
X143301320Y-99442784D01*
X143240538Y-99248828D01*
X143141997Y-99071056D01*
X143009723Y-98916729D01*
X142849119Y-98792152D01*
X142666745Y-98702413D01*
X142660567Y-98700804D01*
X142660565Y-98700803D01*
X142476234Y-98652788D01*
X142476231Y-98652788D01*
X142470052Y-98651178D01*
X142388872Y-98646924D01*
X142273456Y-98640875D01*
X142273452Y-98640875D01*
X142267074Y-98640541D01*
X142066103Y-98670935D01*
X142060108Y-98673141D01*
X142060107Y-98673141D01*
X142032881Y-98683158D01*
X141875348Y-98741119D01*
X141869928Y-98744479D01*
X141869927Y-98744480D01*
X141708024Y-98844863D01*
X141708020Y-98844866D01*
X141702601Y-98848226D01*
X141554920Y-98987881D01*
X141438337Y-99154379D01*
X141357614Y-99340919D01*
X141356308Y-99347171D01*
X141331277Y-99466989D01*
X141316049Y-99539880D01*
X141315700Y-99546539D01*
X141315700Y-100095800D01*
X140776700Y-100095800D01*
X140776700Y-99594200D01*
X140761320Y-99442784D01*
X140700538Y-99248828D01*
X140601997Y-99071056D01*
X140469723Y-98916729D01*
X140309119Y-98792152D01*
X140126745Y-98702413D01*
X140120567Y-98700804D01*
X140120565Y-98700803D01*
X139936234Y-98652788D01*
X139936231Y-98652788D01*
X139930052Y-98651178D01*
X139848872Y-98646924D01*
X139733456Y-98640875D01*
X139733452Y-98640875D01*
X139727074Y-98640541D01*
X139526103Y-98670935D01*
X139520108Y-98673141D01*
X139520107Y-98673141D01*
X139492881Y-98683158D01*
X139335348Y-98741119D01*
X139329928Y-98744479D01*
X139329927Y-98744480D01*
X139168024Y-98844863D01*
X139168020Y-98844866D01*
X139162601Y-98848226D01*
X139014920Y-98987881D01*
X138898337Y-99154379D01*
X138817614Y-99340919D01*
X138816308Y-99347171D01*
X138791277Y-99466989D01*
X138776049Y-99539880D01*
X138775700Y-99546539D01*
X138775700Y-100095800D01*
X138236700Y-100095800D01*
X138236700Y-99594200D01*
X138221320Y-99442784D01*
X138160538Y-99248828D01*
X138061997Y-99071056D01*
X137929723Y-98916729D01*
X137769119Y-98792152D01*
X137586745Y-98702413D01*
X137580567Y-98700804D01*
X137580565Y-98700803D01*
X137396234Y-98652788D01*
X137396231Y-98652788D01*
X137390052Y-98651178D01*
X137308872Y-98646924D01*
X137193456Y-98640875D01*
X137193452Y-98640875D01*
X137187074Y-98640541D01*
X136986103Y-98670935D01*
X136980108Y-98673141D01*
X136980107Y-98673141D01*
X136952881Y-98683158D01*
X136795348Y-98741119D01*
X136789928Y-98744479D01*
X136789927Y-98744480D01*
X136628024Y-98844863D01*
X136628020Y-98844866D01*
X136622601Y-98848226D01*
X136474920Y-98987881D01*
X136358337Y-99154379D01*
X136277614Y-99340919D01*
X136276308Y-99347171D01*
X136251277Y-99466989D01*
X136236049Y-99539880D01*
X136235700Y-99546539D01*
X136235700Y-100095800D01*
X135696700Y-100095800D01*
X135696700Y-99594200D01*
X135681320Y-99442784D01*
X135620538Y-99248828D01*
X135521997Y-99071056D01*
X135389723Y-98916729D01*
X135229119Y-98792152D01*
X135046745Y-98702413D01*
X135040567Y-98700804D01*
X135040565Y-98700803D01*
X134856234Y-98652788D01*
X134856231Y-98652788D01*
X134850052Y-98651178D01*
X134768872Y-98646924D01*
X134653456Y-98640875D01*
X134653452Y-98640875D01*
X134647074Y-98640541D01*
X134446103Y-98670935D01*
X134440108Y-98673141D01*
X134440107Y-98673141D01*
X134412881Y-98683158D01*
X134255348Y-98741119D01*
X134249928Y-98744479D01*
X134249927Y-98744480D01*
X134088024Y-98844863D01*
X134088020Y-98844866D01*
X134082601Y-98848226D01*
X133934920Y-98987881D01*
X133818337Y-99154379D01*
X133737614Y-99340919D01*
X133736308Y-99347171D01*
X133711277Y-99466989D01*
X133696049Y-99539880D01*
X133695700Y-99546539D01*
X133695700Y-100095800D01*
X133156700Y-100095800D01*
X133156700Y-99594200D01*
X133141320Y-99442784D01*
X133080538Y-99248828D01*
X132981997Y-99071056D01*
X132849723Y-98916729D01*
X132689119Y-98792152D01*
X132506745Y-98702413D01*
X132500567Y-98700804D01*
X132500565Y-98700803D01*
X132316234Y-98652788D01*
X132316231Y-98652788D01*
X132310052Y-98651178D01*
X132228872Y-98646924D01*
X132113456Y-98640875D01*
X132113452Y-98640875D01*
X132107074Y-98640541D01*
X131906103Y-98670935D01*
X131900108Y-98673141D01*
X131900107Y-98673141D01*
X131872881Y-98683158D01*
X131715348Y-98741119D01*
X131709928Y-98744479D01*
X131709927Y-98744480D01*
X131548024Y-98844863D01*
X131548020Y-98844866D01*
X131542601Y-98848226D01*
X131394920Y-98987881D01*
X131278337Y-99154379D01*
X131197614Y-99340919D01*
X131196308Y-99347171D01*
X131171277Y-99466989D01*
X131156049Y-99539880D01*
X131155700Y-99546539D01*
X131155700Y-100095800D01*
X130616700Y-100095800D01*
X130616700Y-99594200D01*
X130601320Y-99442784D01*
X130540538Y-99248828D01*
X130441997Y-99071056D01*
X130309723Y-98916729D01*
X130149119Y-98792152D01*
X129966745Y-98702413D01*
X129960567Y-98700804D01*
X129960565Y-98700803D01*
X129776234Y-98652788D01*
X129776231Y-98652788D01*
X129770052Y-98651178D01*
X129688872Y-98646924D01*
X129573456Y-98640875D01*
X129573452Y-98640875D01*
X129567074Y-98640541D01*
X129366103Y-98670935D01*
X129360108Y-98673141D01*
X129360107Y-98673141D01*
X129332881Y-98683158D01*
X129175348Y-98741119D01*
X129169928Y-98744479D01*
X129169927Y-98744480D01*
X129008024Y-98844863D01*
X129008020Y-98844866D01*
X129002601Y-98848226D01*
X128854920Y-98987881D01*
X128738337Y-99154379D01*
X128657614Y-99340919D01*
X128656308Y-99347171D01*
X128631277Y-99466989D01*
X128616049Y-99539880D01*
X128615700Y-99546539D01*
X128615700Y-100095800D01*
X128276700Y-100095800D01*
X128276700Y-98825252D01*
X128265067Y-98766769D01*
X128220752Y-98700448D01*
X128154431Y-98656133D01*
X128142262Y-98653712D01*
X128142261Y-98653712D01*
X128102016Y-98645707D01*
X128095948Y-98644500D01*
X126056452Y-98644500D01*
X126050384Y-98645707D01*
X126010139Y-98653712D01*
X126010138Y-98653712D01*
X125997969Y-98656133D01*
X125931648Y-98700448D01*
X125887333Y-98766769D01*
X125875700Y-98825252D01*
X125875700Y-100864748D01*
X125603000Y-100864748D01*
X125603000Y-97580623D01*
X143156791Y-97580623D01*
X143175380Y-97722779D01*
X143233120Y-97854003D01*
X143238897Y-97860876D01*
X143238898Y-97860877D01*
X143318644Y-97955746D01*
X143325370Y-97963748D01*
X143444713Y-98043190D01*
X143581557Y-98085942D01*
X143590529Y-98086106D01*
X143590532Y-98086107D01*
X143655863Y-98087304D01*
X143724899Y-98088570D01*
X143733933Y-98086107D01*
X143854558Y-98053221D01*
X143854560Y-98053220D01*
X143863217Y-98050860D01*
X143985391Y-97975845D01*
X144003584Y-97955745D01*
X144064126Y-97918664D01*
X144097000Y-97914300D01*
X144617556Y-97914300D01*
X144685677Y-97934302D01*
X144706647Y-97951201D01*
X145218384Y-98462938D01*
X145252409Y-98525250D01*
X145247344Y-98596066D01*
X145204797Y-98652901D01*
X145138277Y-98677712D01*
X145097529Y-98673964D01*
X145010052Y-98651178D01*
X144928872Y-98646924D01*
X144813456Y-98640875D01*
X144813452Y-98640875D01*
X144807074Y-98640541D01*
X144606103Y-98670935D01*
X144600108Y-98673141D01*
X144600107Y-98673141D01*
X144572881Y-98683158D01*
X144415348Y-98741119D01*
X144409928Y-98744479D01*
X144409927Y-98744480D01*
X144248024Y-98844863D01*
X144248020Y-98844866D01*
X144242601Y-98848226D01*
X144094920Y-98987881D01*
X143978337Y-99154379D01*
X143897614Y-99340919D01*
X143896308Y-99347171D01*
X143871277Y-99466989D01*
X143856049Y-99539880D01*
X143855700Y-99546539D01*
X143855700Y-100095800D01*
X143856023Y-100098979D01*
X143868704Y-100223821D01*
X143871080Y-100247216D01*
X143931862Y-100441172D01*
X144030403Y-100618944D01*
X144162677Y-100773271D01*
X144323281Y-100897848D01*
X144505655Y-100987587D01*
X144511833Y-100989196D01*
X144511835Y-100989197D01*
X144696166Y-101037212D01*
X144696169Y-101037212D01*
X144702348Y-101038822D01*
X144783528Y-101043076D01*
X144898944Y-101049125D01*
X144898948Y-101049125D01*
X144905326Y-101049459D01*
X145106297Y-101019065D01*
X145297052Y-100948881D01*
X145302473Y-100945520D01*
X145464376Y-100845137D01*
X145464380Y-100845134D01*
X145469799Y-100841774D01*
X145617480Y-100702119D01*
X145734063Y-100535621D01*
X145814786Y-100349081D01*
X145856351Y-100150120D01*
X145856700Y-100143461D01*
X145856700Y-99594200D01*
X145841320Y-99442784D01*
X145831824Y-99412482D01*
X145830540Y-99341497D01*
X145867837Y-99281086D01*
X145931874Y-99250430D01*
X146002319Y-99259262D01*
X146041153Y-99285708D01*
X146447595Y-99692150D01*
X146481621Y-99754462D01*
X146484500Y-99781245D01*
X146484500Y-104739555D01*
X146464498Y-104807676D01*
X146447595Y-104828650D01*
X146429192Y-104847053D01*
X146366880Y-104881079D01*
X146339331Y-104883956D01*
X146286176Y-104883631D01*
X146148329Y-104923028D01*
X146027080Y-104999530D01*
X145932177Y-105106988D01*
X145871247Y-105236763D01*
X145869866Y-105245635D01*
X145850703Y-105368714D01*
X145849191Y-105378423D01*
X145850355Y-105387325D01*
X145850355Y-105387328D01*
X145851614Y-105396954D01*
X145867780Y-105520579D01*
X145925520Y-105651803D01*
X145931297Y-105658676D01*
X145931298Y-105658677D01*
X145938592Y-105667354D01*
X146017770Y-105761548D01*
X146137113Y-105840990D01*
X146273957Y-105883742D01*
X146282929Y-105883906D01*
X146282932Y-105883907D01*
X146348263Y-105885104D01*
X146417299Y-105886370D01*
X146426333Y-105883907D01*
X146546958Y-105851021D01*
X146546960Y-105851020D01*
X146555617Y-105848660D01*
X146677791Y-105773645D01*
X146774000Y-105667354D01*
X146836510Y-105538333D01*
X146860296Y-105396954D01*
X146860355Y-105392092D01*
X146860791Y-105387237D01*
X146862040Y-105387349D01*
X146881181Y-105324995D01*
X146897242Y-105305313D01*
X147025646Y-105176909D01*
X147087958Y-105142883D01*
X147158773Y-105147948D01*
X147195731Y-105169481D01*
X147221321Y-105190953D01*
X147229427Y-105198381D01*
X147337447Y-105306402D01*
X147371472Y-105368714D01*
X147373287Y-105379159D01*
X147375614Y-105396954D01*
X147391780Y-105520579D01*
X147449520Y-105651803D01*
X147455297Y-105658676D01*
X147455298Y-105658677D01*
X147462592Y-105667354D01*
X147541770Y-105761548D01*
X147661113Y-105840990D01*
X147797957Y-105883742D01*
X147806929Y-105883906D01*
X147806932Y-105883907D01*
X147872263Y-105885104D01*
X147941299Y-105886370D01*
X147950333Y-105883907D01*
X148070958Y-105851021D01*
X148070960Y-105851020D01*
X148079617Y-105848660D01*
X148201791Y-105773645D01*
X148298000Y-105667354D01*
X148360510Y-105538333D01*
X148384296Y-105396954D01*
X148384447Y-105384600D01*
X148364123Y-105242682D01*
X148304784Y-105112172D01*
X148243578Y-105041139D01*
X148217060Y-105010363D01*
X148217057Y-105010360D01*
X148211200Y-105003563D01*
X148090895Y-104925585D01*
X147953539Y-104884507D01*
X147944563Y-104884452D01*
X147944562Y-104884452D01*
X147899730Y-104884178D01*
X147831732Y-104863759D01*
X147785568Y-104809821D01*
X147774500Y-104758180D01*
X147774500Y-102659511D01*
X162629800Y-102659511D01*
X162631007Y-102671766D01*
X162638983Y-102711864D01*
X162648299Y-102734355D01*
X162678715Y-102779876D01*
X162695924Y-102797085D01*
X162741445Y-102827501D01*
X162763936Y-102836817D01*
X162804034Y-102844793D01*
X162816289Y-102846000D01*
X163984685Y-102846000D01*
X163999924Y-102841525D01*
X164001129Y-102840135D01*
X164002800Y-102832452D01*
X164002800Y-102827885D01*
X164256800Y-102827885D01*
X164261275Y-102843124D01*
X164262665Y-102844329D01*
X164270348Y-102846000D01*
X165443311Y-102846000D01*
X165455566Y-102844793D01*
X165495664Y-102836817D01*
X165518155Y-102827501D01*
X165563676Y-102797085D01*
X165580885Y-102779876D01*
X165611301Y-102734355D01*
X165620617Y-102711864D01*
X165628593Y-102671766D01*
X165629800Y-102659511D01*
X165629800Y-101491115D01*
X165625325Y-101475876D01*
X165623935Y-101474671D01*
X165616252Y-101473000D01*
X164274915Y-101473000D01*
X164259676Y-101477475D01*
X164258471Y-101478865D01*
X164256800Y-101486548D01*
X164256800Y-102827885D01*
X164002800Y-102827885D01*
X164002800Y-101491115D01*
X163998325Y-101475876D01*
X163996935Y-101474671D01*
X163989252Y-101473000D01*
X162647915Y-101473000D01*
X162632676Y-101477475D01*
X162631471Y-101478865D01*
X162629800Y-101486548D01*
X162629800Y-102659511D01*
X147774500Y-102659511D01*
X147774500Y-101309214D01*
X167704606Y-101309214D01*
X167718810Y-101555545D01*
X167719947Y-101560591D01*
X167719948Y-101560597D01*
X167742136Y-101659051D01*
X167773055Y-101796249D01*
X167865884Y-102024861D01*
X167994806Y-102235241D01*
X168156357Y-102421741D01*
X168346199Y-102579351D01*
X168559233Y-102703838D01*
X168564053Y-102705678D01*
X168564058Y-102705681D01*
X168678347Y-102749323D01*
X168789739Y-102791859D01*
X168794807Y-102792890D01*
X168794810Y-102792891D01*
X168914387Y-102817219D01*
X169031526Y-102841052D01*
X169036699Y-102841242D01*
X169036702Y-102841242D01*
X169272936Y-102849904D01*
X169272940Y-102849904D01*
X169278100Y-102850093D01*
X169283220Y-102849437D01*
X169283222Y-102849437D01*
X169359503Y-102839665D01*
X169522841Y-102818741D01*
X169527790Y-102817256D01*
X169527796Y-102817255D01*
X169754224Y-102749323D01*
X169754223Y-102749323D01*
X169759174Y-102747838D01*
X169863066Y-102696942D01*
X169976103Y-102641566D01*
X169976108Y-102641563D01*
X169980754Y-102639287D01*
X169984964Y-102636284D01*
X169984969Y-102636281D01*
X170177417Y-102499009D01*
X170177422Y-102499005D01*
X170181629Y-102496004D01*
X170356405Y-102321837D01*
X170500388Y-102121463D01*
X170609711Y-101900264D01*
X170642845Y-101791207D01*
X170679935Y-101669132D01*
X170679936Y-101669126D01*
X170681439Y-101664180D01*
X170696422Y-101550376D01*
X170713208Y-101422872D01*
X170713209Y-101422866D01*
X170713645Y-101419550D01*
X170715443Y-101346000D01*
X170707460Y-101248906D01*
X170695649Y-101105240D01*
X170695648Y-101105234D01*
X170695225Y-101100089D01*
X170635116Y-100860783D01*
X170536728Y-100634507D01*
X170402705Y-100427339D01*
X170376435Y-100398468D01*
X170325807Y-100342829D01*
X170236646Y-100244842D01*
X170232595Y-100241643D01*
X170232591Y-100241639D01*
X170047064Y-100095119D01*
X170047059Y-100095116D01*
X170043010Y-100091918D01*
X170038494Y-100089425D01*
X170038491Y-100089423D01*
X169831522Y-99975170D01*
X169831518Y-99975168D01*
X169826998Y-99972673D01*
X169822129Y-99970949D01*
X169822125Y-99970947D01*
X169599285Y-99892035D01*
X169599281Y-99892034D01*
X169594410Y-99890309D01*
X169589317Y-99889402D01*
X169589314Y-99889401D01*
X169356583Y-99847945D01*
X169356577Y-99847944D01*
X169351494Y-99847039D01*
X169266443Y-99846000D01*
X169109942Y-99844088D01*
X169109940Y-99844088D01*
X169104772Y-99844025D01*
X168860870Y-99881347D01*
X168626340Y-99958003D01*
X168621748Y-99960393D01*
X168621749Y-99960393D01*
X168506796Y-100020234D01*
X168407479Y-100071935D01*
X168403346Y-100075038D01*
X168403343Y-100075040D01*
X168309780Y-100145289D01*
X168210164Y-100220083D01*
X168039696Y-100398468D01*
X168036782Y-100402740D01*
X168036781Y-100402741D01*
X168017038Y-100431683D01*
X167900651Y-100602300D01*
X167885701Y-100634507D01*
X167819475Y-100777180D01*
X167796765Y-100826104D01*
X167730826Y-101063871D01*
X167704606Y-101309214D01*
X147774500Y-101309214D01*
X147774500Y-101200885D01*
X162629800Y-101200885D01*
X162634275Y-101216124D01*
X162635665Y-101217329D01*
X162643348Y-101219000D01*
X163984685Y-101219000D01*
X163999924Y-101214525D01*
X164001129Y-101213135D01*
X164002800Y-101205452D01*
X164002800Y-101200885D01*
X164256800Y-101200885D01*
X164261275Y-101216124D01*
X164262665Y-101217329D01*
X164270348Y-101219000D01*
X165611685Y-101219000D01*
X165626924Y-101214525D01*
X165628129Y-101213135D01*
X165629800Y-101205452D01*
X165629800Y-100032489D01*
X165628593Y-100020234D01*
X165620617Y-99980136D01*
X165611301Y-99957645D01*
X165580885Y-99912124D01*
X165563676Y-99894915D01*
X165518155Y-99864499D01*
X165495664Y-99855183D01*
X165455566Y-99847207D01*
X165443311Y-99846000D01*
X164274915Y-99846000D01*
X164259676Y-99850475D01*
X164258471Y-99851865D01*
X164256800Y-99859548D01*
X164256800Y-101200885D01*
X164002800Y-101200885D01*
X164002800Y-99864115D01*
X163998325Y-99848876D01*
X163996935Y-99847671D01*
X163989252Y-99846000D01*
X162816289Y-99846000D01*
X162804034Y-99847207D01*
X162763936Y-99855183D01*
X162741445Y-99864499D01*
X162695924Y-99894915D01*
X162678715Y-99912124D01*
X162648299Y-99957645D01*
X162638983Y-99980136D01*
X162631007Y-100020234D01*
X162629800Y-100032489D01*
X162629800Y-101200885D01*
X147774500Y-101200885D01*
X147774500Y-99257594D01*
X147774980Y-99246611D01*
X147777326Y-99219799D01*
X147778287Y-99208816D01*
X147768464Y-99172156D01*
X147766087Y-99161433D01*
X147761411Y-99134917D01*
X147759497Y-99124061D01*
X147753986Y-99114515D01*
X147752760Y-99111147D01*
X147751246Y-99107901D01*
X147748394Y-99097257D01*
X147742071Y-99088226D01*
X147726626Y-99066167D01*
X147720721Y-99056899D01*
X147707261Y-99033586D01*
X147701750Y-99024040D01*
X147672677Y-98999645D01*
X147664573Y-98992218D01*
X145192184Y-96519830D01*
X145184757Y-96511726D01*
X145167443Y-96491092D01*
X145160357Y-96482647D01*
X145127492Y-96463672D01*
X145118232Y-96457774D01*
X145087140Y-96436003D01*
X145076496Y-96433151D01*
X145073250Y-96431637D01*
X145069882Y-96430411D01*
X145060336Y-96424900D01*
X145022965Y-96418310D01*
X145012241Y-96415933D01*
X144975581Y-96406110D01*
X144964597Y-96407071D01*
X144964596Y-96407071D01*
X144937786Y-96409417D01*
X144926803Y-96409897D01*
X144135287Y-96409897D01*
X144067166Y-96389895D01*
X144039835Y-96366145D01*
X144031403Y-96356360D01*
X143911098Y-96278382D01*
X143773742Y-96237304D01*
X143764766Y-96237249D01*
X143764765Y-96237249D01*
X143704558Y-96236881D01*
X143630379Y-96236428D01*
X143492532Y-96275825D01*
X143371283Y-96352327D01*
X143276380Y-96459785D01*
X143215450Y-96589560D01*
X143193394Y-96731220D01*
X143211983Y-96873376D01*
X143269723Y-97004600D01*
X143275502Y-97011475D01*
X143316439Y-97060175D01*
X143344961Y-97125191D01*
X143333805Y-97195305D01*
X143314430Y-97224658D01*
X143260780Y-97285406D01*
X143239777Y-97309188D01*
X143178847Y-97438963D01*
X143156791Y-97580623D01*
X125603000Y-97580623D01*
X125603000Y-92938694D01*
X166525041Y-92938694D01*
X166531873Y-92948440D01*
X166553833Y-92967130D01*
X166563904Y-92974129D01*
X166724334Y-93063790D01*
X166735574Y-93068701D01*
X166910367Y-93125494D01*
X166922341Y-93128127D01*
X167104844Y-93149890D01*
X167117093Y-93150147D01*
X167300346Y-93136046D01*
X167312426Y-93133915D01*
X167489430Y-93084494D01*
X167500881Y-93080053D01*
X167664917Y-92997194D01*
X167675276Y-92990620D01*
X167729344Y-92948378D01*
X167737813Y-92936564D01*
X167731279Y-92924885D01*
X167144811Y-92338416D01*
X167130868Y-92330803D01*
X167129034Y-92330934D01*
X167122420Y-92335185D01*
X166532414Y-92925192D01*
X166525041Y-92938694D01*
X125603000Y-92938694D01*
X125603000Y-92138114D01*
X166127775Y-92138114D01*
X166143153Y-92321252D01*
X166145368Y-92333317D01*
X166196025Y-92509980D01*
X166200543Y-92521392D01*
X166284545Y-92684841D01*
X166291197Y-92695163D01*
X166329480Y-92743466D01*
X166341470Y-92751935D01*
X166352915Y-92745479D01*
X166939584Y-92158811D01*
X166945961Y-92147132D01*
X167316803Y-92147132D01*
X167316934Y-92148966D01*
X167321185Y-92155580D01*
X167911442Y-92745836D01*
X167925064Y-92753275D01*
X167934628Y-92746621D01*
X167949075Y-92729884D01*
X167956143Y-92719864D01*
X168046919Y-92560068D01*
X168051913Y-92548852D01*
X168109921Y-92374473D01*
X168112641Y-92362502D01*
X168136004Y-92177560D01*
X168136496Y-92170533D01*
X168136790Y-92149523D01*
X168136495Y-92142494D01*
X168118303Y-91956959D01*
X168115920Y-91944924D01*
X168062801Y-91768985D01*
X168058126Y-91757644D01*
X167971846Y-91595373D01*
X167965059Y-91585157D01*
X167934907Y-91548187D01*
X167922563Y-91539724D01*
X167911591Y-91546015D01*
X167324416Y-92133189D01*
X167316803Y-92147132D01*
X166945961Y-92147132D01*
X166947197Y-92144868D01*
X166947066Y-92143034D01*
X166942815Y-92136420D01*
X166353023Y-91546629D01*
X166339643Y-91539323D01*
X166329717Y-91546332D01*
X166306853Y-91573581D01*
X166299927Y-91583695D01*
X166211383Y-91744757D01*
X166206555Y-91756021D01*
X166150981Y-91931213D01*
X166148433Y-91943201D01*
X166127946Y-92125845D01*
X166127775Y-92138114D01*
X125603000Y-92138114D01*
X125603000Y-91355471D01*
X166525911Y-91355471D01*
X166532286Y-91366680D01*
X167119189Y-91953584D01*
X167133132Y-91961197D01*
X167134966Y-91961066D01*
X167141580Y-91956815D01*
X167731190Y-91367204D01*
X167738429Y-91353947D01*
X167731240Y-91343842D01*
X167698649Y-91316881D01*
X167688478Y-91310020D01*
X167526809Y-91222606D01*
X167515504Y-91217854D01*
X167339938Y-91163507D01*
X167327925Y-91161041D01*
X167145143Y-91141829D01*
X167132875Y-91141744D01*
X166949851Y-91158400D01*
X166937799Y-91160699D01*
X166761496Y-91212589D01*
X166750119Y-91217186D01*
X166587247Y-91302333D01*
X166576986Y-91309047D01*
X166534379Y-91343304D01*
X166525911Y-91355471D01*
X125603000Y-91355471D01*
X125603000Y-88631963D01*
X166126757Y-88631963D01*
X166143175Y-88827483D01*
X166197258Y-89016091D01*
X166200076Y-89021574D01*
X166284123Y-89185113D01*
X166284126Y-89185117D01*
X166286944Y-89190601D01*
X166408818Y-89344369D01*
X166558238Y-89471535D01*
X166563616Y-89474541D01*
X166563618Y-89474542D01*
X166599932Y-89494837D01*
X166729513Y-89567257D01*
X166916118Y-89627889D01*
X167110946Y-89651121D01*
X167117081Y-89650649D01*
X167117083Y-89650649D01*
X167300434Y-89636541D01*
X167300438Y-89636540D01*
X167306576Y-89636068D01*
X167495556Y-89583303D01*
X167670689Y-89494837D01*
X167700515Y-89471535D01*
X167820453Y-89377829D01*
X167825303Y-89374040D01*
X167855084Y-89339539D01*
X167949485Y-89230173D01*
X167949485Y-89230172D01*
X167953509Y-89225511D01*
X168050425Y-89054909D01*
X168112358Y-88868732D01*
X168136949Y-88674071D01*
X168137341Y-88646000D01*
X168118194Y-88450728D01*
X168116413Y-88444829D01*
X168116412Y-88444824D01*
X168063265Y-88268793D01*
X168061484Y-88262894D01*
X167969370Y-88089653D01*
X167845361Y-87937602D01*
X167694180Y-87812535D01*
X167521585Y-87719213D01*
X167427868Y-87690203D01*
X167340039Y-87663015D01*
X167340036Y-87663014D01*
X167334152Y-87661193D01*
X167328027Y-87660549D01*
X167328026Y-87660549D01*
X167145147Y-87641327D01*
X167145146Y-87641327D01*
X167139019Y-87640683D01*
X167016383Y-87651844D01*
X166949759Y-87657907D01*
X166949758Y-87657907D01*
X166943618Y-87658466D01*
X166937704Y-87660207D01*
X166937702Y-87660207D01*
X166808734Y-87698165D01*
X166755393Y-87713864D01*
X166749928Y-87716721D01*
X166586972Y-87801912D01*
X166586968Y-87801915D01*
X166581512Y-87804767D01*
X166576712Y-87808627D01*
X166576711Y-87808627D01*
X166542326Y-87836273D01*
X166428600Y-87927711D01*
X166302480Y-88078016D01*
X166299516Y-88083408D01*
X166299513Y-88083412D01*
X166220813Y-88226567D01*
X166207956Y-88249954D01*
X166148628Y-88436978D01*
X166126757Y-88631963D01*
X125603000Y-88631963D01*
X125603000Y-77235800D01*
X126075700Y-77235800D01*
X126091080Y-77387216D01*
X126151862Y-77581172D01*
X126250403Y-77758944D01*
X126382677Y-77913271D01*
X126543281Y-78037848D01*
X126725655Y-78127587D01*
X126731833Y-78129196D01*
X126731835Y-78129197D01*
X126916166Y-78177212D01*
X126916169Y-78177212D01*
X126922348Y-78178822D01*
X127003528Y-78183076D01*
X127118944Y-78189125D01*
X127118948Y-78189125D01*
X127125326Y-78189459D01*
X127326297Y-78159065D01*
X127517052Y-78088881D01*
X127523205Y-78085066D01*
X127684376Y-77985137D01*
X127684380Y-77985134D01*
X127689799Y-77981774D01*
X127767362Y-77908426D01*
X127832839Y-77846508D01*
X127832840Y-77846507D01*
X127837480Y-77842119D01*
X127954063Y-77675621D01*
X128034786Y-77489081D01*
X128076351Y-77290120D01*
X128076700Y-77283461D01*
X128076700Y-77235800D01*
X128615700Y-77235800D01*
X128631080Y-77387216D01*
X128691862Y-77581172D01*
X128790403Y-77758944D01*
X128922677Y-77913271D01*
X129083281Y-78037848D01*
X129265655Y-78127587D01*
X129271833Y-78129196D01*
X129271835Y-78129197D01*
X129456166Y-78177212D01*
X129456169Y-78177212D01*
X129462348Y-78178822D01*
X129543528Y-78183076D01*
X129658944Y-78189125D01*
X129658948Y-78189125D01*
X129665326Y-78189459D01*
X129866297Y-78159065D01*
X130057052Y-78088881D01*
X130063205Y-78085066D01*
X130224376Y-77985137D01*
X130224380Y-77985134D01*
X130229799Y-77981774D01*
X130307362Y-77908426D01*
X130372839Y-77846508D01*
X130372840Y-77846507D01*
X130377480Y-77842119D01*
X130494063Y-77675621D01*
X130574786Y-77489081D01*
X130616351Y-77290120D01*
X130616700Y-77283461D01*
X130616700Y-77235800D01*
X131155700Y-77235800D01*
X131171080Y-77387216D01*
X131231862Y-77581172D01*
X131330403Y-77758944D01*
X131462677Y-77913271D01*
X131623281Y-78037848D01*
X131805655Y-78127587D01*
X131811833Y-78129196D01*
X131811835Y-78129197D01*
X131996166Y-78177212D01*
X131996169Y-78177212D01*
X132002348Y-78178822D01*
X132083528Y-78183076D01*
X132198944Y-78189125D01*
X132198948Y-78189125D01*
X132205326Y-78189459D01*
X132406297Y-78159065D01*
X132597052Y-78088881D01*
X132603205Y-78085066D01*
X132764376Y-77985137D01*
X132764380Y-77985134D01*
X132769799Y-77981774D01*
X132847362Y-77908426D01*
X132912839Y-77846508D01*
X132912840Y-77846507D01*
X132917480Y-77842119D01*
X133034063Y-77675621D01*
X133114786Y-77489081D01*
X133156351Y-77290120D01*
X133156700Y-77283461D01*
X133156700Y-77235800D01*
X133695700Y-77235800D01*
X133711080Y-77387216D01*
X133771862Y-77581172D01*
X133870403Y-77758944D01*
X134002677Y-77913271D01*
X134163281Y-78037848D01*
X134345655Y-78127587D01*
X134351833Y-78129196D01*
X134351835Y-78129197D01*
X134536166Y-78177212D01*
X134536169Y-78177212D01*
X134542348Y-78178822D01*
X134623528Y-78183076D01*
X134738944Y-78189125D01*
X134738948Y-78189125D01*
X134745326Y-78189459D01*
X134946297Y-78159065D01*
X135137052Y-78088881D01*
X135143205Y-78085066D01*
X135304376Y-77985137D01*
X135304380Y-77985134D01*
X135309799Y-77981774D01*
X135387362Y-77908426D01*
X135452839Y-77846508D01*
X135452840Y-77846507D01*
X135457480Y-77842119D01*
X135574063Y-77675621D01*
X135654786Y-77489081D01*
X135696351Y-77290120D01*
X135696700Y-77283461D01*
X135696700Y-77235800D01*
X136235700Y-77235800D01*
X136251080Y-77387216D01*
X136311862Y-77581172D01*
X136410403Y-77758944D01*
X136542677Y-77913271D01*
X136703281Y-78037848D01*
X136885655Y-78127587D01*
X136891833Y-78129196D01*
X136891835Y-78129197D01*
X137076166Y-78177212D01*
X137076169Y-78177212D01*
X137082348Y-78178822D01*
X137163528Y-78183076D01*
X137278944Y-78189125D01*
X137278948Y-78189125D01*
X137285326Y-78189459D01*
X137486297Y-78159065D01*
X137677052Y-78088881D01*
X137683205Y-78085066D01*
X137844376Y-77985137D01*
X137844380Y-77985134D01*
X137849799Y-77981774D01*
X137927362Y-77908426D01*
X137992839Y-77846508D01*
X137992840Y-77846507D01*
X137997480Y-77842119D01*
X138114063Y-77675621D01*
X138194786Y-77489081D01*
X138236351Y-77290120D01*
X138236700Y-77283461D01*
X138236700Y-77235800D01*
X138775700Y-77235800D01*
X138791080Y-77387216D01*
X138851862Y-77581172D01*
X138950403Y-77758944D01*
X139082677Y-77913271D01*
X139243281Y-78037848D01*
X139425655Y-78127587D01*
X139431833Y-78129196D01*
X139431835Y-78129197D01*
X139616166Y-78177212D01*
X139616169Y-78177212D01*
X139622348Y-78178822D01*
X139703528Y-78183076D01*
X139818944Y-78189125D01*
X139818948Y-78189125D01*
X139825326Y-78189459D01*
X140026297Y-78159065D01*
X140217052Y-78088881D01*
X140223205Y-78085066D01*
X140384376Y-77985137D01*
X140384380Y-77985134D01*
X140389799Y-77981774D01*
X140467362Y-77908426D01*
X140532839Y-77846508D01*
X140532840Y-77846507D01*
X140537480Y-77842119D01*
X140654063Y-77675621D01*
X140734786Y-77489081D01*
X140776351Y-77290120D01*
X140776700Y-77283461D01*
X140776700Y-77232574D01*
X141316200Y-77232574D01*
X141316523Y-77238949D01*
X141330928Y-77380766D01*
X141333482Y-77393206D01*
X141390414Y-77574874D01*
X141395423Y-77586562D01*
X141487723Y-77753077D01*
X141494967Y-77763500D01*
X141618870Y-77908059D01*
X141628068Y-77916818D01*
X141778504Y-78033509D01*
X141789278Y-78040241D01*
X141960101Y-78124297D01*
X141972008Y-78128725D01*
X142156244Y-78176715D01*
X142168804Y-78178659D01*
X142171108Y-78178780D01*
X142186562Y-78175109D01*
X142186617Y-78175052D01*
X142189200Y-78164513D01*
X142189200Y-78159061D01*
X142443200Y-78159061D01*
X142447129Y-78172441D01*
X142461344Y-78174432D01*
X142559863Y-78159532D01*
X142572160Y-78156375D01*
X142750842Y-78090633D01*
X142762255Y-78085066D01*
X142924066Y-77984739D01*
X142934132Y-77976987D01*
X143072458Y-77846179D01*
X143080762Y-77836559D01*
X143189965Y-77680602D01*
X143196158Y-77669520D01*
X143271770Y-77494790D01*
X143275612Y-77482678D01*
X143314860Y-77294813D01*
X143316105Y-77285227D01*
X143316112Y-77285078D01*
X143316200Y-77281742D01*
X143316200Y-77235800D01*
X143855700Y-77235800D01*
X143871080Y-77387216D01*
X143931862Y-77581172D01*
X144030403Y-77758944D01*
X144162677Y-77913271D01*
X144323281Y-78037848D01*
X144505655Y-78127587D01*
X144511833Y-78129196D01*
X144511835Y-78129197D01*
X144696166Y-78177212D01*
X144696169Y-78177212D01*
X144702348Y-78178822D01*
X144783528Y-78183076D01*
X144898944Y-78189125D01*
X144898948Y-78189125D01*
X144905326Y-78189459D01*
X145106297Y-78159065D01*
X145297052Y-78088881D01*
X145303205Y-78085066D01*
X145464376Y-77985137D01*
X145464380Y-77985134D01*
X145469799Y-77981774D01*
X145547362Y-77908426D01*
X145612839Y-77846508D01*
X145612840Y-77846507D01*
X145617480Y-77842119D01*
X145734063Y-77675621D01*
X145814786Y-77489081D01*
X145856351Y-77290120D01*
X145856700Y-77283461D01*
X145856700Y-76734200D01*
X145841320Y-76582784D01*
X145780538Y-76388828D01*
X145681997Y-76211056D01*
X145549723Y-76056729D01*
X145389119Y-75932152D01*
X145206745Y-75842413D01*
X145200567Y-75840804D01*
X145200565Y-75840803D01*
X145016234Y-75792788D01*
X145016231Y-75792788D01*
X145010052Y-75791178D01*
X144928872Y-75786924D01*
X144813456Y-75780875D01*
X144813452Y-75780875D01*
X144807074Y-75780541D01*
X144606103Y-75810935D01*
X144415348Y-75881119D01*
X144409928Y-75884479D01*
X144409927Y-75884480D01*
X144248024Y-75984863D01*
X144248020Y-75984866D01*
X144242601Y-75988226D01*
X144237963Y-75992612D01*
X144164650Y-76061941D01*
X144094920Y-76127881D01*
X143978337Y-76294379D01*
X143897614Y-76480919D01*
X143856049Y-76679880D01*
X143855700Y-76686539D01*
X143855700Y-77235800D01*
X143316200Y-77235800D01*
X143316200Y-77130115D01*
X143311725Y-77114876D01*
X143310335Y-77113671D01*
X143302652Y-77112000D01*
X142461315Y-77112000D01*
X142446076Y-77116475D01*
X142444871Y-77117865D01*
X142443200Y-77125548D01*
X142443200Y-78159061D01*
X142189200Y-78159061D01*
X142189200Y-77130115D01*
X142184725Y-77114876D01*
X142183335Y-77113671D01*
X142175652Y-77112000D01*
X141334315Y-77112000D01*
X141319076Y-77116475D01*
X141317871Y-77117865D01*
X141316200Y-77125548D01*
X141316200Y-77232574D01*
X140776700Y-77232574D01*
X140776700Y-76839885D01*
X141316200Y-76839885D01*
X141320675Y-76855124D01*
X141322065Y-76856329D01*
X141329748Y-76858000D01*
X142171085Y-76858000D01*
X142186324Y-76853525D01*
X142187529Y-76852135D01*
X142189200Y-76844452D01*
X142189200Y-76839885D01*
X142443200Y-76839885D01*
X142447675Y-76855124D01*
X142449065Y-76856329D01*
X142456748Y-76858000D01*
X143298085Y-76858000D01*
X143313324Y-76853525D01*
X143314529Y-76852135D01*
X143316200Y-76844452D01*
X143316200Y-76737426D01*
X143315877Y-76731051D01*
X143301472Y-76589234D01*
X143298918Y-76576794D01*
X143241986Y-76395126D01*
X143236977Y-76383438D01*
X143144677Y-76216923D01*
X143137433Y-76206500D01*
X143013530Y-76061941D01*
X143004332Y-76053182D01*
X142853896Y-75936491D01*
X142843122Y-75929759D01*
X142672299Y-75845703D01*
X142660392Y-75841275D01*
X142476156Y-75793285D01*
X142463596Y-75791341D01*
X142461292Y-75791220D01*
X142445838Y-75794891D01*
X142445783Y-75794948D01*
X142443200Y-75805487D01*
X142443200Y-76839885D01*
X142189200Y-76839885D01*
X142189200Y-75810939D01*
X142185271Y-75797559D01*
X142171056Y-75795568D01*
X142072537Y-75810468D01*
X142060240Y-75813625D01*
X141881558Y-75879367D01*
X141870145Y-75884934D01*
X141708334Y-75985261D01*
X141698268Y-75993013D01*
X141559942Y-76123821D01*
X141551638Y-76133441D01*
X141442435Y-76289398D01*
X141436242Y-76300480D01*
X141360630Y-76475210D01*
X141356788Y-76487322D01*
X141317540Y-76675187D01*
X141316295Y-76684773D01*
X141316288Y-76684922D01*
X141316200Y-76688258D01*
X141316200Y-76839885D01*
X140776700Y-76839885D01*
X140776700Y-76734200D01*
X140761320Y-76582784D01*
X140700538Y-76388828D01*
X140601997Y-76211056D01*
X140469723Y-76056729D01*
X140309119Y-75932152D01*
X140126745Y-75842413D01*
X140120567Y-75840804D01*
X140120565Y-75840803D01*
X139936234Y-75792788D01*
X139936231Y-75792788D01*
X139930052Y-75791178D01*
X139848872Y-75786924D01*
X139733456Y-75780875D01*
X139733452Y-75780875D01*
X139727074Y-75780541D01*
X139526103Y-75810935D01*
X139335348Y-75881119D01*
X139329928Y-75884479D01*
X139329927Y-75884480D01*
X139168024Y-75984863D01*
X139168020Y-75984866D01*
X139162601Y-75988226D01*
X139157963Y-75992612D01*
X139084650Y-76061941D01*
X139014920Y-76127881D01*
X138898337Y-76294379D01*
X138817614Y-76480919D01*
X138776049Y-76679880D01*
X138775700Y-76686539D01*
X138775700Y-77235800D01*
X138236700Y-77235800D01*
X138236700Y-76734200D01*
X138221320Y-76582784D01*
X138160538Y-76388828D01*
X138061997Y-76211056D01*
X137929723Y-76056729D01*
X137769119Y-75932152D01*
X137586745Y-75842413D01*
X137580567Y-75840804D01*
X137580565Y-75840803D01*
X137396234Y-75792788D01*
X137396231Y-75792788D01*
X137390052Y-75791178D01*
X137308872Y-75786924D01*
X137193456Y-75780875D01*
X137193452Y-75780875D01*
X137187074Y-75780541D01*
X136986103Y-75810935D01*
X136795348Y-75881119D01*
X136789928Y-75884479D01*
X136789927Y-75884480D01*
X136628024Y-75984863D01*
X136628020Y-75984866D01*
X136622601Y-75988226D01*
X136617963Y-75992612D01*
X136544650Y-76061941D01*
X136474920Y-76127881D01*
X136358337Y-76294379D01*
X136277614Y-76480919D01*
X136236049Y-76679880D01*
X136235700Y-76686539D01*
X136235700Y-77235800D01*
X135696700Y-77235800D01*
X135696700Y-76734200D01*
X135681320Y-76582784D01*
X135620538Y-76388828D01*
X135521997Y-76211056D01*
X135389723Y-76056729D01*
X135229119Y-75932152D01*
X135046745Y-75842413D01*
X135040567Y-75840804D01*
X135040565Y-75840803D01*
X134856234Y-75792788D01*
X134856231Y-75792788D01*
X134850052Y-75791178D01*
X134768872Y-75786924D01*
X134653456Y-75780875D01*
X134653452Y-75780875D01*
X134647074Y-75780541D01*
X134446103Y-75810935D01*
X134255348Y-75881119D01*
X134249928Y-75884479D01*
X134249927Y-75884480D01*
X134088024Y-75984863D01*
X134088020Y-75984866D01*
X134082601Y-75988226D01*
X134077963Y-75992612D01*
X134004650Y-76061941D01*
X133934920Y-76127881D01*
X133818337Y-76294379D01*
X133737614Y-76480919D01*
X133696049Y-76679880D01*
X133695700Y-76686539D01*
X133695700Y-77235800D01*
X133156700Y-77235800D01*
X133156700Y-76734200D01*
X133141320Y-76582784D01*
X133080538Y-76388828D01*
X132981997Y-76211056D01*
X132849723Y-76056729D01*
X132689119Y-75932152D01*
X132506745Y-75842413D01*
X132500567Y-75840804D01*
X132500565Y-75840803D01*
X132316234Y-75792788D01*
X132316231Y-75792788D01*
X132310052Y-75791178D01*
X132228872Y-75786924D01*
X132113456Y-75780875D01*
X132113452Y-75780875D01*
X132107074Y-75780541D01*
X131906103Y-75810935D01*
X131715348Y-75881119D01*
X131709928Y-75884479D01*
X131709927Y-75884480D01*
X131548024Y-75984863D01*
X131548020Y-75984866D01*
X131542601Y-75988226D01*
X131537963Y-75992612D01*
X131464650Y-76061941D01*
X131394920Y-76127881D01*
X131278337Y-76294379D01*
X131197614Y-76480919D01*
X131156049Y-76679880D01*
X131155700Y-76686539D01*
X131155700Y-77235800D01*
X130616700Y-77235800D01*
X130616700Y-76734200D01*
X130601320Y-76582784D01*
X130540538Y-76388828D01*
X130441997Y-76211056D01*
X130309723Y-76056729D01*
X130149119Y-75932152D01*
X129966745Y-75842413D01*
X129960567Y-75840804D01*
X129960565Y-75840803D01*
X129776234Y-75792788D01*
X129776231Y-75792788D01*
X129770052Y-75791178D01*
X129688872Y-75786924D01*
X129573456Y-75780875D01*
X129573452Y-75780875D01*
X129567074Y-75780541D01*
X129366103Y-75810935D01*
X129175348Y-75881119D01*
X129169928Y-75884479D01*
X129169927Y-75884480D01*
X129008024Y-75984863D01*
X129008020Y-75984866D01*
X129002601Y-75988226D01*
X128997963Y-75992612D01*
X128924650Y-76061941D01*
X128854920Y-76127881D01*
X128738337Y-76294379D01*
X128657614Y-76480919D01*
X128616049Y-76679880D01*
X128615700Y-76686539D01*
X128615700Y-77235800D01*
X128076700Y-77235800D01*
X128076700Y-76734200D01*
X128061320Y-76582784D01*
X128000538Y-76388828D01*
X127901997Y-76211056D01*
X127769723Y-76056729D01*
X127609119Y-75932152D01*
X127426745Y-75842413D01*
X127420567Y-75840804D01*
X127420565Y-75840803D01*
X127236234Y-75792788D01*
X127236231Y-75792788D01*
X127230052Y-75791178D01*
X127148872Y-75786924D01*
X127033456Y-75780875D01*
X127033452Y-75780875D01*
X127027074Y-75780541D01*
X126826103Y-75810935D01*
X126635348Y-75881119D01*
X126629928Y-75884479D01*
X126629927Y-75884480D01*
X126468024Y-75984863D01*
X126468020Y-75984866D01*
X126462601Y-75988226D01*
X126457963Y-75992612D01*
X126384650Y-76061941D01*
X126314920Y-76127881D01*
X126198337Y-76294379D01*
X126117614Y-76480919D01*
X126076049Y-76679880D01*
X126075700Y-76686539D01*
X126075700Y-77235800D01*
X125603000Y-77235800D01*
X125603000Y-74021748D01*
X126076500Y-74021748D01*
X126077707Y-74027816D01*
X126081331Y-74046033D01*
X126088133Y-74080231D01*
X126132448Y-74146552D01*
X126198769Y-74190867D01*
X126210938Y-74193288D01*
X126210939Y-74193288D01*
X126251184Y-74201293D01*
X126257252Y-74202500D01*
X127996748Y-74202500D01*
X128002816Y-74201293D01*
X128043061Y-74193288D01*
X128043062Y-74193288D01*
X128055231Y-74190867D01*
X128121552Y-74146552D01*
X128165867Y-74080231D01*
X128172670Y-74046033D01*
X128176293Y-74027816D01*
X128177500Y-74021748D01*
X128177500Y-73137262D01*
X128611520Y-73137262D01*
X128612036Y-73143406D01*
X128628236Y-73336321D01*
X128628759Y-73342553D01*
X128630458Y-73348478D01*
X128683792Y-73534475D01*
X128685544Y-73540586D01*
X128688359Y-73546063D01*
X128688360Y-73546066D01*
X128709139Y-73586497D01*
X128779712Y-73723818D01*
X128907677Y-73885270D01*
X129064564Y-74018791D01*
X129069942Y-74021797D01*
X129069944Y-74021798D01*
X129101563Y-74039469D01*
X129244398Y-74119297D01*
X129328280Y-74146552D01*
X129434471Y-74181056D01*
X129434475Y-74181057D01*
X129440329Y-74182959D01*
X129644894Y-74207351D01*
X129651029Y-74206879D01*
X129651031Y-74206879D01*
X129723625Y-74201293D01*
X129850300Y-74191546D01*
X129856230Y-74189890D01*
X129856232Y-74189890D01*
X130042797Y-74137800D01*
X130042796Y-74137800D01*
X130048725Y-74136145D01*
X130054214Y-74133372D01*
X130054220Y-74133370D01*
X130227116Y-74046033D01*
X130232610Y-74043258D01*
X130238012Y-74039038D01*
X130390101Y-73920213D01*
X130394951Y-73916424D01*
X130426314Y-73880090D01*
X130525540Y-73765134D01*
X130525540Y-73765133D01*
X130529564Y-73760472D01*
X130532772Y-73754826D01*
X130628276Y-73586707D01*
X130631323Y-73581344D01*
X130696351Y-73385863D01*
X130707809Y-73295164D01*
X131165280Y-73295164D01*
X131168736Y-73336321D01*
X131170951Y-73348386D01*
X131224311Y-73534475D01*
X131228829Y-73545887D01*
X131317314Y-73718060D01*
X131323964Y-73728378D01*
X131444209Y-73880090D01*
X131452732Y-73888916D01*
X131600159Y-74014386D01*
X131610231Y-74021386D01*
X131779220Y-74115830D01*
X131790459Y-74120741D01*
X131974576Y-74180564D01*
X131986553Y-74183197D01*
X132062013Y-74192196D01*
X132076417Y-74189769D01*
X132079926Y-74177262D01*
X132334000Y-74177262D01*
X132338354Y-74192090D01*
X132349951Y-74194150D01*
X132384072Y-74191525D01*
X132396149Y-74189395D01*
X132582607Y-74137334D01*
X132594040Y-74132900D01*
X132766841Y-74045612D01*
X132777200Y-74039038D01*
X132929748Y-73919854D01*
X132938630Y-73911396D01*
X133065127Y-73764848D01*
X133072197Y-73754826D01*
X133167821Y-73586497D01*
X133172810Y-73575291D01*
X133233915Y-73391604D01*
X133236635Y-73379632D01*
X133247077Y-73296974D01*
X133244774Y-73282694D01*
X133231784Y-73279000D01*
X132352115Y-73279000D01*
X132336876Y-73283475D01*
X132335671Y-73284865D01*
X132334000Y-73292548D01*
X132334000Y-74177262D01*
X132079926Y-74177262D01*
X132080000Y-74176999D01*
X132080000Y-73297115D01*
X132075525Y-73281876D01*
X132074135Y-73280671D01*
X132066452Y-73279000D01*
X131182038Y-73279000D01*
X131167342Y-73283315D01*
X131165280Y-73295164D01*
X130707809Y-73295164D01*
X130722171Y-73181474D01*
X130722583Y-73152000D01*
X130708365Y-73006996D01*
X131166634Y-73006996D01*
X131169187Y-73021527D01*
X131181734Y-73025000D01*
X132061885Y-73025000D01*
X132077124Y-73020525D01*
X132078329Y-73019135D01*
X132080000Y-73011452D01*
X132080000Y-73006885D01*
X132334000Y-73006885D01*
X132338475Y-73022124D01*
X132339865Y-73023329D01*
X132347548Y-73025000D01*
X133231513Y-73025000D01*
X133245940Y-73020764D01*
X133248001Y-73008411D01*
X133242588Y-72953200D01*
X133240205Y-72941165D01*
X133184252Y-72755840D01*
X133179578Y-72744499D01*
X133088693Y-72573569D01*
X133081902Y-72563349D01*
X132959549Y-72413328D01*
X132950910Y-72404629D01*
X132801743Y-72281226D01*
X132791572Y-72274366D01*
X132621280Y-72182291D01*
X132609974Y-72177538D01*
X132425040Y-72120291D01*
X132413027Y-72117825D01*
X132352015Y-72111412D01*
X132337365Y-72114092D01*
X132334000Y-72126414D01*
X132334000Y-73006885D01*
X132080000Y-73006885D01*
X132080000Y-72127288D01*
X132075724Y-72112726D01*
X132063621Y-72110664D01*
X132015438Y-72115048D01*
X132003383Y-72117348D01*
X131817679Y-72172004D01*
X131806295Y-72176603D01*
X131634736Y-72266292D01*
X131624475Y-72273006D01*
X131473606Y-72394308D01*
X131464832Y-72402901D01*
X131340405Y-72551187D01*
X131333467Y-72561317D01*
X131240204Y-72730964D01*
X131235376Y-72742228D01*
X131176837Y-72926766D01*
X131174289Y-72938754D01*
X131166634Y-73006996D01*
X130708365Y-73006996D01*
X130702480Y-72946970D01*
X130642935Y-72749749D01*
X130546218Y-72567849D01*
X130472859Y-72477902D01*
X130419906Y-72412975D01*
X130419903Y-72412972D01*
X130416011Y-72408200D01*
X130403458Y-72397815D01*
X130262025Y-72280811D01*
X130262021Y-72280809D01*
X130257275Y-72276882D01*
X130076055Y-72178897D01*
X129879254Y-72117977D01*
X129873129Y-72117333D01*
X129873128Y-72117333D01*
X129680498Y-72097087D01*
X129680496Y-72097087D01*
X129674369Y-72096443D01*
X129587529Y-72104346D01*
X129475342Y-72114555D01*
X129475339Y-72114556D01*
X129469203Y-72115114D01*
X129271572Y-72173280D01*
X129089002Y-72268726D01*
X129084201Y-72272586D01*
X129084198Y-72272588D01*
X128933254Y-72393950D01*
X128928447Y-72397815D01*
X128796024Y-72555630D01*
X128793056Y-72561028D01*
X128793053Y-72561033D01*
X128699743Y-72730765D01*
X128696776Y-72736162D01*
X128634484Y-72932532D01*
X128633798Y-72938649D01*
X128633797Y-72938653D01*
X128624112Y-73025000D01*
X128611520Y-73137262D01*
X128177500Y-73137262D01*
X128177500Y-72282252D01*
X128165867Y-72223769D01*
X128121552Y-72157448D01*
X128055231Y-72113133D01*
X128043062Y-72110712D01*
X128043061Y-72110712D01*
X128002816Y-72102707D01*
X127996748Y-72101500D01*
X126257252Y-72101500D01*
X126251184Y-72102707D01*
X126210939Y-72110712D01*
X126210938Y-72110712D01*
X126198769Y-72113133D01*
X126132448Y-72157448D01*
X126088133Y-72223769D01*
X126076500Y-72282252D01*
X126076500Y-74021748D01*
X125603000Y-74021748D01*
X125603000Y-66342065D01*
X125623002Y-66273944D01*
X125635012Y-66258147D01*
X126200427Y-65624882D01*
X126260717Y-65587390D01*
X126294415Y-65582800D01*
X168578410Y-65582800D01*
X168646531Y-65602802D01*
G37*
%TD.AperFunction*%
%TD*%
M02*
